<?xml version="1.0" encoding="UTF-8"?>
<svg xmlns="http://www.w3.org/2000/svg" xmlns:xlink="http://www.w3.org/1999/xlink" width="7px" height="13px" viewBox="0 0 7 13" version="1.1">
    <!-- Generator: Sketch 44.1 (41455) - http://www.bohemiancoding.com/sketch -->
    <title>›</title>
    <desc>Created with Sketch.</desc>
    <defs/>
    <g id="Landing-Page---Hotel" stroke="none" stroke-width="1" fill="none" fill-rule="evenodd">
        <g id="Hotel-Landing-Page---Hotel-Note" transform="translate(-269.000000, -491.000000)" fill="#292929">
            <g id="Cancun-Secrets-Todo-Incluido-Suite-Presidencial_4_l" transform="translate(235.000000, 261.000000)">
                <path d="M41,236.122807 L41,236.54386 C40.8128646,236.742691 40.2514667,237.292393 39.3157895,238.192982 L37.3333333,240.122807 L34.8947368,242.631579 L34.6666667,242.666667 L34.0175439,242.210526 L34,242.017544 C36.1988414,239.152032 37.5497051,237.257315 38.0526316,236.333333 C37.7719284,235.853799 37.1900629,234.994158 36.3070175,233.754386 C35.4239722,232.514614 34.654974,231.479536 34,230.649123 L34.0175439,230.45614 L34.6666667,230 L34.8947368,230.035088 C36.497084,231.684219 37.9590577,233.15204 39.2807018,234.438596 L41,236.122807 Z" id="›" transform="translate(37.500000, 236.333333) scale(-1, 1) translate(-37.500000, -236.333333) "/>
            </g>
        </g>
    </g>
</svg>
