<?xml version="1.0" encoding="UTF-8"?>
<svg xmlns="http://www.w3.org/2000/svg" xmlns:xlink="http://www.w3.org/1999/xlink" width="12px" height="7px" viewBox="0 0 12 7" version="1.1">
    <!-- Generator: Sketch 45.2 (43514) - http://www.bohemiancoding.com/sketch -->
    <title>›</title>
    <desc>Created with Sketch.</desc>
    <defs/>
    <g id="SR---Hotel-+-Flights" stroke="none" stroke-width="1" fill="none" fill-rule="evenodd">
        <g id="SR---Hotel-+-Flights-Fully-Expanded-Flight-info" transform="translate(-1161.000000, -904.000000)" fill="#373737">
            <path d="M1169.64286,907.605263 L1169.64286,907.966165 C1169.48246,908.136592 1169.00126,908.607766 1168.19925,909.379699 L1166.5,911.033835 L1164.40977,913.184211 L1164.21429,913.214286 L1163.65789,912.823308 L1163.64286,912.657895 C1165.52758,910.201742 1166.68546,908.577698 1167.11654,907.785714 C1166.87594,907.374685 1166.3772,906.63785 1165.6203,905.575188 C1164.8634,904.512526 1164.20426,903.625317 1163.64286,902.913534 L1163.65789,902.74812 L1164.21429,902.357143 L1164.40977,902.387218 C1165.78321,903.800759 1167.03634,905.058892 1168.16917,906.161654 L1169.64286,907.605263 Z" id="›" transform="translate(1166.642857, 907.785714) rotate(-90.000000) translate(-1166.642857, -907.785714) "/>
        </g>
    </g>
</svg>
