<?xml version="1.0" encoding="UTF-8"?>
<svg xmlns="http://www.w3.org/2000/svg" xmlns:xlink="http://www.w3.org/1999/xlink" width="18px" height="10px" viewBox="0 0 18 10" version="1.1">
    <!-- Generator: Sketch 44.1 (41455) - http://www.bohemiancoding.com/sketch -->
    <title>›</title>
    <desc>Created with Sketch.</desc>
    <defs/>
    <g id="Index" stroke="none" stroke-width="1" fill="none" fill-rule="evenodd">
        <g transform="translate(-917.000000, -452.000000)" id="Group" fill="#292929">
            <g transform="translate(232.000000, 354.000000)">
                <path d="M698.449219,102.422962 L698.449219,102.964315 C698.208616,103.219955 697.486819,103.926715 696.283805,105.084616 L693.734933,107.565819 L690.599595,110.791383 L690.306362,110.836496 L689.471775,110.250029 L689.449219,110.001909 C692.276301,106.31768 694.013125,103.881614 694.659745,102.693638 C694.298841,102.077094 693.550728,100.971842 692.415384,99.3778489 C691.28004,97.783856 690.291328,96.4530422 689.449219,95.3853677 L689.471775,95.1372474 L690.306362,94.5507812 L690.599595,94.595894 C692.659755,96.7162054 694.539436,98.6034046 696.238692,100.257548 L698.449219,102.422962 Z" id="›" transform="translate(693.949219, 102.693638) rotate(-270.000000) translate(-693.949219, -102.693638) "/>
            </g>
        </g>
    </g>
</svg>
