<?xml version="1.0" encoding="UTF-8"?>
<svg xmlns="http://www.w3.org/2000/svg" xmlns:xlink="http://www.w3.org/1999/xlink" width="12px" height="7px" viewBox="0 0 12 7" version="1.1">
    <!-- Generator: Sketch 44.1 (41455) - http://www.bohemiancoding.com/sketch -->
    <title>›</title>
    <desc>Created with Sketch.</desc>
    <defs/>
    <g id="SR---Hotels" stroke="none" stroke-width="1" fill="none" fill-rule="evenodd">
        <g transform="translate(-665.000000, -307.000000)" id="›" fill="#333333">
            <path d="M674,310.317175 L674,310.682825 C673.839598,310.855495 673.3584,311.332868 672.556391,312.114958 L670.857143,313.790859 L668.766917,315.969529 L668.571429,316 L668.015038,315.603878 L668,315.436288 C669.884721,312.947818 671.042604,311.302405 671.473684,310.5 C671.233082,310.083562 670.73434,309.337032 669.977444,308.260388 C669.220548,307.183743 668.561406,306.28486 668,305.563712 L668.015038,305.396122 L668.571429,305 L668.766917,305.030471 C670.140358,306.462611 671.393478,307.737298 672.526316,308.854571 L674,310.317175 Z" transform="translate(671.000000, 310.500000) rotate(-270.000000) translate(-671.000000, -310.500000) "/>
        </g>
    </g>
</svg>
