<?xml version="1.0" encoding="UTF-8"?>
<svg xmlns="http://www.w3.org/2000/svg" xmlns:xlink="http://www.w3.org/1999/xlink" width="7px" height="13px" viewBox="0 0 7 13" version="1.1">
    <!-- Generator: Sketch 45.2 (43514) - http://www.bohemiancoding.com/sketch -->
    <title>Page 1</title>
    <desc>Created with Sketch.</desc>
    <defs/>
    <g id="SR---Hotel-+-Flights" stroke="none" stroke-width="1" fill="none" fill-rule="evenodd">
        <g id="SR---Hotel-+-Flights-Calendar" transform="translate(-846.000000, -434.000000)" fill="#42B299">
            <g id="rating" transform="translate(782.000000, 395.000000)">
                <g transform="translate(0.528736, 39.114943)" id="Page-1">
                    <g transform="translate(63.542701, 0.000000)">
                        <path d="M6.1750493,0.0454148008 C6.09426498,0.103477081 6.02260147,0.181734937 5.96917958,0.283975038 L4.35609909,3.41555149 C4.27140585,3.474876 4.16847099,3.54934718 4.08377775,3.60867168 L0.517540847,4.17036113 C0.268673018,4.20949006 0.0901657267,4.3458102 0.0250170802,4.54524151 C-0.0401315662,4.74341059 0.0250170802,4.95546414 0.203524371,5.12586431 L1.41789514,6.28206101 C1.51040622,6.37167888 2.69741456,7.50263112 2.77950185,7.58088898 C2.84334752,7.6414757 2.89937536,7.80682698 2.88634563,7.89139595 L2.33518808,11.3498883 C2.29740187,11.590973 2.37558024,11.7979776 2.55017862,11.9191511 C2.59708564,11.9519689 2.64790159,11.9772134 2.70262645,11.99236 C2.84725644,12.0352756 3.01273401,12.0163423 3.17560562,11.9342978 L5.87145661,10.5774075 C6.18938201,10.4171051 6.39916065,10.1103848 6.42782605,9.7645356 L6.47082416,9.2432373 C6.46561227,9.17255278 6.49167172,2.07128349 6.49167172,1.58154078 C6.4929747,1.0450958 6.50861037,0.608366473 6.50861037,0.219601641 C6.50861037,0.0946415165 6.38352497,-0.00128746795 6.30664957,-2.52444696e-05 C6.26625741,-2.52444696e-05 6.21804741,0.0201703312 6.1750493,0.0454148008 Z" id="Fill-1"/>
                    </g>
                </g>
            </g>
        </g>
    </g>
</svg>
