<?xml version="1.0" encoding="UTF-8"?>
<svg xmlns="http://www.w3.org/2000/svg" xmlns:xlink="http://www.w3.org/1999/xlink" width="7px" height="12px" viewBox="0 0 7 12" version="1.1">
    <!-- Generator: Sketch 45.2 (43514) - http://www.bohemiancoding.com/sketch -->
    <title>Page 1</title>
    <desc>Created with Sketch.</desc>
    <defs/>
    <g id="Landing-Page---Hotel" stroke="none" stroke-width="1" fill="none" fill-rule="evenodd">
        <g id="Hotel-Landing-Page---Hotel-Note" transform="translate(-295.000000, -229.000000)" fill="#42B299">
            <g id="rating" transform="translate(232.000000, 214.000000)">
                <g transform="translate(3.000000, 6.000000)" id="Page-1">
                    <g transform="translate(2.333333, 9.333333)">
                        <g transform="translate(57.709856, 0.000000)">
                            <path d="M5.6978864,0.0419054753 C5.62334451,0.0954811246 5.55721863,0.167691782 5.50792479,0.262031513 L4.01949144,3.15162251 C3.94134267,3.20636285 3.84636187,3.27507944 3.76821311,3.32981978 L0.477549054,3.84810595 C0.247911921,3.88421128 0.083198375,4.00999759 0.0230839422,4.1940183 C-0.0370304906,4.37687432 0.0230839422,4.57254191 0.187797488,4.72977479 L1.30833052,5.79662903 C1.39369301,5.87932188 2.48897798,6.92288235 2.56472216,6.99509301 C2.62363431,7.05099803 2.67533272,7.20357217 2.66330983,7.28160626 L2.15474173,10.4728515 C2.11987536,10.6953069 2.19201268,10.8863157 2.35311936,10.9981258 C2.39640175,11.0284077 2.44329101,11.0517014 2.49378713,11.0656777 C2.62724117,11.1052771 2.77993183,11.0878067 2.93021791,11.012102 L5.41775315,9.76006239 C5.71111158,9.61214701 5.90468005,9.32912782 5.9311304,9.0100033 L5.97080593,8.52898714 C5.96599677,8.46376461 5.99004255,1.91122976 5.99004255,1.45933081 C5.99124483,0.964338394 6.0056723,0.561356336 6.0056723,0.202632423 C6.0056723,0.0873283084 5.89025259,-0.00118798179 5.81931756,-2.32937606e-05 C5.78204661,-2.32937606e-05 5.73756193,0.0186117147 5.6978864,0.0419054753 Z" id="Fill-1"/>
                        </g>
                    </g>
                </g>
            </g>
        </g>
    </g>
</svg>
