<?xml version="1.0" encoding="UTF-8"?>
<svg xmlns="http://www.w3.org/2000/svg" xmlns:xlink="http://www.w3.org/1999/xlink" width="23px" height="19px" viewBox="0 0 23 19" version="1.1">
    <!-- Generator: Sketch 45.2 (43514) - http://www.bohemiancoding.com/sketch -->
    <title>Heart Icon</title>
    <desc>Created with Sketch.</desc>
    <defs/>
    <g id="Landing-Page---Hotel" stroke="none" stroke-width="1" fill="none" fill-rule="evenodd">
        <g id="Hotel-Landing-Page---Hotel-Note" transform="translate(-999.000000, -831.000000)" stroke="#373737" stroke-width="0.2" fill="#373737">
            <g id="Heart-Icon" transform="translate(1000.000000, 832.000000)">
                <path d="M10.4689971,3.40156377 C10.4562145,3.37944783 10.4464754,3.35611449 10.4311565,3.33724493 C9.61398261,2.3337087 8.65062029,1.50517246 7.49389565,0.915447826 C6.10931594,0.20936087 4.67441739,0.0690565217 3.19782319,0.58867971 C2.14792464,0.958056522 1.34109855,1.62508551 0.821982609,2.61979565 C0.507185507,3.22311449 0.348113043,3.86944783 0.297084058,4.54652029 C0.233171014,5.39504203 0.296171014,6.23281014 0.531127536,7.05008551 C0.807272464,8.01101304 1.34048986,8.83894058 1.93630145,9.62720145 C2.54966377,10.4387957 3.24976522,11.1737957 3.98425797,11.8758246 C5.08376522,12.9266362 6.24992464,13.8997377 7.48537391,14.7853899 C8.44305507,15.4718971 9.42741739,16.1212739 10.3966638,16.7918536 C10.479142,16.8488681 10.5286493,16.8349696 10.601287,16.7857667 C11.3138667,16.303071 12.0352725,15.8330565 12.7409536,15.3407232 C13.8868232,14.5413029 14.9835913,13.6782739 16.0349101,12.7572159 C17.0580261,11.861013 18.0267652,10.9122594 18.8772145,9.84785362 C19.3459101,9.26117246 19.7658087,8.64162174 20.0979536,7.96678116 C20.4056493,7.34185362 20.5879536,6.68233188 20.6596783,5.98659275 C20.7387072,5.21963623 20.7385043,4.46008551 20.562287,3.70662174 C20.3190116,2.66646232 19.8035478,1.78973768 18.9177942,1.17952029 C17.5160696,0.213926087 15.9823594,0.0432884058 14.3741855,0.551346377 C13.2110696,0.918897101 12.2414174,1.61220145 11.3714899,2.44946232 C11.0653159,2.74417246 10.7854174,3.06607101 10.4689971,3.40156377 M10.4990261,2.96452029 C11.0182435,2.35095507 11.6004609,1.82057826 12.2415188,1.35543333 C13.1331565,0.708592754 14.1003739,0.220317391 15.2018087,0.0676362319 C16.7374464,-0.145305797 18.1524609,0.170505797 19.3630551,1.17120145 C20.2119826,1.87302754 20.6943739,2.8084913 20.8823594,3.88578116 C21.086171,5.05336087 21.0227652,6.21353478 20.6523739,7.34276667 C20.3593884,8.23582464 19.8562,9.01911449 19.2935623,9.76456377 C18.4239391,10.9167232 17.4019391,11.9255348 16.3245478,12.8784478 C15.4253014,13.6738101 14.4954174,14.4338681 13.5114609,15.1232159 C12.5932435,15.7666072 11.6623449,16.392042 10.7397652,17.0292449 C10.5724754,17.1446942 10.4241565,17.1429696 10.2529101,17.0342159 C8.82095362,16.1248246 7.43718551,15.147158 6.10982319,14.0917812 C4.96902609,13.1848246 3.8745913,12.2238971 2.87734493,11.1583754 C1.98743188,10.2074913 1.17725797,9.19746232 0.606098551,8.01476667 C0.26735942,7.31324493 0.0897217391,6.57266522 0.0298666667,5.7987087 C-0.0133507246,5.23921594 -0.0155826087,4.68185362 0.0626347826,4.12540435 C0.331982609,2.21044783 1.53121449,0.764491304 3.41766377,0.223665217 C4.10904058,0.0254333333 4.81391014,-0.0452768116 5.52791014,0.0287811594 C6.33676522,0.112578261 7.09327246,0.374013043 7.80554783,0.762563768 C8.82348986,1.31779565 9.69656232,2.05147681 10.4530696,2.92698406 C10.4623014,2.93763623 10.4750841,2.94514348 10.4990261,2.96452029" id="Fill-1"/>
            </g>
        </g>
    </g>
</svg>
