<?xml version="1.0" encoding="UTF-8"?>
<svg xmlns="http://www.w3.org/2000/svg" xmlns:xlink="http://www.w3.org/1999/xlink" width="118px" height="54px" viewBox="0 0 118 54" version="1.1">
    <!-- Generator: Sketch 45.2 (43514) - http://www.bohemiancoding.com/sketch -->
    <title>Page 1</title>
    <desc>Created with Sketch.</desc>
    <defs>
        <polygon id="path-1" points="0.000161661523 0.140949153 18.8029856 0.140949153 18.8029856 36.0259089 0.000161661523 36.0259089"/>
        <polygon id="path-3" points="0 53.8590508 117.655642 53.8590508 117.655642 0.457627119 0 0.457627119"/>
    </defs>
    <g id="Index" stroke="none" stroke-width="1" fill="none" fill-rule="evenodd">
        <g id="SR---Hotel-Mobile-Adjust-Search" transform="translate(-17.000000, -15.000000)">
            <g id="Page-1" transform="translate(17.000000, 15.000000)">
                <g id="Group-3" transform="translate(0.000000, 0.316678)">
                    <mask id="mask-2" fill="white">
                        <use xlink:href="#path-1"/>
                    </mask>
                    <g id="Clip-2"/>
                    <path d="M7.164207,29.8783831 C7.22435486,30.7808237 7.58661946,30.8412305 8.31160778,30.6604678 C9.63991128,30.2994 10.9076078,29.6976203 12.0545494,28.9754847 C13.2625572,28.1334508 14.288744,27.1101966 15.2547829,26.0869424 C15.7984093,25.5455695 16.1606739,24.8234339 16.5830864,24.2216542 C16.6436934,24.1012983 16.7038412,23.9809424 16.8245961,23.8605864 C16.8245961,23.8001797 16.945351,23.8001797 17.0661058,23.8001797 C17.1267128,23.8001797 17.1868607,23.9809424 17.1868607,24.0408915 C17.1267128,24.3420102 17.005958,24.6431288 16.945351,24.9437898 C16.884744,25.3048576 16.8245961,25.6055186 16.945351,26.0269932 C17.1868607,26.5084169 17.005958,26.9294339 16.7644482,27.3509085 C16.4623315,27.7719254 16.2208218,28.1934 15.8585572,28.5544678 C15.3755377,29.0358915 14.9526661,29.6376712 14.6510086,30.2994 C14.3488918,30.9011797 13.9866272,31.4430102 13.6243626,31.9848407 C13.2019502,32.8268746 12.5981759,33.6094169 11.8736467,34.1507898 C11.5719891,34.3915017 11.3906272,34.5722644 11.3906272,34.9333322 C11.3304794,35.2944 11.0885105,35.5351119 10.7868529,35.6554678 C10.2436856,35.8362305 9.63991128,36.0764847 9.03613696,36.0165356 C8.13024591,35.8961797 7.28496187,35.8362305 6.43967782,35.7154169 C4.86986459,35.4747051 3.96397354,34.3315525 3.11868949,33.1879424 C2.33401245,32.104739 1.97174786,30.8412305 1.4281214,29.6976203 C1.30782568,29.5173153 1.30782568,29.2766034 1.18661167,29.1562475 C0.583296498,28.3137559 0.522689494,27.3509085 0.281179767,26.4480102 C0.160424903,26.0869424 0.220572763,25.7862814 0.220572763,25.4851627 C0.160424903,24.8833831 0.0998178988,24.3420102 0.0396700389,23.8001797 C-0.020477821,23.1384508 -0.020477821,22.4762644 0.0998178988,21.8145356 C0.220572763,20.791739 0.220572763,19.708078 0.34178677,18.6852814 C0.522689494,17.3613661 0.704051362,16.0374508 1.00570895,14.7734847 C1.36797354,13.3292136 1.73023813,11.9453492 2.51537432,10.6813831 C3.05854163,9.71853559 3.30005136,8.69573898 3.66231595,7.67248475 C3.90382568,6.8904 4.26609027,6.28862034 4.74910973,5.68684068 C4.9304716,5.50607797 5.05076732,5.32577288 5.17198132,5.14501017 C5.77575564,4.12221356 6.43967782,3.03901017 7.04345214,2.01575593 C7.22435486,1.65468814 7.46632374,1.35402712 7.88873619,1.23367119 C8.19039377,1.11331525 8.37175564,0.81219661 8.67387237,0.631891525 C8.73402023,0.631891525 8.91492296,0.631891525 9.03613696,0.691840678 C9.51869728,0.932552542 9.51869728,0.992959322 9.760207,0.631891525 C10.0021759,0.210416949 10.4245883,0.0301118644 10.9076078,0.210416949 C11.632137,0.391179661 12.3566661,0.330772881 13.0811953,0.451128814 C14.1679891,0.631891525 15.3755377,0.752247458 16.1606739,1.8954 C16.5229385,2.37682373 16.945351,2.79829831 17.4283704,3.09895932 C17.790635,3.33967119 18.0321447,3.64078983 18.2736545,3.94145085 C18.7566739,4.42287458 18.9380358,4.96470508 18.6965261,5.6264339 C18.3944093,6.40897627 18.3944093,7.31141695 18.3342615,8.21431525 C18.2736545,8.81609492 18.3342615,9.41787458 18.0927518,9.95924746 C17.9113899,10.3203153 17.8507829,10.801739 17.5491253,11.0424508 C16.945351,11.6442305 16.4021837,12.4267729 15.5564405,12.8477898 C14.8323704,13.2088576 14.3488918,13.2088576 13.6243626,12.5471288 C13.3828529,12.4267729 13.3227051,12.1256542 13.5040669,11.9453492 C13.5642148,11.8249932 13.6849696,11.7645864 13.7451175,11.6442305 C14.1679891,11.2232136 14.5908607,10.8621458 14.6510086,10.1999593 C14.7111564,9.65858644 15.0738802,9.23711186 15.0738802,8.6353322 C15.0132732,7.97360339 15.2547829,7.31141695 15.3755377,6.64968814 C15.4962926,6.10785763 15.6170475,5.56648475 15.6776545,5.02465424 C15.7378023,4.12221356 14.8323704,3.03901017 13.8663315,2.73789153 C13.6849696,2.67794237 13.5040669,2.73789153 13.4434599,2.97860339 L13.4434599,3.21931525 C13.0811953,3.88150169 12.6587829,4.42287458 12.6587829,5.20541695 C12.6587829,5.98750169 12.2965183,6.64968814 12.1757634,7.37182373 C11.9944016,8.27426441 11.6922848,9.17716271 11.2097245,10.0196542 C11.0885105,10.2603661 10.9076078,10.501078 10.8470008,10.7417898 C10.7267051,11.1028576 10.7868529,11.5842814 10.5453432,11.8849424 C10.3644405,12.186061 10.1830786,12.486722 10.0021759,12.7878407 C9.82081401,13.2088576 9.70005914,13.6303322 9.63991128,14.0513492 C9.57930428,14.4728237 9.27764669,14.7734847 9.15643268,15.1949593 C8.67387237,16.5788237 8.25100078,17.9631458 7.82812918,19.3470102 C7.70783346,19.6481288 7.70783346,19.9487898 7.64722646,20.3098576 C7.64722646,20.4906203 7.58661946,20.7313322 7.5264716,20.9116373 C7.46632374,21.0319932 7.34556887,21.1523492 7.34556887,21.2727051 C7.46632374,22.2355525 7.10405914,23.1384508 7.28496187,24.0408915 C7.40571673,24.703078 7.34556887,25.2449085 7.22435486,25.8462305 C6.98284514,27.0497898 6.98284514,28.2533492 7.10405914,29.4569085 C7.10405914,29.5772644 7.10405914,29.7580271 7.164207,29.8783831" id="Fill-1" fill="#FFFFFF" mask="url(#mask-2)"/>
                </g>
                <path d="M33.8501595,31.879861 C33.9107665,31.879861 34.0315214,31.879861 34.0315214,31.8199119 C33.9107665,31.8199119 33.8501595,31.8199119 33.8501595,31.879861 L33.8501595,31.879861 Z M26.9069844,16.1736407 C26.9069844,16.2335898 26.7862296,16.4743017 26.9069844,16.4743017 C26.9069844,16.293539 27.1484942,16.2335898 26.9069844,16.1736407 L26.9069844,16.1736407 Z M26.7862296,28.6906576 C26.7862296,28.8709627 26.6048677,28.8709627 26.6654747,29.1116746 C26.9069844,29.1720814 26.9069844,28.6906576 26.7862296,28.6906576 L26.7862296,28.6906576 Z M26.0010934,20.1449288 C25.9409455,20.1449288 25.9409455,20.0849797 26.0010934,20.0849797 L26.0010934,20.1449288 Z M26.0617004,19.2424881 C25.3973191,19.5431492 24.9749066,19.9046746 24.2503774,20.2053356 C22.9220739,21.7699627 21.0506031,23.394539 20.5671245,25.6213525 C20.1447121,26.1027763 19.8425953,26.5242508 19.9633502,27.3063356 C19.4201829,28.2691831 18.9371634,29.8942169 19.5409377,31.2780814 C20.2048599,31.2780814 20.9293891,31.2181322 21.2315058,30.7367085 C21.3522607,30.7966576 21.4124086,30.7966576 21.5331634,30.7966576 C23.2237315,29.2924373 24.6727899,27.6074542 25.2765642,25.3206915 C25.0956615,24.4177932 25.6994358,23.6956576 25.6388288,22.8531661 C25.7595837,22.8531661 25.7595837,22.7932169 25.8807977,22.7932169 C25.8807977,22.4920983 25.8807977,22.2513864 25.9409455,22.0106746 C25.9409455,21.8903186 25.6388288,21.9507254 25.6994358,21.7100136 C25.7595837,21.7100136 25.8807977,21.8903186 25.9409455,21.8903186 C25.9409455,21.6496068 26.0617004,21.4688441 26.0617004,21.1681831 C26.0617004,21.0478271 25.7595837,21.288539 25.8807977,20.987878 C26.0010934,21.1082339 26.0617004,20.867522 26.0617004,20.6867593 C26.0010934,20.3860983 25.8807977,20.7471661 25.7595837,20.4460475 C25.9409455,20.4460475 25.9409455,20.2053356 26.0010934,20.1449288 C26.363358,19.8442678 26.0617004,19.5431492 26.0617004,19.2424881 L26.0617004,19.2424881 Z M36.0237471,25.9824203 C36.4466187,25.3206915 36.5673735,23.9963186 37.3520506,23.5153525 C37.4126576,23.2746407 37.2312957,23.2746407 37.2312957,23.1542847 C37.4126576,23.1542847 37.3520506,23.394539 37.4732646,23.394539 C37.3520506,24.9596237 37.2312957,26.7649627 36.4466187,28.088878 C36.8088833,28.088878 36.0237471,29.2924373 35.8428444,29.5930983 C35.6614825,29.7734034 35.3598249,29.8338102 35.2992179,30.0145729 C35.1183152,30.194878 35.0581673,30.7966576 34.9975603,30.9774203 C34.9369533,31.0373695 34.6959027,31.0373695 34.6959027,31.2181322 C34.393786,31.5187932 34.4539339,32.1205729 34.0916693,32.1809797 C33.9107665,32.1809797 34.0315214,31.9402678 33.8501595,31.9402678 C33.7900117,32.0002169 33.7294047,32.1809797 33.5485019,32.1809797 C33.5485019,32.3013356 33.7294047,32.2409288 33.8501595,32.2409288 C33.7294047,32.4816407 33.4277471,32.5420475 33.4277471,32.2409288 C33.1862374,32.4216915 33.2468444,32.8427085 33.0048755,33.0234712 C32.8841206,33.0234712 32.9447276,32.7827593 32.8239728,32.8427085 C32.8841206,33.0834203 32.582463,33.4444881 32.2808054,33.3241322 C32.2808054,33.2037763 32.3409533,33.2037763 32.4011012,33.1438271 L32.582463,33.1438271 C32.582463,33.0834203 32.4011012,33.0834203 32.4011012,33.1438271 L32.0388366,33.1438271 C32.0388366,33.2037763 31.9180817,33.4444881 32.0994436,33.4444881 C31.1935525,33.9259119 29.6843463,33.9863186 28.8992101,33.6247932 L28.8992101,33.2037763 C28.7183074,33.2037763 28.7183074,33.2037763 28.7183074,33.384539 C28.0539261,33.0234712 27.1484942,32.4216915 26.9671323,31.6391492 C26.9671323,31.6990983 27.0878872,31.6990983 27.1484942,31.6990983 C27.1484942,31.6391492 27.0878872,31.6391492 26.9671323,31.6391492 C26.6654747,31.2780814 26.3032101,30.7966576 26.2426031,30.074522 C26.0617004,30.194878 25.8807977,30.194878 25.6388288,30.3152339 C25.2765642,30.6763017 25.2765642,31.2780814 24.7333969,31.3384881 C24.2503774,31.9402678 23.8275058,32.8427085 23.1635837,32.9031153 C23.0428288,33.0234712 23.0428288,33.1438271 23.0428288,33.2037763 C22.016642,33.4444881 20.9293891,34.2270305 20.0239572,33.9259119 C18.393537,33.1438271 17.2465953,31.5187932 16.8237237,29.4127932 C16.8237237,29.2924373 16.8843307,29.2924373 16.9444786,29.2320305 C16.2805564,27.4266915 17.5482529,25.8021153 17.7296148,23.8160136 C18.1524864,23.5153525 18.2126342,22.7932169 18.7558016,22.4920983 C18.8164086,22.0706237 18.6956537,21.9507254 18.7558016,21.7100136 C18.8164086,21.6496068 19.0579183,21.6496068 19.1185253,21.6496068 C19.3595759,20.2053356 20.5069767,19.6639627 21.5331634,19.0621831 C22.3182996,18.3999966 23.5258482,17.7382678 24.6727899,17.677861 C24.7333969,17.5575051 24.7935447,17.4975559 24.8541518,17.4371492 C24.9749066,17.7382678 25.2765642,17.4975559 25.2765642,17.2568441 C25.6994358,17.5575051 25.9409455,17.0760814 26.484572,17.0760814 C26.2426031,16.5347085 26.9671323,16.5347085 26.7862296,15.872522 C26.8468366,15.571861 27.0878872,15.3311492 27.269249,15.0300305 C27.8128755,15.0300305 28.0539261,15.0904373 28.4166498,14.9700814 C28.4166498,15.0904373 28.6577004,15.0300305 28.5975525,15.1503864 C29.9860039,14.8497254 31.3749144,15.0904373 32.2201984,16.0532847 C32.0388366,16.5946576 32.2808054,16.8353695 32.521856,17.1364881 C32.4011012,17.2568441 32.521856,17.5575051 32.2808054,17.5575051 C32.521856,17.8586237 32.4011012,18.0389288 32.64307,18.3999966 C32.4011012,18.7011153 32.582463,19.3628441 32.2808054,19.6035559 C32.2201984,23.2142339 31.4350623,25.9220136 31.4350623,29.8942169 C32.0994436,30.7966576 32.7032179,29.2924373 33.4277471,29.4127932 C33.8501595,28.9313695 34.5145409,28.3295898 34.6352957,27.6674034 C35.1183152,27.4266915 35.6008755,26.4638441 35.9635992,25.8021153 L36.0237471,25.8021153 L36.0237471,25.9824203 Z" id="Fill-4" fill="#FFFFFF"/>
                <mask id="mask-4" fill="white">
                    <use xlink:href="#path-3"/>
                </mask>
                <g id="Clip-7"/>
                <path d="M52.8676732,29.4730169 L53.049035,29.4730169 L53.049035,29.2922542 L52.8676732,29.2922542 L52.8676732,29.4730169 Z M48.0379377,19.7841356 C48.0980856,19.7841356 48.2188405,19.7841356 48.2188405,19.6637797 C48.0980856,19.6637797 48.0379377,19.6637797 48.0379377,19.7841356 L48.0379377,19.7841356 Z M47.735821,19.9044915 C47.735821,19.6637797 47.4337043,19.9648983 47.735821,19.9044915 C47.7959689,20.0847966 47.7959689,19.9044915 47.735821,19.9044915 L47.735821,19.9044915 Z M47.0112918,23.5751186 C47.0714397,23.5751186 47.1320467,23.5751186 47.1320467,23.5151695 C47.0714397,23.5151695 47.0112918,23.5151695 47.0112918,23.5751186 L47.0112918,23.5751186 Z M46.4681245,24.4180678 L46.5888794,24.4180678 L46.5888794,24.2977119 L46.4681245,24.2977119 L46.4681245,24.4180678 Z M46.1660078,23.7558814 C46.2266148,23.7558814 46.2867626,23.8762373 46.2867626,23.7558814 C46.2867626,23.6959322 46.1660078,23.6959322 46.1660078,23.7558814 L46.1660078,23.7558814 Z M45.9846459,22.552322 C46.1058599,22.4923729 45.9846459,22.4923729 45.9846459,22.552322 C45.6829883,22.672678 46.2266148,22.7930339 45.9846459,22.552322 L45.9846459,22.552322 Z M45.9244981,24.357661 L45.9846459,24.357661 C45.9846459,24.1768983 45.9846459,24.057 45.8638911,24.057 C45.8638911,24.1768983 45.9244981,24.1768983 45.9244981,24.357661 C45.6223813,24.357661 45.9846459,24.7791356 45.9244981,24.357661 L45.9244981,24.357661 Z M45.6829883,25.8019322 C45.8638911,25.9222881 45.9244981,25.5612203 45.8037432,25.5612203 C45.8037432,25.6216271 45.8037432,25.6216271 45.6829883,25.6216271 L45.6829883,25.8019322 Z M45.6829883,25.3205085 C45.8037432,25.3205085 45.8638911,25.3205085 45.8638911,25.2605593 C45.8037432,25.2605593 45.6829883,25.2605593 45.6829883,25.3205085 L45.6829883,25.3205085 Z M45.5622335,24.1169492 C45.5622335,24.2977119 45.5622335,24.4180678 45.6223813,24.4180678 C45.6829883,24.357661 45.6829883,24.1169492 45.5622335,24.1169492 L45.5622335,24.1169492 Z M45.5622335,23.5151695 C45.5622335,23.2744576 45.6829883,23.1541017 45.8638911,23.2744576 C45.8638911,23.1541017 45.8037432,23.0941525 45.6829883,22.973339 C45.6829883,23.2140508 45.5622335,23.2140508 45.5016265,23.2744576 C45.5016265,23.0941525 45.1999689,23.1541017 45.1999689,22.973339 C45.0190661,23.1541017 45.1999689,23.4552203 45.3207237,23.5151695 C45.3207237,23.3948136 45.3813307,23.2744576 45.5016265,23.2744576 C45.5016265,23.3948136 45.5016265,23.5151695 45.5622335,23.5151695 L45.5622335,23.5151695 Z M45.3207237,24.9594407 C45.1999689,24.9594407 45.079214,25.0198475 45.079214,25.0797966 C45.2601167,25.0797966 45.3207237,25.0198475 45.3207237,24.9594407 L45.3207237,24.9594407 Z M44.9584591,25.6216271 C44.8978521,25.5612203 44.8978521,25.6216271 44.9584591,25.6216271 C45.0190661,25.8019322 45.0190661,25.6216271 44.9584591,25.6216271 L44.9584591,25.6216271 Z M44.8978521,23.8162881 L45.0190661,23.8162881 L45.0190661,23.6959322 L44.8978521,23.6959322 L44.8978521,23.8162881 Z M44.294537,29.2922542 C44.3546848,29.2922542 44.4148327,29.2922542 44.4148327,29.2323051 C44.3546848,29.2323051 44.294537,29.2323051 44.294537,29.2922542 L44.294537,29.2922542 Z M44.3546848,25.2001525 C44.1737821,25.2605593 43.9924202,25.2605593 43.9924202,25.5008136 C44.1737821,25.5008136 44.294537,25.3205085 44.3546848,25.2001525 L44.3546848,25.2001525 Z M43.5695486,22.973339 C43.6903035,22.973339 43.7509105,23.1541017 43.7509105,22.973339 C43.7509105,22.9133898 43.5695486,22.9133898 43.5695486,22.973339 L43.5695486,22.973339 Z M43.4492529,33.9861356 C43.5094008,33.9861356 43.5695486,33.9861356 43.5695486,33.9261864 C43.5094008,33.9261864 43.4492529,33.9261864 43.4492529,33.9861356 L43.4492529,33.9861356 Z M43.5094008,24.9594407 C43.2678911,24.8990339 43.207284,25.2001525 43.3886459,25.2605593 C43.4492529,25.2001525 43.5094008,25.0797966 43.6903035,25.0797966 C43.4492529,24.8990339 43.8716654,24.1768983 43.5094008,24.057 C43.6903035,24.4780169 43.207284,24.357661 43.2678911,24.7187288 C43.2678911,24.8990339 43.5094008,24.7791356 43.5094008,24.9594407 L43.5094008,24.9594407 Z M41.3959611,36.9950339 C41.4565681,36.9350847 41.3959611,36.9350847 41.3959611,36.9950339 C41.2752062,37.0549831 41.3959611,37.0549831 41.3959611,36.9950339 L41.3959611,36.9950339 Z M41.0943035,27.6072712 C41.1549105,27.6072712 41.2752062,27.6072712 41.2752062,27.4869153 C41.1549105,27.4869153 41.0943035,27.4869153 41.0943035,27.6072712 L41.0943035,27.6072712 Z M41.1549105,23.6959322 C41.1549105,23.3948136 41.577323,23.2140508 41.6374708,22.8534407 C41.3959611,22.8534407 41.0943035,22.8534407 41.0336965,22.9133898 C41.1549105,23.2744576 40.9735486,23.5151695 41.1549105,23.6959322 L41.1549105,23.6959322 Z M41.2752062,23.8162881 C41.0336965,23.9965932 40.7320389,24.357661 41.0336965,24.5983729 C41.0336965,24.2977119 41.3959611,24.057 41.2752062,23.8162881 L41.2752062,23.8162881 Z M40.9735486,29.4126102 C41.0336965,29.2922542 40.9735486,29.2922542 40.9735486,29.4126102 C40.7926459,29.4730169 40.9735486,29.4730169 40.9735486,29.4126102 L40.9735486,29.4126102 Z M41.0336965,26.4037119 C40.9735486,25.9826949 41.2752062,25.862339 41.4565681,25.9826949 C41.3959611,25.8019322 41.6374708,25.8019322 41.6374708,25.6216271 C41.3959611,25.5612203 41.3358132,25.8019322 41.0336965,25.5612203 C41.0336965,25.8019322 40.8527938,26.1025932 40.7320389,26.4037119 L41.0336965,26.4037119 Z M40.7320389,28.3893559 C40.8527938,28.2694576 40.7926459,28.3893559 41.0336965,28.3893559 C41.0336965,28.2090508 41.1549105,27.667678 40.8527938,27.4869153 C40.6718911,27.667678 40.9735486,27.9083898 40.8527938,28.0886949 L40.6718911,28.0886949 C40.6718911,28.2694576 40.7320389,28.2694576 40.7320389,28.3893559 C40.550677,28.5101695 40.7320389,28.5101695 40.7320389,28.3893559 L40.7320389,28.3893559 Z M40.7320389,31.0376441 L40.550677,31.0376441 C40.550677,31.0975932 40.4905292,31.0975932 40.4905292,31.2179492 C40.6718911,31.2179492 40.7320389,31.2179492 40.7320389,31.0376441 L40.7320389,31.0376441 Z M40.4303813,24.357661 L40.1884125,24.357661 C40.1884125,24.4780169 40.1282646,24.7187288 40.2490195,24.7187288 C40.2490195,24.5983729 40.4303813,24.5983729 40.4303813,24.357661 L40.4303813,24.357661 Z M40.4303813,33.4447627 C40.1884125,33.4447627 40.1282646,33.6250678 40.0676576,33.6854746 C40.2490195,33.6854746 40.4303813,33.6854746 40.4303813,33.4447627 L40.4303813,33.4447627 Z M40.1884125,25.2605593 C40.4303813,25.5008136 40.3697743,25.0198475 40.1884125,25.2605593 C39.8867549,25.2001525 40.1884125,25.5008136 40.1884125,25.2605593 L40.1884125,25.2605593 Z M39.766,26.8851356 C39.766,27.0054915 39.6452451,27.0054915 39.6452451,26.8851356 C39.6452451,26.8251864 39.8867549,26.7048305 39.8261479,26.8851356 L39.766,26.8851356 Z M40.2490195,24.2977119 C40.2490195,23.6959322 40.6718911,23.2140508 40.550677,22.552322 C39.766,22.8534407 39.766,23.5751186 39.6452451,24.4180678 C39.8867549,24.4180678 40.0676576,24.1169492 40.2490195,24.2977119 L40.2490195,24.2977119 Z M39.9473619,24.7791356 C39.8867549,24.7791356 39.8261479,24.7791356 39.766,24.7187288 C39.8261479,25.0198475 39.5244903,24.8990339 39.5850973,25.0797966 C39.8261479,25.0797966 40.0676576,25.0797966 39.9473619,24.7791356 L39.9473619,24.7791356 Z M39.5244903,28.5701186 C39.6452451,28.5101695 39.8261479,28.3294068 39.8867549,28.0886949 C39.8867549,28.0282881 39.8261479,27.968339 39.766,27.968339 C39.766,28.0282881 39.5850973,28.0282881 39.5244903,28.0282881 L39.5244903,28.5701186 Z M39.5244903,25.8019322 C39.8261479,25.862339 39.8261479,25.6216271 39.8261479,25.3809153 C40.1282646,25.3809153 39.8261479,25.0797966 39.8261479,25.3809153 C39.5244903,25.3205085 39.5244903,25.5612203 39.5244903,25.8019322 L39.5244903,25.8019322 Z M39.5244903,26.1025932 C39.4638833,26.463661 39.4638833,27.0654407 39.5850973,27.4869153 C39.5850973,27.3066102 39.8261479,27.1862542 39.8261479,26.8851356 C39.9473619,26.5844746 39.8867549,26.463661 39.9473619,26.163 C40.0676576,26.163 40.0676576,26.2234068 40.1282646,26.2234068 C40.0676576,25.9826949 40.3697743,26.1025932 40.2490195,25.862339 C39.9473619,25.8019322 40.0676576,26.1025932 39.9473619,26.163 C39.8261479,26.2833559 39.5850973,26.2234068 39.5244903,26.1025932 L39.5244903,26.1025932 Z M39.1622257,22.9133898 C39.1622257,22.7930339 38.920716,22.552322 39.1622257,22.4923729 C39.1622257,22.552322 39.1622257,22.672678 39.2228327,22.672678 C39.3431284,22.3116102 38.9808638,22.0708983 39.2825214,21.6494237 C39.1622257,21.6494237 39.0414708,21.6494237 38.9808638,21.5894746 C38.7398132,22.3116102 39.0414708,22.672678 38.7398132,23.2140508 C39.0414708,23.2744576 38.8605681,22.8534407 39.1622257,22.9133898 L39.1622257,22.9133898 Z M38.920716,25.2605593 C38.920716,25.3205085 38.8605681,25.3205085 38.7398132,25.2605593 C38.7398132,25.3809153 38.6792062,25.6815763 38.920716,25.6216271 C39.0414708,25.6815763 39.0414708,25.2605593 38.920716,25.2605593 L38.920716,25.2605593 Z M38.9808638,24.6587797 L38.9808638,23.8162881 C39.1622257,24.1768983 39.2228327,23.5751186 38.9808638,23.8162881 C38.7398132,23.9965932 38.4376965,24.6587797 38.9808638,24.6587797 L38.9808638,24.6587797 Z M38.920716,25.9222881 C38.7398132,25.9222881 38.9808638,25.5612203 38.6792062,25.6815763 C38.8605681,26.2234068 38.3169416,26.7647797 38.6792062,27.0054915 C38.920716,26.5844746 38.8605681,26.463661 38.920716,25.9222881 C38.9808638,25.862339 38.920716,25.862339 38.920716,25.9222881 L38.920716,25.9222881 Z M38.5584514,26.4037119 C38.5584514,26.2833559 38.5584514,26.2234068 38.3775486,26.2234068 C38.3775486,26.2833559 38.3775486,26.463661 38.4376965,26.463661 C38.4376965,26.4037119 38.4376965,26.4037119 38.5584514,26.4037119 L38.5584514,26.4037119 Z M47.6756732,19.5434237 C47.6756732,19.4834746 47.6150661,19.4834746 47.4943113,19.4834746 C48.7018599,19.362661 49.1848794,20.2655593 50.392428,20.2655593 C50.392428,20.446322 50.392428,20.566678 50.5131829,20.5062712 C50.6945447,20.8073898 50.3322802,20.566678 50.3322802,20.7469831 C50.453035,20.867339 51.2377121,21.0476441 50.9355953,21.5894746 C50.9962023,21.7702373 51.2978599,21.7702373 51.4186148,22.0104915 C51.4186148,22.0708983 51.2978599,22.0708983 51.2978599,22.1912542 C51.3584669,22.3720169 51.5398288,22.0708983 51.5999767,22.2512034 C51.5398288,22.552322 52.0228482,22.7930339 51.9622412,23.3948136 C51.9020934,23.3948136 51.8414864,23.3948136 51.8414864,23.4552203 C51.8414864,23.5151695 51.9622412,23.4552203 51.9622412,23.3948136 C52.3245058,24.1768983 52.5660156,24.7187288 52.9282802,25.862339 C52.9282802,25.9222881 52.9282802,25.9826949 52.8075253,25.9826949 C53.109642,26.463661 53.3506926,27.0654407 53.1697899,27.7880339 C53.7129572,28.6904746 53.5320545,29.773678 53.8341712,30.9168305 C53.8341712,30.9772373 53.8341712,31.0376441 53.7129572,31.0376441 C53.9549261,31.5790169 54.1358288,32.0004915 53.8341712,32.4215085 C54.0752218,32.8425254 54.3171907,33.3244068 54.5587004,33.7454237 C56.1886615,32.1208475 56.9737977,29.5329661 58.1813463,27.4265085 C58.6639066,28.6904746 58.0605914,30.3150508 58.0605914,31.2778983 C57.6377198,32.0004915 57.7584747,32.6022712 57.2754553,33.1436441 C57.3360623,33.5047119 57.0940934,33.6250678 57.0339455,33.9261864 C56.1886615,34.4076102 55.8870039,35.8518814 55.0417198,36.0921356 C54.9811128,36.1525424 55.1620156,36.3932542 54.860358,36.3932542 C54.860358,36.5136102 55.0417198,36.453661 54.9811128,36.6339661 C54.5587004,36.754322 54.3171907,37.2357458 53.7735642,37.2961525 C53.2299377,36.9950339 53.109642,37.1153898 52.4452607,36.8147288 C50.9962023,35.1292881 49.7280467,33.3843559 49.3056342,30.6161695 C49.0035175,30.3150508 49.1848794,29.4126102 48.9433696,28.9911356 C49.0035175,27.0654407 48.3395953,25.2605593 47.6150661,23.8162881 C47.3134086,23.8762373 47.3735564,23.8762373 47.1921946,23.6959322 C47.0714397,23.7558814 47.0714397,24.057 47.0112918,24.1768983 C46.890537,24.1768983 46.890537,24.1169492 46.8303891,24.1169492 L46.8303891,24.057 C47.3134086,23.8762373 46.5282724,23.6959322 46.8303891,24.057 C46.7697821,24.057 46.7697821,24.1169492 46.8303891,24.1169492 C46.8303891,24.2977119 46.8303891,24.4180678 46.890537,24.4180678 C46.8303891,24.5983729 46.7091751,24.4780169 46.5282724,24.5983729 C46.5282724,24.4780169 46.4681245,24.4780169 46.4075175,24.4780169 C46.4075175,24.5983729 46.4681245,24.5983729 46.5282724,24.5983729 L46.5282724,24.6587797 C46.4075175,24.7187288 46.5282724,24.7187288 46.5282724,24.6587797 C46.5888794,24.6587797 46.5888794,24.7187288 46.7091751,24.7187288 C46.5282724,24.8990339 46.1660078,24.8990339 46.1058599,25.0797966 C45.9846459,25.0797966 45.9846459,25.0797966 45.9846459,25.2001525 C45.8638911,25.2605593 45.9846459,25.2605593 45.9846459,25.2001525 C46.1058599,25.2001525 46.1058599,25.2001525 46.1058599,25.0797966 C46.4075175,25.5612203 45.5016265,25.9826949 45.6829883,26.463661 C45.0190661,27.1258475 45.2601167,27.968339 44.7770973,29.2323051 C44.5961946,29.1718983 44.5961946,29.4126102 44.4148327,29.4126102 C44.4148327,29.4730169 44.5961946,29.4730169 44.6568016,29.4730169 C44.6568016,29.773678 44.1737821,29.5329661 44.1737821,29.8340847 C44.3546848,29.8340847 44.4148327,29.773678 44.4148327,29.7137288 C44.5961946,30.9772373 44.1131751,32.1807966 43.7509105,33.6854746 C43.7509105,33.6250678 43.6903035,33.6250678 43.6903035,33.6854746 C43.5094008,33.7454237 43.6903035,33.7454237 43.6903035,33.6854746 L43.7509105,33.6854746 C43.4492529,34.8286271 43.2678911,35.3100508 42.9056265,36.3932542 C42.6641167,36.3333051 42.5433619,36.453661 42.6039689,36.6939153 C42.3624591,36.754322 42.4827549,36.5136102 42.3018521,36.5136102 C42.1810973,36.5136102 42.3018521,36.6339661 42.3018521,36.754322 C41.7582257,36.8147288 41.6374708,36.9950339 41.2752062,37.2961525 C40.9735486,37.2961525 40.1884125,37.2357458 40.3697743,37.5368644 C39.8867549,37.5968136 38.8605681,37.5968136 38.6792062,37.2357458 C37.7733152,37.4165085 36.6263735,36.9350847 36.2035019,36.0921356 C36.2641089,36.0921356 36.3242568,36.2129492 36.3242568,36.0321864 C36.5056187,36.0321864 36.4454708,36.2129492 36.5657665,36.2129492 C36.5657665,36.3333051 36.6263735,36.3932542 36.8077354,36.3932542 C36.8077354,36.2129492 36.7471284,36.2129492 36.5657665,36.2129492 C36.7471284,36.0921356 36.6263735,35.8518814 36.3242568,35.9118305 C36.3242568,35.6111695 36.3242568,35.4304068 36.0225992,35.4304068 C36.2641089,31.6993729 36.8077354,29.1718983 37.5318054,25.0797966 C37.6530195,25.0198475 37.5318054,25.0198475 37.5318054,25.0797966 C37.5318054,21.2883559 38.4376965,18.2799153 38.4376965,14.6692373 C39.5244903,13.1645593 41.2752062,13.766339 43.2678911,13.8267458 C43.2678911,13.9466441 43.5094008,13.8866949 43.4492529,14.1274068 C43.6903035,13.766339 43.8716654,14.4285254 44.3546848,14.2477627 C44.4754397,14.6692373 44.6568016,14.9698983 45.0190661,15.0303051 C45.0190661,15.571678 45.0190661,15.6920339 45.3207237,16.0531017 C45.3813307,17.256661 45.2601167,18.5805763 45.079214,20.0847966 C45.6829883,19.6637797 46.5888794,19.3027119 47.4943113,19.4834746 C47.4943113,19.5434237 47.6150661,19.5434237 47.6756732,19.5434237 L47.6756732,19.5434237 Z" id="Fill-6" fill="#FFFFFF" mask="url(#mask-4)"/>
                <path d="M59.0254825,17.5575508 L58.9648755,17.5575508 C58.9648755,17.4976017 59.0254825,17.4976017 59.0254825,17.5575508 M58.9648755,17.7982627 C58.9047276,17.7982627 58.8441206,17.7383136 58.7238249,17.7383136 L58.7238249,17.8586695 C58.7238249,17.9785678 58.7238249,17.9785678 58.8441206,17.9785678 C58.8441206,17.8586695 58.9648755,17.8586695 58.9648755,17.7982627 C59.0254825,17.7383136 58.9648755,17.7383136 58.9648755,17.7982627 M58.0594436,31.3984831 C57.9386887,31.3385339 57.9386887,31.218178 57.7573268,31.0973644 C57.8179339,30.9774661 58.0594436,31.2781271 58.0594436,31.3984831 M57.3344553,28.5099407 C57.3950623,28.5698898 57.2141595,29.1117203 57.6370311,28.9913644 C57.6370311,28.8110593 57.4556693,28.3296356 57.3344553,28.5099407 M56.5497782,26.8853644 L56.5497782,26.7650085 C56.6103852,26.7650085 56.6103852,26.8853644 56.5497782,26.8853644 M56.4896304,26.2831271 C56.6103852,26.4039407 56.6103852,26.5242966 56.5497782,26.7650085 C56.4896304,26.7650085 56.5497782,26.4638898 56.4896304,26.2831271 M56.4896304,25.8621102 C56.3082685,25.8621102 56.4896304,25.6813475 56.4896304,25.6213983 C56.7311401,25.6813475 56.4896304,25.802161 56.4896304,25.8621102 M56.4896304,23.7556525 C56.4294825,23.7556525 56.4294825,23.7556525 56.4294825,23.8160593 C56.2481206,23.7556525 56.1273658,24.0567712 56.1273658,23.8160593 C55.9460039,23.5153983 56.3082685,23.5753475 56.4896304,23.5153983 C56.4896304,23.2142797 56.4896304,23.0939237 56.6103852,22.8532119 C56.7311401,22.5525508 56.4896304,22.5525508 56.4896304,22.311839 C56.6103852,22.0107203 56.6103852,21.7700085 56.5497782,21.4089407 C56.4896304,21.1082797 57.0934047,20.9879237 56.7311401,20.7472119 C57.4556693,20.2653305 57.3950623,19.1825847 58.2403463,18.8814661 C58.2403463,18.6407542 57.9992957,18.4000424 58.1195914,18.2796864 C58.4217082,18.6407542 58.542463,18.0389746 58.4217082,17.8586695 C58.6632179,18.0389746 58.7238249,17.4371949 58.9648755,17.5575508 C58.9648755,17.6779068 59.0254825,17.6779068 59.0254825,17.5575508 C59.2665331,17.5575508 59.4478949,17.4371949 59.5085019,17.2568898 C59.4478949,17.1964831 59.2665331,17.2568898 59.0254825,17.1964831 C59.3271401,16.895822 59.5085019,16.8354153 59.9313735,16.8354153 C61.9837471,14.1875847 66.3915292,16.0528729 68.384214,17.2568898 C68.9875292,18.8814661 69.8328132,20.2053814 68.8672335,21.7100593 C67.7799805,21.9507712 65.7877549,21.9507712 64.7611089,21.1682288 C64.882323,20.4460932 63.855677,20.2053814 63.9764319,19.3628898 C62.7688833,19.6036017 62.3460117,20.5664492 61.5608755,21.0478729 C60.7160506,22.311839 60.7761984,23.6957034 60.2330311,25.3806864 C60.353786,26.1632288 60.1724241,26.8853644 60.5346887,27.4871441 C60.4745409,27.6070424 60.4745409,27.7878051 60.4745409,27.9685678 C60.8368054,29.1117203 61.3799728,30.1345169 62.5879805,30.4955847 C63.4929533,30.4356356 64.1577938,30.4955847 64.882323,30.3756864 C66.6931868,30.0146186 67.7799805,28.9314153 69.2891868,27.9685678 L69.5311556,27.9685678 C70.13493,27.7278559 70.919607,26.8853644 71.3424786,26.5842458 C71.5238405,26.5242966 71.5839883,26.223178 71.6441362,26.1632288 C72.1271556,25.802161 72.7313891,25.5010424 73.1538016,25.0196186 C73.636821,24.6585508 73.9384786,24.1167203 74.4214981,23.8764661 C74.5422529,23.5753475 74.6028599,23.4549915 74.9651245,23.4549915 C75.2667821,22.8532119 75.7502607,22.4921441 76.2332802,22.1910254 C76.4141829,21.7700085 76.4141829,21.3489915 76.9578093,21.3489915 C76.5349377,22.6729068 75.3273891,23.8160593 75.2667821,25.0800254 C73.3953113,26.4638898 72.7910778,29.1117203 70.6780973,30.1949237 C70.6780973,30.3152797 70.4971946,30.3756864 70.6780973,30.4356356 C68.323607,32.2409746 65.8479027,33.6852458 61.8634514,33.5049407 C61.8634514,33.4445339 61.6820895,33.3841271 61.6214825,33.324178 C59.4478949,33.0834661 58.3615603,31.218178 57.2141595,29.7135 C57.3344553,29.2924831 57.1540117,29.1117203 56.8518949,29.1117203 C57.0327977,28.5698898 56.6103852,28.0889237 56.4896304,27.7878051 C56.4896304,27.6070424 56.5497782,27.3667881 56.7917471,27.3063814 C56.7917471,27.6070424 56.7311401,27.6070424 56.7917471,27.7878051 C57.3950623,27.4267373 56.5497782,26.7650085 56.8518949,26.223178 C56.5497782,25.5614492 56.6103852,24.6585508 56.6103852,24.1771271 C56.3082685,24.1771271 56.4896304,24.6585508 56.4294825,24.7185 C56.1875136,24.5986017 56.4896304,24.1167203 56.4294825,23.8160593 C56.4896304,23.8160593 56.4896304,23.8160593 56.4896304,23.7556525" id="Fill-8" fill="#FFFFFF" mask="url(#mask-4)"/>
                <path d="M94.1639082,26.2833102 C94.1639082,26.5844288 94.1033012,26.8850898 94.2245152,27.0054458 C94.2245152,26.8251407 94.2245152,26.223361 94.1639082,26.2833102 L94.1639082,26.2833102 Z M93.8622506,32.3011068 C93.8622506,32.2411576 93.9223984,32.2411576 93.8622506,32.3011068 L93.8622506,32.4818695 C93.9223984,32.4818695 93.9825463,32.4818695 93.9825463,32.4214627 C94.2245152,32.5418186 93.9825463,32.6022254 94.1033012,32.8424797 C93.9825463,32.8424797 93.9223984,32.8424797 93.9223984,32.9028864 C93.8016436,32.7825305 93.6202817,32.4818695 93.8622506,32.3011068 L93.8622506,32.3011068 Z M93.8622506,33.1435983 C93.5601339,33.2040051 93.8622506,32.9028864 93.8622506,33.1435983 C94.1033012,33.1435983 93.8016436,33.4447169 93.8622506,33.1435983 L93.8622506,33.1435983 Z M93.6202817,29.1119034 C93.6202817,29.2322593 93.5601339,29.1119034 93.499986,29.1119034 L93.6202817,29.1119034 Z M93.499986,29.8939881 C93.499986,29.834039 93.499986,29.5933271 93.6202817,29.7136831 C93.6202817,29.834039 93.6202817,29.834039 93.5601339,29.8939881 L93.499986,29.8939881 C93.5601339,30.1951068 93.3186241,29.8939881 93.499986,29.8939881 L93.499986,29.8939881 Z M93.499986,26.223361 C93.499986,26.524022 93.3186241,26.5844288 93.3186241,26.8251407 C93.499986,26.7647339 93.378772,26.8850898 93.499986,26.8850898 C93.499986,26.7047847 93.6202817,26.4036661 93.499986,26.223361 L93.499986,26.223361 Z M93.1978693,24.7790898 C93.0771144,25.0198017 93.0771144,25.2605136 93.2580171,25.3204627 C93.1978693,25.2605136 93.3186241,24.8994458 93.1978693,24.7790898 L93.1978693,24.7790898 Z M91.6882039,30.4358186 C91.5679082,30.4358186 91.5679082,30.3754119 91.6882039,30.4358186 C91.8695658,30.4957678 91.7488109,30.6161237 91.7488109,30.6765305 C91.5073012,30.6161237 91.6882039,30.6161237 91.6882039,30.4358186 L91.6882039,30.4358186 Z M91.2657914,29.1119034 C91.2657914,29.1718525 91.2657914,29.2322593 91.3865463,29.2322593 C91.3865463,29.1119034 91.2657914,29.1119034 91.2657914,29.1119034 L91.2657914,29.1119034 Z M91.2657914,29.834039 C91.2657914,29.5933271 91.5073012,29.834039 91.2657914,29.834039 C91.2657914,29.8939881 91.1450366,29.8939881 91.2657914,29.834039 L91.2657914,29.834039 Z M91.3865463,23.0941068 L91.2657914,23.0941068 C91.2657914,23.1540559 91.2056436,23.2140051 91.2056436,23.3947678 C91.3865463,23.3947678 91.3865463,23.2140051 91.3865463,23.0941068 L91.3865463,23.0941068 Z M91.1450366,27.0054458 C91.3865463,26.7647339 91.0848887,26.4036661 91.2056436,25.9222424 C90.9035268,25.8018864 91.2657914,26.4640729 90.9636747,26.1629542 C91.1450366,26.524022 90.9636747,26.7647339 91.1450366,27.0054458 L91.1450366,27.0054458 Z M90.843379,25.2001068 C90.843379,25.3204627 90.843379,25.3808695 90.9035268,25.3808695 C90.9636747,25.3204627 90.9636747,25.2605136 90.843379,25.2001068 L90.843379,25.2001068 Z M90.5412623,32.1208017 C90.4811144,32.1208017 90.5412623,31.940039 90.5412623,31.8196831 C90.6620171,31.8196831 90.6620171,31.8796322 90.6620171,32.0004458 C90.6014101,32.0004458 90.5412623,32.0004458 90.5412623,32.1208017 L90.5412623,32.1208017 Z M90.5412623,31.3382593 C90.5412623,31.3986661 90.5412623,31.3986661 90.4811144,31.3986661 C90.4811144,31.3382593 90.5412623,31.3382593 90.5412623,31.3382593 L90.5412623,31.3382593 Z M90.2391455,25.0797508 C90.2997525,25.6215814 90.3603595,26.4036661 90.3603595,27.0653949 C90.5412623,26.2833102 90.5412623,25.6215814 90.2391455,25.0797508 L90.2391455,25.0797508 Z M90.2391455,29.834039 C90.0582428,29.834039 89.9980949,29.7136831 90.1789977,29.5329203 C90.4811144,29.5329203 90.3603595,29.7736322 90.2391455,29.834039 L90.2391455,29.834039 Z M89.7561261,28.2694119 C89.6959782,28.2694119 89.6959782,28.0886492 89.6358304,28.0886492 C89.5752233,28.2694119 89.7561261,28.3897678 89.7561261,28.2694119 L89.7561261,28.2694119 Z M89.5752233,29.5933271 C89.5752233,29.4729712 89.6959782,29.4729712 89.6358304,29.2322593 C89.7561261,29.2922085 89.7561261,29.7136831 89.7561261,29.834039 C89.6358304,29.834039 89.7561261,29.4729712 89.5752233,29.5933271 L89.5752233,29.5933271 Z M89.6358304,20.8073441 C89.3938615,20.7469373 89.6959782,20.6865305 89.6358304,20.5062254 C89.7561261,20.5062254 89.6358304,20.7469373 89.6358304,20.8073441 L89.6358304,20.8073441 Z M91.5679082,27.1258017 C91.4466942,26.8251407 91.8089588,25.6815305 91.2657914,25.3808695 C91.5679082,27.1862085 91.2056436,28.0886492 91.7488109,29.4729712 C91.4466942,29.2322593 91.4466942,29.4729712 91.2056436,29.5329203 C91.2657914,29.4125644 91.0848887,29.4729712 91.0848887,29.2922085 C91.2056436,29.1119034 90.9636747,28.9910898 91.0848887,28.6304797 C91.2056436,28.6304797 91.2056436,28.6904288 91.2657914,28.6904288 C91.0848887,28.2090051 91.3865463,27.4269203 91.1450366,27.0054458 C90.9636747,27.3065644 91.0848887,27.9682932 90.9636747,28.329361 C90.782772,28.2694119 90.843379,27.7879881 90.6620171,27.6676322 C90.6620171,27.7275814 90.6620171,27.7879881 90.6014101,27.7879881 C90.6014101,27.9083441 90.5412623,27.9083441 90.6014101,27.7879881 C90.6014101,27.7275814 90.5412623,27.6676322 90.5412623,27.6676322 C90.2997525,27.9682932 90.4811144,28.5101237 90.2997525,28.8107847 C90.2997525,28.6904288 90.2997525,28.6304797 90.2391455,28.6304797 C90.4811144,29.1119034 90.5412623,29.4729712 90.5412623,29.834039 C90.5412623,29.5933271 90.2997525,29.4729712 90.2391455,29.2322593 C90.2391455,29.4125644 90.1789977,29.4729712 90.0582428,29.4729712 C89.7561261,28.9910898 89.6959782,28.5700729 89.7561261,27.7879881 C89.3938615,27.9682932 89.6358304,27.3665136 89.3938615,27.1258017 C89.2735658,27.6676322 89.4544685,28.0886492 89.5752233,28.5700729 C89.6358304,28.5700729 89.6358304,28.5700729 89.6358304,28.6304797 C89.5752233,28.6304797 89.5752233,28.6304797 89.5752233,28.5700729 C89.3938615,28.6304797 89.4544685,28.3897678 89.3332545,28.3897678 C89.4544685,28.8107847 89.3938615,28.9311407 89.5752233,29.1718525 C89.5752233,29.1119034 89.5752233,28.9910898 89.6358304,28.9910898 C89.6358304,29.1119034 89.6358304,29.1718525 89.5752233,29.1718525 C89.0922039,29.7136831 89.7561261,30.3154627 89.7561261,30.7364797 C89.7561261,30.7968864 89.6959782,31.2783102 89.7561261,31.3986661 C89.7561261,31.519022 90.0582428,31.8796322 90.0582428,32.0004458 C89.9980949,31.8196831 90.1789977,31.6993271 90.3603595,31.6993271 C90.2997525,32.0004458 90.0582428,32.2411576 90.4811144,32.3011068 C90.1789977,32.3011068 90.4811144,32.4214627 90.3603595,32.5418186 C90.2391455,32.5418186 90.2391455,32.4818695 90.0582428,32.4818695 C89.9374879,32.7825305 90.1789977,32.7225814 90.1789977,32.8424797 C90.3603595,32.9028864 90.2391455,32.6022254 90.5412623,32.7225814 C90.5412623,32.7825305 90.6620171,32.7825305 90.6620171,32.8424797 C90.3603595,33.2040051 90.9636747,33.5046661 90.843379,33.8053271 C90.6014101,33.9261407 90.5412623,33.5046661 90.5412623,33.745378 C90.6620171,34.2268017 91.7488109,34.6482763 91.9903206,34.0464966 C91.7488109,34.0464966 91.6882039,34.0464966 91.6882039,33.8053271 C92.0504685,33.9860898 92.0504685,33.6854288 92.0504685,33.5046661 C92.1110755,33.5046661 92.1712233,33.625022 92.2924374,33.6854288 C92.3525852,33.9860898 92.1110755,33.9860898 92.1712233,34.2872085 C92.7148498,34.4075644 93.1978693,34.0464966 93.499986,33.745378 C93.378772,33.8053271 93.378772,33.9261407 93.378772,33.9860898 C93.9825463,34.0464966 93.8622506,33.3843102 94.2245152,33.2040051 C94.2245152,33.324361 94.2245152,33.4447169 94.284663,33.4447169 C94.5261728,33.0836492 94.7075346,32.7825305 94.5867798,32.5418186 C94.8278304,32.4818695 94.7075346,32.7825305 94.8884374,32.7225814 C94.8884374,32.3011068 94.7676825,32.1208017 94.8278304,31.6993271 C93.8016436,31.0975475 93.8622506,29.7136831 93.6808887,28.3897678 C93.5601339,28.5700729 93.8016436,28.9910898 93.499986,28.9910898 C93.378772,28.329361 93.378772,27.7879881 93.499986,27.4269203 C93.1978693,27.4868695 93.378772,27.0054458 93.3186241,26.8251407 C93.0169665,26.4640729 93.378772,25.9222424 93.1978693,25.5611746 C93.1978693,25.8622932 93.0169665,25.9222424 92.9563595,26.1025475 C93.0771144,26.1025475 93.1978693,26.7047847 92.8957525,26.7047847 C92.7754568,26.4036661 93.0169665,26.1629542 92.7754568,26.1025475 C92.5940949,27.1258017 93.0169665,29.1119034 92.7754568,29.8939881 C92.7754568,30.0143441 92.7754568,30.0747508 92.7148498,30.0747508 C92.7148498,30.0143441 92.7754568,29.8939881 92.7754568,29.8939881 C92.7754568,29.5329203 92.6547019,29.1718525 92.4131922,28.9311407 C92.5940949,28.9311407 92.5940949,28.8107847 92.5940949,28.6304797 C92.1712233,28.3897678 92.4733401,27.4269203 92.3525852,26.8251407 C92.2924374,26.4640729 91.9903206,26.2833102 92.0504685,25.8018864 C91.4466942,26.4640729 92.1712233,27.4868695 91.7488109,28.2694119 C91.8089588,28.2694119 91.8089588,28.329361 91.7488109,28.2694119 C91.5073012,27.9682932 91.5073012,27.6072254 91.5679082,27.1258017 L91.5679082,27.1258017 Z M89.1528109,20.4462763 C89.1528109,20.5062254 89.0922039,20.5062254 89.0315969,20.5062254 C89.0315969,20.4462763 89.0922039,20.4462763 89.1528109,20.4462763 L89.1528109,20.4462763 Z M88.8506942,24.2976661 C88.7299393,24.418022 88.8506942,24.5983271 88.971449,24.6587339 C88.8506942,24.5983271 89.0315969,24.2976661 88.8506942,24.2976661 L88.8506942,24.2976661 Z M88.7299393,26.2833102 C88.7299393,26.4640729 88.7299393,26.5844288 88.8506942,26.5844288 C88.8506942,26.4640729 88.971449,26.223361 88.7299393,26.2833102 L88.7299393,26.2833102 Z M88.7299393,26.8251407 C88.6693323,27.0653949 88.971449,27.1862085 89.0315969,27.0653949 C88.8506942,27.0054458 88.8506942,26.8251407 88.7299393,26.8251407 L88.7299393,26.8251407 Z M88.4282817,22.0109034 C88.4884296,21.5894288 88.7299393,21.1080051 89.0315969,20.6865305 C89.0315969,20.9876492 88.7299393,21.7097847 88.4282817,22.0109034 L88.4282817,22.0109034 Z M88.0660171,18.7608356 C88.0660171,18.8816492 88.0660171,18.8816492 88.126165,18.8816492 C88.126165,18.7608356 88.126165,18.7608356 88.0660171,18.7608356 L88.0660171,18.7608356 Z M87.6431455,18.9415983 C87.6431455,19.0619542 87.5825385,19.0619542 87.5825385,19.2427169 C87.8240482,19.3626153 87.8240482,18.9415983 87.6431455,18.9415983 L87.6431455,18.9415983 Z M87.5825385,19.3626153 C87.4617837,19.3026661 87.3414879,19.543378 87.5223907,19.6037847 C87.5223907,19.543378 87.5223907,19.4834288 87.5825385,19.3626153 L87.5825385,19.3626153 Z M87.2207331,17.8583949 C87.0393712,18.0391576 87.2207331,18.2798695 87.2808809,18.3997678 C87.2207331,18.2798695 87.3414879,17.8583949 87.2207331,17.8583949 L87.2207331,17.8583949 Z M87.3414879,22.2511576 C87.0393712,22.3115644 87.0393712,22.6126831 87.0393712,22.9133441 C87.1601261,22.6726322 87.2207331,22.3719712 87.3414879,22.2511576 L87.3414879,22.2511576 Z M87.1601261,18.7608356 C87.0393712,18.9415983 86.9792233,19.3026661 87.0393712,19.3626153 C87.2808809,19.2427169 87.0393712,19.0619542 87.1601261,18.7608356 L87.1601261,18.7608356 Z M86.9186163,20.6865305 C86.9186163,20.8672932 87.0393712,20.8073441 86.9186163,20.8672932 C87.2207331,20.8672932 86.9792233,20.8073441 87.1601261,20.6865305 L86.9186163,20.6865305 Z M87.0393712,23.4551746 C87.1601261,24.0569542 86.7372545,24.5983271 86.8584685,25.0198017 C86.8584685,24.418022 87.5223907,23.9965475 87.0393712,23.4551746 L87.0393712,23.4551746 Z M87.1601261,18.7608356 L87.2207331,18.7608356 C87.1601261,18.7008864 87.2808809,18.4601746 87.1601261,18.4601746 C87.0393712,18.9415983 86.9792233,18.1595136 86.9186163,18.3997678 C86.9186163,18.6409373 86.8584685,18.6409373 86.7372545,18.9415983 C86.9792233,19.0619542 86.9792233,18.5805305 87.1601261,18.7608356 L87.1601261,18.7608356 Z M86.7372545,26.8251407 C86.8584685,27.1862085 86.6771066,27.6676322 86.7372545,27.9083441 C86.7372545,27.7879881 86.9186163,27.7879881 87.0393712,27.7275814 C86.9792233,27.1258017 87.3414879,26.2833102 87.7639004,26.1629542 C87.3414879,26.1025475 88.0660171,25.3808695 87.5223907,25.3204627 C87.5223907,25.8018864 87.2207331,25.9222424 87.0393712,26.1629542 C87.0393712,26.4036661 87.1601261,26.7647339 86.7372545,26.8251407 L86.7372545,26.8251407 Z M86.6771066,19.0619542 C86.6771066,19.2427169 86.6169588,19.2427169 86.6169588,19.3626153 C86.6771066,19.3626153 86.7372545,19.4834288 86.7372545,19.4834288 C86.7372545,19.3026661 86.7372545,19.1823102 86.6771066,19.0619542 L86.6771066,19.0619542 Z M86.5563518,20.4462763 C86.6771066,20.2655136 86.6169588,20.1451576 86.7372545,19.9044458 C86.4355969,19.9044458 86.5563518,20.1451576 86.5563518,20.4462763 L86.5563518,20.4462763 Z M86.5563518,20.4462763 C86.254235,20.5666322 86.1339393,20.4462763 86.0127253,20.3858695 C85.7110677,20.8073441 85.7716747,21.1684119 85.6504607,21.649378 C86.1339393,21.5894288 86.254235,20.8672932 86.5563518,20.4462763 L86.5563518,20.4462763 Z M85.4094101,29.1119034 C85.6504607,28.9311407 85.4690988,28.5101237 85.8318226,28.5101237 C85.8318226,28.9311407 85.8318226,28.9311407 85.7716747,29.1718525 C85.5297058,29.2322593 85.6504607,28.9910898 85.4094101,29.1119034 L85.4094101,29.1119034 Z M85.1674412,21.8905475 C85.1674412,21.9504966 85.1674412,22.0109034 85.2280482,22.0109034 C85.2280482,21.9504966 85.3488031,21.9504966 85.3488031,21.8905475 C85.1674412,21.7097847 85.3488031,21.5894288 85.1674412,21.4690729 C85.1072934,21.649378 85.3488031,21.7701915 85.1674412,21.8905475 L85.1674412,21.8905475 Z M85.0471455,21.8905475 L85.1674412,21.8905475 C85.1674412,21.7701915 85.0471455,21.7701915 85.0471455,21.8905475 L85.0471455,21.8905475 Z M85.0471455,27.7879881 C85.2280482,27.4868695 85.2280482,27.1862085 85.3488031,26.8251407 C85.4094101,26.8850898 85.4690988,27.7275814 85.0471455,27.7879881 L85.0471455,27.9083441 C85.1674412,27.9083441 85.1674412,28.0282424 85.1674412,28.2090051 C84.9263907,28.2694119 85.0471455,28.0282424 85.0471455,27.9083441 C84.9263907,27.9083441 84.9263907,27.7879881 85.0471455,27.7879881 L85.0471455,27.7879881 Z M84.7450288,28.8107847 C84.7450288,28.5101237 84.8657837,28.329361 85.1072934,28.329361 C85.1072934,28.5700729 85.0471455,28.8107847 84.7450288,28.8107847 L84.7450288,28.8107847 Z M84.6242739,30.4957678 C84.5035191,30.4957678 84.7450288,30.0747508 84.5641261,30.0747508 C84.7450288,29.834039 84.8051767,30.3754119 84.6242739,30.4957678 L84.6242739,30.4957678 Z M83.5374802,31.0975475 L83.3565774,31.0975475 L83.3565774,31.2783102 C83.5374802,31.2783102 83.5374802,31.2179034 83.5374802,31.0975475 L83.5374802,31.0975475 Z M81.7863051,32.6022254 C81.9075191,32.4818695 82.0884218,32.2411576 82.2091767,32.1208017 C82.4506864,32.2411576 82.3900794,32.5418186 82.3299315,32.7225814 C82.2091767,32.4818695 81.9075191,32.7825305 81.7863051,32.6022254 L81.7863051,32.6022254 Z M78.1636591,30.9771915 C77.9221494,30.9771915 77.8620016,30.9771915 77.8620016,30.7364797 C78.1035113,30.7364797 78.2242661,30.7364797 78.1636591,30.9771915 L78.1636591,30.9771915 Z M77.3789821,31.5789712 L77.3789821,31.639378 C77.499737,31.639378 77.499737,31.5789712 77.3789821,31.5789712 L77.3789821,31.5789712 Z M77.3789821,31.5789712 C77.3188342,31.2783102 76.9561105,31.2783102 77.0167175,30.9167847 C77.560344,31.2783102 78.284414,31.519022 78.5865307,32.1807508 C78.1636591,32.4818695 78.1035113,31.8196831 77.8013946,31.940039 C77.8620016,31.6993271 77.8013946,31.6993271 77.6810988,31.5789712 C77.560344,31.5789712 77.560344,31.8196831 77.3188342,31.6993271 C77.3188342,31.639378 77.3188342,31.5789712 77.3789821,31.5789712 L77.3789821,31.5789712 Z M76.3523362,29.1119034 C76.3523362,29.2322593 76.4735502,29.1718525 76.5938459,29.2322593 C76.6544529,29.1119034 76.4129432,29.1119034 76.3523362,29.1119034 L76.3523362,29.1119034 Z M76.1112856,28.6304797 C76.1112856,28.8107847 76.1709743,28.8711915 76.2921883,28.9311407 C76.2921883,28.8107847 76.2921883,28.6304797 76.1112856,28.6304797 L76.1112856,28.6304797 Z M75.688414,30.1347 C75.749021,30.1347 75.749021,30.6161237 75.8693167,30.3154627 C75.749021,30.3154627 75.8693167,30.1951068 75.8693167,30.0747508 C75.8091689,30.0747508 75.688414,30.0747508 75.688414,30.1347 L75.688414,30.1347 Z M91.3865463,23.0941068 C91.5073012,23.0941068 91.4466942,22.8533949 91.6882039,22.9133441 C91.7488109,23.8761915 91.3865463,24.8994458 91.7488109,25.5611746 C91.7488109,25.3808695 91.7488109,25.3204627 91.8695658,25.2605136 C91.9903206,25.5012254 91.6882039,25.5611746 91.9903206,25.6215814 C91.9903206,25.3204627 92.1110755,24.8994458 91.8089588,24.8994458 C92.0504685,24.1768525 91.8089588,23.0941068 92.4733401,22.3719712 C92.5940949,22.6726322 92.4733401,23.2744119 92.5940949,23.7558356 C92.7754568,23.2140051 92.7754568,22.7929881 93.0169665,22.4923271 C93.2580171,22.6726322 93.0771144,22.9133441 93.0771144,23.1540559 C93.378772,23.1540559 93.3186241,22.7929881 93.499986,23.0941068 C93.499986,21.7701915 93.499986,20.6865305 93.6202817,19.543378 C93.1978693,18.8816492 94.1639082,17.7979881 93.499986,17.1966661 C93.8016436,16.3541746 93.5601339,15.0302593 93.5601339,14.2477169 C93.499986,14.1877678 92.7754568,14.2477169 92.9563595,13.8866492 C92.3525852,14.1877678 92.0504685,13.1645136 91.5679082,13.6459373 C91.2657914,13.4656322 90.782772,13.2848695 90.1789977,13.2848695 C90.0582428,13.4656322 90.2391455,13.5855305 90.0582428,13.5855305 C90.0582428,13.4656322 89.9374879,13.4656322 89.9980949,13.2848695 C88.7905463,13.0441576 88.6693323,14.0674119 87.9448031,14.3680729 C88.2469198,14.548378 87.5223907,15.0902085 87.9448031,15.3309203 C88.126165,15.0902085 87.8846553,14.9698525 88.126165,14.9698525 C88.2469198,15.3309203 87.7639004,15.4512763 87.9448031,15.6919881 C88.0660171,15.6919881 87.9448031,15.5716322 88.126165,15.5716322 C88.126165,15.7523949 88.2469198,16.2338186 87.9448031,16.4740729 C87.9448031,16.2937678 88.1863128,16.0530559 87.9448031,15.9931068 C87.8846553,17.1362593 87.3414879,17.738039 87.4617837,18.7608356 C87.6431455,18.0991068 87.7639004,17.4973271 88.0660171,16.8955475 C87.9448031,17.4369203 87.9448031,17.5577339 87.8846553,17.9787508 C88.1863128,18.0391576 88.0660171,17.7979881 88.1863128,17.738039 C88.1863128,18.0391576 88.126165,18.1595136 87.8846553,18.2798695 C88.0660171,18.5805305 87.7639004,18.8816492 88.0660171,18.7608356 C88.0660171,18.6409373 87.9448031,18.1595136 88.2469198,18.2798695 C88.1863128,18.4601746 88.2469198,18.7008864 88.126165,18.8816492 C87.8240482,20.1451576 87.3414879,20.8672932 86.9186163,22.1912085 C87.6431455,21.2883102 87.8240482,19.9648525 88.7905463,19.3026661 C88.3676747,20.3858695 88.2469198,21.3487169 87.8240482,22.3115644 C88.126165,22.7929881 87.6431455,23.2744119 87.4617837,23.7558356 C87.3414879,24.5983271 86.9186163,25.0797508 86.6169588,25.6215814 C86.6771066,25.6815305 86.6771066,25.8622932 86.6771066,25.9826492 C86.5563518,26.223361 86.5563518,26.7047847 86.254235,26.8251407 C86.314842,27.3665136 86.0127253,27.4868695 86.0127253,27.9682932 C85.8318226,27.9682932 85.7716747,28.3897678 85.5297058,28.2090051 C85.7716747,27.4269203 86.0733323,26.4036661 86.0733323,25.6215814 C85.9525774,25.9222424 85.8318226,26.4036661 85.5297058,26.5844288 C85.4690988,25.3204627 86.1339393,24.1169034 86.314842,23.2744119 C86.314842,23.3947678 86.314842,23.4551746 86.254235,23.4551746 C86.254235,23.3947678 86.254235,23.2744119 86.314842,23.2744119 C86.1339393,22.2511576 86.9186163,21.5894288 86.7372545,20.3858695 C86.7372545,21.2883102 86.0127253,21.8905475 85.7716747,22.6726322 C85.7716747,22.9133441 85.7110677,22.9737508 85.5297058,23.0941068 C85.3488031,22.4923271 85.5297058,22.2511576 85.6504607,21.649378 C85.2280482,21.7701915 85.4094101,22.4923271 85.1072934,22.5522763 C84.8657837,22.3719712 85.0471455,22.0708525 85.0471455,21.8905475 C84.8051767,22.0109034 84.8051767,22.3115644 84.5641261,22.3115644 C84.0204996,24.0569542 82.6320482,24.8994458 82.0884218,26.524022 C81.5452545,26.4640729 81.5452545,27.3665136 81.001628,27.0653949 C80.8808732,27.4269203 80.6999704,27.6676322 80.3978537,27.7879881 C79.7940794,24.7186831 80.6393634,20.8073441 80.8808732,16.8955475 C80.6393634,16.7751915 80.5787564,16.4740729 80.5787564,15.9931068 C80.2770988,15.9327 80.0355891,15.7523949 79.9148342,15.7523949 C79.7940794,15.6919881 79.9148342,15.3913271 79.7334724,15.3309203 C79.6131767,15.3913271 79.6131767,15.632039 79.3712078,15.5716322 C79.4318148,15.1506153 79.1301572,15.1506153 78.8280405,15.1506153 C78.7678926,15.0302593 78.7678926,14.7895475 78.7072856,14.6691915 C77.6204918,14.4284797 77.0768654,15.0302593 76.3523362,14.8494966 C76.1112856,14.9698525 76.0506786,15.2709712 75.5676591,15.2709712 C75.5070521,16.8955475 75.749021,18.1595136 75.5070521,19.543378 C75.749021,19.6637339 75.5676591,20.1451576 75.5070521,20.2655136 C75.5676591,20.4462763 75.688414,20.5062254 75.688414,20.7469373 C75.4469043,21.4690729 75.9900716,21.7097847 75.8091689,22.6126831 C76.1112856,22.6126831 76.0506786,22.3115644 76.3523362,22.3115644 C75.9900716,23.2140051 75.8693167,23.7558356 76.0506786,24.7186831 C76.2921883,24.7186831 76.3523362,24.7186831 76.3523362,24.9593949 C76.3523362,25.0797508 76.2921883,25.0797508 76.1709743,25.0797508 L76.1709743,25.2605136 C76.2921883,25.5012254 76.3523362,25.6815305 76.3523362,26.1025475 C75.8091689,27.0054458 76.4735502,27.7879881 76.8959626,28.6904288 C76.7146008,29.5933271 76.7752078,30.0747508 77.0167175,30.6765305 C77.0768654,30.6765305 77.0768654,30.7968864 77.0167175,30.6765305 C76.4129432,30.6765305 76.6544529,29.7736322 76.3523362,29.7136831 L76.3523362,30.6161237 C76.4735502,30.6765305 76.5938459,30.6161237 76.7146008,30.9167847 C76.7146008,31.0375983 76.4129432,30.9771915 76.4735502,31.2179034 C76.8959626,31.3986661 77.0167175,31.940039 77.499737,31.8796322 C77.3188342,32.1208017 77.9221494,32.4818695 78.1636591,32.4214627 C78.1035113,32.4214627 77.9827564,32.3011068 77.9827564,32.2411576 C77.9221494,32.2411576 77.9221494,32.1807508 77.9827564,32.2411576 C78.4657759,32.4214627 79.0089432,32.4214627 79.3110599,32.6022254 C79.3110599,32.7825305 78.8280405,32.5418186 78.8881883,32.7825305 C79.4318148,32.7825305 79.7334724,33.0836492 80.3377058,33.0836492 C80.5787564,34.1064458 81.8469121,33.4447169 82.1485696,32.8424797 L82.1485696,33.1435983 C82.3900794,33.0836492 82.5108342,32.7825305 82.9337058,32.7225814 C82.6320482,32.0004458 83.4167253,31.8196831 83.0544607,31.2783102 C83.5374802,30.7364797 83.8395969,30.1347 84.2018615,29.7136831 C84.2018615,30.3754119 83.597628,30.4957678 83.5374802,31.0975475 C83.7183829,30.9771915 83.8395969,30.7364797 83.9598926,30.6161237 C84.1412545,31.2783102 83.7183829,31.3986661 83.4167253,31.639378 C83.597628,31.8196831 83.2353634,32.2411576 83.658235,32.2411576 C83.8395969,31.8796322 84.1412545,31.0375983 84.9263907,30.9771915 C85.1674412,30.4957678 85.1674412,29.834039 85.5297058,29.5329203 C86.0127253,29.2922085 86.3749899,28.9910898 86.4355969,28.329361 C86.1339393,28.329361 86.314842,28.6904288 86.0127253,28.6304797 C86.1339393,27.9083441 86.314842,27.3665136 86.7372545,26.8251407 C86.9186163,26.524022 86.8584685,26.4036661 87.0393712,26.1629542 C87.1601261,25.6815305 87.5223907,25.3808695 87.6431455,25.0198017 C88.2469198,23.5755305 88.8506942,22.0708525 89.5752233,20.8672932 C89.5752233,21.4091237 89.6959782,21.1684119 89.9374879,21.649378 C89.7561261,21.7701915 89.6959782,22.6726322 89.4544685,22.2511576 C89.3938615,22.7929881 89.0315969,22.9737508 88.6693323,23.1540559 C88.6693323,24.1768525 87.9448031,24.9593949 88.1863128,25.6815305 C88.4282817,25.3808695 88.2469198,24.9593949 88.5490366,24.7790898 C88.5490366,24.6587339 88.4282817,24.5983271 88.4282817,24.4779712 C88.8506942,24.5983271 88.5490366,23.9965475 88.8506942,23.8761915 C88.8506942,24.0569542 88.971449,24.0569542 89.0315969,24.0569542 C89.0315969,23.9965475 89.0315969,23.8761915 89.1528109,23.8761915 C89.3332545,23.7558356 89.3332545,23.3947678 89.4544685,23.1540559 C89.3332545,23.1540559 89.2735658,23.2744119 89.2735658,23.1540559 C89.3332545,22.9737508 89.2735658,22.8533949 89.4544685,22.6126831 C89.5752233,22.6126831 89.6358304,22.6126831 89.6358304,22.6726322 L89.6959782,22.6726322 C89.8768809,22.5522763 89.8768809,22.2511576 90.1789977,22.1912085 C90.1789977,22.5522763 90.1789977,22.3719712 90.4811144,22.3719712 C90.6014101,22.5522763 90.3603595,23.1540559 90.5412623,23.2140051 C91.1450366,23.2140051 90.6620171,22.2511576 91.1450366,22.0109034 C91.1450366,22.4923271 91.3865463,22.6126831 91.3865463,23.0941068 L91.3865463,23.0941068 Z" id="Fill-9" fill="#FFFFFF" mask="url(#mask-4)"/>
                <path d="M112.155097,29.4730169 L112.336459,29.4730169 L112.336459,29.2922542 L112.155097,29.2922542 L112.155097,29.4730169 Z M107.325362,19.7841356 C107.38551,19.7841356 107.506265,19.7841356 107.506265,19.6637797 C107.38551,19.6637797 107.325362,19.6637797 107.325362,19.7841356 L107.325362,19.7841356 Z M107.023245,19.9044915 C107.023245,19.6637797 106.721128,19.9648983 107.023245,19.9044915 C107.083393,20.0847966 107.083393,19.9044915 107.023245,19.9044915 L107.023245,19.9044915 Z M106.298257,23.5751186 C106.358864,23.5751186 106.419471,23.5751186 106.419471,23.5151695 C106.358864,23.5151695 106.298257,23.5151695 106.298257,23.5751186 L106.298257,23.5751186 Z M105.755549,24.4180678 L105.876304,24.4180678 L105.876304,24.2977119 L105.755549,24.2977119 L105.755549,24.4180678 Z M105.453432,23.7558814 C105.514039,23.7558814 105.574187,23.8762373 105.574187,23.7558814 C105.574187,23.6959322 105.453432,23.6959322 105.453432,23.7558814 L105.453432,23.7558814 Z M105.27207,22.552322 C105.393284,22.4923729 105.27207,22.4923729 105.27207,22.552322 C104.970412,22.672678 105.514039,22.7930339 105.27207,22.552322 L105.27207,22.552322 Z M105.211922,24.357661 L105.27207,24.357661 C105.27207,24.1768983 105.27207,24.057 105.151315,24.057 C105.151315,24.1768983 105.211922,24.1768983 105.211922,24.357661 C104.909805,24.357661 105.27207,24.7791356 105.211922,24.357661 L105.211922,24.357661 Z M104.970412,25.8019322 C105.151315,25.9222881 105.211922,25.5612203 105.091167,25.5612203 C105.091167,25.6216271 105.091167,25.6216271 104.970412,25.6216271 L104.970412,25.8019322 Z M104.970412,25.3205085 C105.091167,25.3205085 105.151315,25.3205085 105.151315,25.2605593 C105.091167,25.2605593 104.970412,25.2605593 104.970412,25.3205085 L104.970412,25.3205085 Z M104.849658,24.1169492 C104.849658,24.2977119 104.849658,24.4180678 104.909805,24.4180678 C104.970412,24.357661 104.970412,24.1169492 104.849658,24.1169492 L104.849658,24.1169492 Z M104.849658,23.5151695 C104.849658,23.2744576 104.970412,23.1541017 105.151315,23.2744576 C105.151315,23.1541017 105.091167,23.0941525 104.970412,22.973339 C104.970412,23.2140508 104.849658,23.2140508 104.789051,23.2744576 C104.789051,23.0941525 104.487393,23.1541017 104.487393,22.973339 C104.30649,23.1541017 104.487393,23.4552203 104.608148,23.5151695 C104.608148,23.3948136 104.668755,23.2744576 104.789051,23.2744576 C104.789051,23.3948136 104.789051,23.5151695 104.849658,23.5151695 L104.849658,23.5151695 Z M104.608148,24.9594407 C104.487393,24.9594407 104.366179,25.0198475 104.366179,25.0797966 C104.547541,25.0797966 104.608148,25.0198475 104.608148,24.9594407 L104.608148,24.9594407 Z M104.245883,25.6216271 C104.185735,25.5612203 104.185735,25.6216271 104.245883,25.6216271 C104.30649,25.8019322 104.30649,25.6216271 104.245883,25.6216271 L104.245883,25.6216271 Z M104.185735,23.8162881 L104.30649,23.8162881 L104.30649,23.6959322 L104.185735,23.6959322 L104.185735,23.8162881 Z M103.581961,29.2922542 C103.642109,29.2922542 103.702257,29.2922542 103.702257,29.2323051 C103.642109,29.2323051 103.581961,29.2323051 103.581961,29.2922542 L103.581961,29.2922542 Z M103.642109,25.2001525 C103.461206,25.2605593 103.279844,25.2605593 103.279844,25.5008136 C103.461206,25.5008136 103.581961,25.3205085 103.642109,25.2001525 L103.642109,25.2001525 Z M102.856973,22.973339 C102.977728,22.973339 103.038335,23.1541017 103.038335,22.973339 C103.038335,22.9133898 102.856973,22.9133898 102.856973,22.973339 L102.856973,22.973339 Z M102.736677,33.9861356 C102.796825,33.9861356 102.856973,33.9861356 102.856973,33.9261864 C102.796825,33.9261864 102.736677,33.9261864 102.736677,33.9861356 L102.736677,33.9861356 Z M102.796825,24.9594407 C102.555315,24.8990339 102.494708,25.2001525 102.67607,25.2605593 C102.736677,25.2001525 102.796825,25.0797966 102.977728,25.0797966 C102.736677,24.8990339 103.159089,24.1768983 102.796825,24.057 C102.977728,24.4780169 102.494708,24.357661 102.555315,24.7187288 C102.555315,24.8990339 102.796825,24.7791356 102.796825,24.9594407 L102.796825,24.9594407 Z M100.683385,36.9950339 C100.743992,36.9350847 100.683385,36.9350847 100.683385,36.9950339 C100.56263,37.0549831 100.683385,37.0549831 100.683385,36.9950339 L100.683385,36.9950339 Z M100.381728,27.6072712 C100.442335,27.6072712 100.56263,27.6072712 100.56263,27.4869153 C100.442335,27.4869153 100.381728,27.4869153 100.381728,27.6072712 L100.381728,27.6072712 Z M100.442335,23.6959322 C100.442335,23.3948136 100.864747,23.2140508 100.924895,22.8534407 C100.683385,22.8534407 100.381728,22.8534407 100.32158,22.9133898 C100.442335,23.2744576 100.260973,23.5151695 100.442335,23.6959322 L100.442335,23.6959322 Z M100.56263,23.8162881 C100.32158,23.9965932 100.019463,24.357661 100.32158,24.5983729 C100.32158,24.2977119 100.683385,24.057 100.56263,23.8162881 L100.56263,23.8162881 Z M100.260973,29.4126102 C100.32158,29.2922542 100.260973,29.2922542 100.260973,29.4126102 C100.08007,29.4730169 100.260973,29.4730169 100.260973,29.4126102 L100.260973,29.4126102 Z M100.32158,26.4037119 C100.260973,25.9826949 100.56263,25.862339 100.743992,25.9826949 C100.683385,25.8019322 100.924895,25.8019322 100.924895,25.6216271 C100.683385,25.5612203 100.623237,25.8019322 100.32158,25.5612203 C100.32158,25.8019322 100.140218,26.1025932 100.019463,26.4037119 L100.32158,26.4037119 Z M100.019463,28.3893559 C100.140218,28.2694576 100.08007,28.3893559 100.32158,28.3893559 C100.32158,28.2090508 100.442335,27.667678 100.140218,27.4869153 C99.9593152,27.667678 100.260973,27.9083898 100.140218,28.0886949 L99.9593152,28.0886949 C99.9593152,28.2694576 100.019463,28.2694576 100.019463,28.3893559 C99.8381012,28.5101695 100.019463,28.5101695 100.019463,28.3893559 L100.019463,28.3893559 Z M100.019463,31.0376441 L99.8381012,31.0376441 C99.8381012,31.0975932 99.7779533,31.0975932 99.7779533,31.2179492 C99.9593152,31.2179492 100.019463,31.2179492 100.019463,31.0376441 L100.019463,31.0376441 Z M99.7173463,24.357661 L99.4758366,24.357661 C99.4758366,24.4780169 99.4156887,24.7187288 99.5364436,24.7187288 C99.5364436,24.5983729 99.7173463,24.5983729 99.7173463,24.357661 L99.7173463,24.357661 Z M99.7173463,33.4447627 C99.4758366,33.4447627 99.4156887,33.6250678 99.3550817,33.6854746 C99.5364436,33.6854746 99.7173463,33.6854746 99.7173463,33.4447627 L99.7173463,33.4447627 Z M99.4758366,25.2605593 C99.7173463,25.5008136 99.6571984,25.0198475 99.4758366,25.2605593 C99.174179,25.2001525 99.4758366,25.5008136 99.4758366,25.2605593 L99.4758366,25.2605593 Z M99.0534241,26.8851356 C99.0534241,27.0054915 98.9326693,27.0054915 98.9326693,26.8851356 C98.9326693,26.8251864 99.174179,26.7048305 99.113572,26.8851356 L99.0534241,26.8851356 Z M99.5364436,24.2977119 C99.5364436,23.6959322 99.9593152,23.2140508 99.8381012,22.552322 C99.0534241,22.8534407 99.0534241,23.5751186 98.9326693,24.4180678 C99.174179,24.4180678 99.3550817,24.1169492 99.5364436,24.2977119 L99.5364436,24.2977119 Z M99.234786,24.7791356 C99.174179,24.7791356 99.113572,24.7791356 99.0534241,24.7187288 C99.113572,25.0198475 98.8119144,24.8990339 98.8725214,25.0797966 C99.113572,25.0797966 99.3550817,25.0797966 99.234786,24.7791356 L99.234786,24.7791356 Z M98.8119144,28.5701186 C98.9326693,28.5101695 99.113572,28.3294068 99.174179,28.0886949 C99.174179,28.0282881 99.113572,27.968339 99.0534241,27.968339 C99.0534241,28.0282881 98.8725214,28.0282881 98.8119144,28.0282881 L98.8119144,28.5701186 Z M98.8119144,25.8019322 C99.113572,25.862339 99.113572,25.6216271 99.113572,25.3809153 C99.4156887,25.3809153 99.113572,25.0797966 99.113572,25.3809153 C98.8119144,25.3205085 98.8119144,25.5612203 98.8119144,25.8019322 L98.8119144,25.8019322 Z M98.8119144,26.1025932 C98.7513074,26.463661 98.7513074,27.0654407 98.8725214,27.4869153 C98.8725214,27.3066102 99.113572,27.1862542 99.113572,26.8851356 C99.234786,26.5844746 99.174179,26.463661 99.234786,26.163 C99.3550817,26.163 99.3550817,26.2234068 99.4156887,26.2234068 C99.3550817,25.9826949 99.6571984,26.1025932 99.5364436,25.862339 C99.234786,25.8019322 99.3550817,26.1025932 99.234786,26.163 C99.113572,26.2833559 98.8725214,26.2234068 98.8119144,26.1025932 L98.8119144,26.1025932 Z M98.4496498,22.9133898 C98.4496498,22.7930339 98.2081401,22.552322 98.4496498,22.4923729 C98.4496498,22.552322 98.4496498,22.672678 98.5102568,22.672678 C98.6305525,22.3116102 98.2682879,22.0708983 98.5699455,21.6494237 C98.4496498,21.6494237 98.3288949,21.6494237 98.2682879,21.5894746 C98.0272374,22.3116102 98.3288949,22.672678 98.0272374,23.2140508 C98.3288949,23.2744576 98.1479922,22.8534407 98.4496498,22.9133898 L98.4496498,22.9133898 Z M98.2081401,25.2605593 C98.2081401,25.3205085 98.1479922,25.3205085 98.0272374,25.2605593 C98.0272374,25.3809153 97.9666304,25.6815763 98.2081401,25.6216271 C98.3288949,25.6815763 98.3288949,25.2605593 98.2081401,25.2605593 L98.2081401,25.2605593 Z M98.2682879,24.6587797 L98.2682879,23.8162881 C98.4496498,24.1768983 98.5102568,23.5751186 98.2682879,23.8162881 C98.0272374,23.9965932 97.7251206,24.6587797 98.2682879,24.6587797 L98.2682879,24.6587797 Z M98.2081401,25.9222881 C98.0272374,25.9222881 98.2682879,25.5612203 97.9666304,25.6815763 C98.1479922,26.2234068 97.6043658,26.7647797 97.9666304,27.0054915 C98.2081401,26.5844746 98.1479922,26.463661 98.2081401,25.9222881 C98.2682879,25.862339 98.2081401,25.862339 98.2081401,25.9222881 L98.2081401,25.9222881 Z M97.8458755,26.4037119 C97.8458755,26.2833559 97.8458755,26.2234068 97.6649728,26.2234068 C97.6649728,26.2833559 97.6649728,26.463661 97.7251206,26.463661 C97.7251206,26.4037119 97.7251206,26.4037119 97.8458755,26.4037119 L97.8458755,26.4037119 Z M106.963097,19.5434237 C106.963097,19.4834746 106.90249,19.4834746 106.781735,19.4834746 C107.989284,19.362661 108.472304,20.2655593 109.679852,20.2655593 C109.679852,20.446322 109.679852,20.566678 109.800607,20.5062712 C109.98151,20.8073898 109.619704,20.566678 109.619704,20.7469831 C109.740459,20.867339 110.525136,21.0476441 110.223019,21.5894746 C110.283626,21.7702373 110.585284,21.7702373 110.706039,22.0104915 C110.706039,22.0708983 110.585284,22.0708983 110.585284,22.1912542 C110.645891,22.3720169 110.827253,22.0708983 110.887401,22.2512034 C110.827253,22.552322 111.310272,22.7930339 111.249665,23.3948136 C111.189518,23.3948136 111.128911,23.3948136 111.128911,23.4552203 C111.128911,23.5151695 111.249665,23.4552203 111.249665,23.3948136 C111.61193,24.1768983 111.85344,24.7187288 112.215704,25.862339 C112.215704,25.9222881 112.215704,25.9826949 112.094949,25.9826949 C112.397066,26.463661 112.638117,27.0654407 112.457214,27.7880339 C113.000381,28.6904746 112.819479,29.773678 113.121595,30.9168305 C113.121595,30.9772373 113.121595,31.0376441 113.000381,31.0376441 C113.24235,31.5790169 113.423253,32.0004915 113.121595,32.4215085 C113.362646,32.8425254 113.604615,33.3244068 113.845665,33.7454237 C115.476086,32.1208475 116.261222,29.5329661 117.46877,27.4265085 C117.951331,28.6904746 117.348016,30.3150508 117.348016,31.2778983 C116.925144,32.0004915 117.045899,32.6022712 116.562879,33.1436441 C116.623486,33.5047119 116.381518,33.6250678 116.32137,33.9261864 C115.476086,34.4076102 115.174428,35.8518814 114.329144,36.0921356 C114.268537,36.1525424 114.44944,36.3932542 114.147782,36.3932542 C114.147782,36.5136102 114.329144,36.453661 114.268537,36.6339661 C113.845665,36.754322 113.604615,37.2357458 113.060988,37.2961525 C112.517362,36.9950339 112.397066,37.1153898 111.732685,36.8147288 C110.283626,35.1292881 109.015471,33.3843559 108.593058,30.6161695 C108.290942,30.3150508 108.472304,29.4126102 108.230794,28.9911356 C108.290942,27.0654407 107.627019,25.2605593 106.90249,23.8162881 C106.600833,23.8762373 106.660981,23.8762373 106.479619,23.6959322 C106.358864,23.7558814 106.358864,24.057 106.298257,24.1768983 C106.177961,24.1768983 106.177961,24.1169492 106.117354,24.1169492 L106.117354,24.057 C106.600833,23.8762373 105.815696,23.6959322 106.117354,24.057 C106.057206,24.057 106.057206,24.1169492 106.117354,24.1169492 C106.117354,24.2977119 106.117354,24.4180678 106.177961,24.4180678 C106.117354,24.5983729 105.996599,24.4780169 105.815696,24.5983729 C105.815696,24.4780169 105.755549,24.4780169 105.694942,24.4780169 C105.694942,24.5983729 105.755549,24.5983729 105.815696,24.5983729 L105.815696,24.6587797 C105.694942,24.7187288 105.815696,24.7187288 105.815696,24.6587797 C105.876304,24.6587797 105.876304,24.7187288 105.996599,24.7187288 C105.815696,24.8990339 105.453432,24.8990339 105.393284,25.0797966 C105.27207,25.0797966 105.27207,25.0797966 105.27207,25.2001525 C105.151315,25.2605593 105.27207,25.2605593 105.27207,25.2001525 C105.393284,25.2001525 105.393284,25.2001525 105.393284,25.0797966 C105.694942,25.5612203 104.789051,25.9826949 104.970412,26.463661 C104.30649,27.1258475 104.547541,27.968339 104.064521,29.2323051 C103.883619,29.1718983 103.883619,29.4126102 103.702257,29.4126102 C103.702257,29.4730169 103.883619,29.4730169 103.944226,29.4730169 C103.944226,29.773678 103.461206,29.5329661 103.461206,29.8340847 C103.642109,29.8340847 103.702257,29.773678 103.702257,29.7137288 C103.883619,30.9772373 103.400599,32.1807966 103.038335,33.6854746 C103.038335,33.6250678 102.977728,33.6250678 102.977728,33.6854746 C102.796825,33.7454237 102.977728,33.7454237 102.977728,33.6854746 L103.038335,33.6854746 C102.736677,34.8286271 102.555315,35.3100508 102.193051,36.3932542 C101.951541,36.3333051 101.830786,36.453661 101.891393,36.6939153 C101.649424,36.754322 101.770179,36.5136102 101.589276,36.5136102 C101.468521,36.5136102 101.589276,36.6339661 101.589276,36.754322 C101.04565,36.8147288 100.924895,36.9950339 100.56263,37.2961525 C100.260973,37.2961525 99.4758366,37.2357458 99.6571984,37.5368644 C99.174179,37.5968136 98.1479922,37.5968136 97.9666304,37.2357458 C97.0607393,37.4165085 95.9137977,36.9350847 95.4909261,36.0921356 C95.5515331,36.0921356 95.6116809,36.2129492 95.6116809,36.0321864 C95.7930428,36.0321864 95.7328949,36.2129492 95.8531907,36.2129492 C95.8531907,36.3333051 95.9137977,36.3932542 96.0951595,36.3932542 C96.0951595,36.2129492 96.0345525,36.2129492 95.8531907,36.2129492 C96.0345525,36.0921356 95.9137977,35.8518814 95.6116809,35.9118305 C95.6116809,35.6111695 95.6116809,35.4304068 95.3100233,35.4304068 C95.5515331,31.6993729 96.0951595,29.1718983 96.8192296,25.0797966 C96.9404436,25.0198475 96.8192296,25.0198475 96.8192296,25.0797966 C96.8192296,21.2883559 97.7251206,18.2799153 97.7251206,14.6692373 C98.8119144,13.1645593 100.56263,13.766339 102.555315,13.8267458 C102.555315,13.9466441 102.796825,13.8866949 102.736677,14.1274068 C102.977728,13.766339 103.159089,14.4285254 103.642109,14.2477627 C103.762864,14.6692373 103.944226,14.9698983 104.30649,15.0303051 C104.30649,15.571678 104.30649,15.6920339 104.608148,16.0531017 C104.668755,17.256661 104.547541,18.5805763 104.366179,20.0847966 C104.970412,19.6637797 105.876304,19.3027119 106.781735,19.4834746 C106.781735,19.5434237 106.90249,19.5434237 106.963097,19.5434237 L106.963097,19.5434237 Z" id="Fill-10" fill="#FFFFFF" mask="url(#mask-4)"/>
                <path d="M76.616344,53.0956831 C75.8032,54.1807169 74.6475346,52.9551915 75.2251377,52.0911915 C75.6746397,51.6893949 76.2527019,52.1914119 76.616344,52.3319034 L76.616344,53.0956831 Z" id="Fill-11" fill="#FFFFFF" mask="url(#mask-4)"/>
                <path d="M84.1055331,43.9944407 L84.2340934,43.9944407 L84.2340934,43.8740847 L84.1055331,43.8740847 L84.1055331,43.9944407 Z M83.7207704,43.8338136 C83.7634708,43.8338136 83.8493307,43.8338136 83.8493307,43.7738644 C83.7634708,43.7738644 83.7207704,43.7738644 83.7207704,43.8338136 L83.7207704,43.8338136 Z M83.6137899,43.1908475 C83.52793,43.1107627 83.52793,43.1908475 83.6137899,43.1908475 C83.6564903,43.2915254 83.6564903,43.1908475 83.6137899,43.1908475 L83.6137899,43.1908475 Z M83.6564903,43.7738644 C83.52793,43.7738644 83.5068093,43.8338136 83.4214086,43.8740847 C83.52793,43.8740847 83.7207704,43.9546271 83.6564903,43.7738644 L83.6564903,43.7738644 Z M83.8493307,44.175661 C83.7634708,44.175661 83.7634708,44.195339 83.8493307,44.195339 L83.8493307,44.2758814 C83.52793,44.3161525 83.52793,44.3765593 83.3139689,44.4969153 C82.9287471,44.175661 82.351144,44.7380847 81.8805214,44.6374068 C81.8805214,44.7380847 82.1583035,44.5975932 82.0297432,44.8186271 C81.8805214,44.9188475 81.7946615,44.8584407 81.538,44.9188475 C81.538,44.9591186 81.6449805,44.9591186 81.6872218,45.0392034 C81.1100778,45.5819492 80.2964747,45.822661 80.0398132,46.5864407 C80.0398132,46.9076949 79.8469728,47.0884576 79.6761712,47.3094915 C79.3763502,48.2137627 79.0981089,49.1981186 79.2693696,50.1422034 C80.2964747,51.8702034 83.5068093,51.0464746 84.7689961,50.3833729 C85.004537,50.2428814 85.2400778,50.1422034 85.3470584,49.8410847 C85.8392607,50.0218475 86.0748016,50.4639153 86.3098833,50.8858475 L86.2029027,50.8858475 C86.2029027,50.925661 86.3098833,50.925661 86.3098833,50.8858475 C86.3957432,50.8858475 86.3957432,50.925661 86.3957432,51.0062034 C86.3957432,51.2272373 86.2671829,51.0062034 86.0748016,51.0464746 C86.2029027,51.1466949 86.2671829,51.2473729 86.3098833,51.4281356 C86.2029027,51.6491695 85.967821,51.6894407 85.8181401,51.789661 C85.8181401,51.8702034 85.9251206,51.8702034 85.967821,51.8702034 C85.7322802,52.0106949 85.4967393,52.1914576 85.2611984,52.1310508 C85.1115175,52.5529831 84.3410739,52.1914576 84.4696342,52.6737966 C84.3410739,52.7342034 83.9985525,52.5529831 84.0844125,52.7740169 C83.0788872,52.8746949 81.538,53.0957288 80.3818755,52.9950508 C80.0609339,52.8746949 79.9117121,52.7342034 79.6118911,52.7342034 C79.3763502,52.4527627 79.2266693,52.4527627 78.8841479,52.2317288 C78.8841479,52.1914576 78.9911284,52.1310508 78.9911284,52.0912373 C78.648607,52.1310508 78.6913074,51.6894407 78.4130661,51.6491695 C77.7284825,50.162339 77.3005603,47.7918305 78.1775253,46.2249153 C78.3065447,45.8029831 78.648607,45.0392034 79.0981089,44.8186271 C79.6761712,43.9948983 80.425035,43.3317966 81.538,43.0100847 C81.5807004,43.0100847 81.5807004,42.9098644 81.5807004,42.8695932 C82.1156031,42.7492373 82.9503268,42.3675763 83.4214086,42.1465424 C84.4696342,42.1465424 84.5766148,42.8695932 85.1115175,43.4118814 C85.1115175,43.5528305 85.0476965,43.6329153 85.004537,43.7335932 C85.1115175,43.7335932 85.154677,43.6329153 85.3470584,43.6530508 C85.3470584,44.0548475 85.2611984,44.175661 85.154677,44.4969153 C84.7689961,44.175661 84.2340934,44.195339 83.8493307,44.195339 L83.8493307,44.175661 Z" id="Fill-12" fill="#FFFFFF" mask="url(#mask-4)"/>
                <path d="M95.7889105,48.9369508 C95.7889105,48.977222 95.7889105,48.977222 95.7030506,48.977222 C95.7030506,48.9369508 95.7030506,48.9369508 95.7889105,48.9369508 L95.7889105,48.9369508 Z M95.0827471,44.9189847 C95.1254475,44.9189847 95.2108482,44.9189847 95.2108482,44.858578 C95.1254475,44.858578 95.0827471,44.858578 95.0827471,44.9189847 L95.0827471,44.9189847 Z M94.6759455,44.738222 C94.7402257,44.738222 94.7829261,44.738222 94.7829261,44.7180864 C94.7402257,44.7180864 94.6759455,44.7180864 94.6759455,44.738222 L94.6759455,44.738222 Z M94.3123035,45.2603746 C94.2907237,45.1802898 94.2907237,45.2603746 94.3123035,45.2603746 C94.3123035,45.4612729 94.5478444,45.2603746 94.3123035,45.2603746 L94.3123035,45.2603746 Z M93.2851984,44.1954763 C93.3490195,44.1954763 93.392179,44.3162898 93.392179,44.1954763 C93.392179,44.1757983 93.2851984,44.1757983 93.2851984,44.1954763 L93.2851984,44.1954763 Z M92.7071362,43.8339508 C92.7714163,43.8339508 92.8141167,43.9547644 92.8141167,43.8339508 C92.8141167,43.7735441 92.7071362,43.7735441 92.7071362,43.8339508 L92.7071362,43.8339508 Z M90.1602646,45.6219 C90.2461245,45.6219 90.2461245,45.6219 90.2461245,45.5820864 C90.1602646,45.5820864 90.1602646,45.4612729 90.1180233,45.4612729 C90.1180233,45.5015441 90.053284,45.5820864 90.053284,45.6219 L90.1602646,45.6219 Z M89.5399611,49.3790186 C89.5399611,49.2984763 89.5826615,49.2984763 89.5826615,49.2582051 C89.689642,49.2984763 89.6680623,49.5195102 89.5399611,49.3790186 L89.5399611,49.3790186 Z M91.2732296,44.4970525 C90.6956265,44.9189847 90.5881868,45.6823068 90.1602646,46.2245949 C90.3531051,46.1646458 90.2461245,46.3454085 90.1602646,46.3454085 C90.053284,46.2648661 90.0105837,46.1646458 89.8182023,46.1646458 C89.8182023,46.3454085 90.053284,46.3454085 90.1180233,46.4456288 C90.2461245,46.9078322 89.689642,47.249222 89.8824825,47.7516966 C89.4329805,47.9727305 89.8182023,48.5351542 89.5399611,48.7159169 C89.689642,48.8362729 89.5826615,48.8765441 89.6680623,49.0774424 C89.5826615,49.1982559 89.4756809,49.1982559 89.4756809,49.2984763 C89.689642,49.9213068 89.689642,50.2430186 89.689642,51.0063407 C89.8182023,51.0461542 89.9251829,51.106561 89.8824825,51.2475102 C90.2672451,51.7696627 90.9307082,51.5486288 91.4229105,51.4680864 C91.615751,51.4680864 92.4288949,51.2273746 92.5785759,51.0461542 C92.7071362,50.9257983 92.6644358,50.7853068 92.7714163,50.6846288 C93.3490195,50.0219847 93.8201012,49.4192898 93.8628016,48.5351542 C93.9697821,48.5351542 93.9697821,48.5150186 94.055642,48.4344763 C94.205323,47.1288661 94.0978833,45.722578 93.392179,44.9189847 C93.5845603,44.858578 93.3490195,44.7180864 93.3490195,44.5972729 C93.2420389,44.5368661 93.1350584,44.738222 93.1350584,44.5972729 C93.1350584,44.4165102 93.2851984,44.4165102 93.3490195,44.3766966 C93.2420389,44.2760186 93.2420389,44.4165102 93.0496576,44.3766966 C93.0496576,44.1757983 92.7071362,44.1954763 92.8995175,43.9547644 C92.5785759,44.1757983 92.5785759,43.8339508 92.2365136,43.9547644 C92.2365136,43.7735441 92.3646148,43.8339508 92.2365136,43.7337305 C91.4229105,43.5126966 91.615751,44.2760186 91.166249,44.3766966 C91.2089494,44.3766966 91.2732296,44.4165102 91.2732296,44.4970525 L91.2732296,44.4970525 Z M89.3044202,49.2582051 C89.2401401,49.3790186 89.4329805,49.5195102 89.4329805,49.3790186 C89.3475798,49.3790186 89.3475798,49.2582051 89.3044202,49.2582051 L89.3044202,49.2582051 Z M89.2405992,47.7516966 L89.3475798,47.7516966 L89.3475798,47.6308831 L89.2405992,47.6308831 L89.2405992,47.7516966 Z M93.2851984,43.1909847 C93.4775798,43.0907644 93.6277198,43.2916627 93.7342412,43.3314763 C93.6277198,43.4120186 93.7342412,43.4120186 93.7342412,43.3314763 C94.0978833,43.5525102 94.5478444,43.6531881 94.6759455,44.0952559 C94.7402257,44.0952559 94.8683268,44.0952559 94.8683268,44.0549847 C94.9757665,44.0549847 94.8899066,44.2760186 94.8683268,44.3162898 C94.8899066,44.4165102 95.1254475,44.3766966 95.2108482,44.4970525 C95.0184669,44.7180864 95.3182879,44.858578 95.4463891,44.9592559 C95.2108482,45.1802898 95.6603502,45.3610525 95.3609883,45.5820864 C95.3609883,45.6823068 95.4675097,45.5820864 95.4675097,45.5015441 C95.6603502,45.5820864 95.4463891,45.722578 95.4463891,45.8227983 C95.4463891,45.9436119 95.6603502,46.003561 95.6603502,45.9033407 C95.7889105,46.0438322 95.8958911,46.4859 95.5965292,46.4859 C95.7030506,46.6666627 96.0244514,46.9879169 95.7889105,47.1288661 C95.9385914,47.249222 95.7030506,47.4501203 96.0244514,47.4501203 C96.0244514,47.5306627 95.8958911,47.5709339 96.0244514,47.5709339 C95.8316109,47.7919678 96.0244514,48.1736288 96.0244514,48.4344763 C95.9385914,48.4344763 95.8958911,48.4344763 95.8316109,48.3942051 C95.9385914,48.615239 96.045572,48.7561881 95.8316109,49.0774424 C95.8316109,49.0573068 95.8316109,48.9369508 95.7889105,48.9369508 C95.7889105,48.8765441 95.7889105,48.8765441 95.7030506,48.8765441 C95.6603502,48.8765441 95.6603502,48.977222 95.7030506,48.977222 C95.7030506,49.0573068 95.7889105,49.0774424 95.8316109,49.0774424 C95.6603502,49.8009508 95.4675097,50.8251203 94.8683268,51.3678661 C94.7829261,51.3275949 94.7829261,51.3678661 94.8683268,51.3678661 C94.8683268,51.5889 94.6332451,51.7897983 94.5046848,51.6891203 C94.3123035,51.7696627 94.6332451,51.7897983 94.5478444,51.9101542 C94.2907237,52.0913746 93.8628016,52.1915949 93.7342412,52.5128492 C93.3490195,52.5128492 92.7714163,52.9549169 92.4715953,53.0555949 C91.8512918,53.0958661 91.2732296,53.216222 90.3958054,53.1759508 C90.3958054,53.0958661 90.3531051,53.0555949 90.3531051,52.9549169 C90.2461245,53.0555949 90.1180233,52.8546966 90.053284,53.0555949 C89.8824825,53.0555949 89.9251829,52.8546966 89.689642,52.8748322 L89.689642,52.7741542 C87.8489339,51.7897983 87.7424125,49.0573068 87.9347938,47.1288661 C87.9559144,47.1288661 88.0417743,47.1288661 88.0417743,47.0885949 C87.7424125,46.8876966 88.2773152,46.0438322 88.149214,45.722578 C88.6193774,45.1802898 88.5339767,44.0952559 89.3044202,43.7337305 C89.3044202,43.1909847 89.9251829,42.8697305 90.053284,42.2066288 C91.0376887,42.1064085 92.0868327,42.4276627 92.7071362,42.9100017 C92.8141167,43.0907644 93.3490195,42.8697305 93.2851984,43.1909847 L93.2851984,43.1909847 Z" id="Fill-13" fill="#FFFFFF" mask="url(#mask-4)"/>
                <path d="M107.001528,53.2764 C107.108049,53.2159932 107.044228,53.2159932 107.001528,53.2764 C106.808687,53.2159932 107.001528,53.4168915 107.001528,53.2764 M105.760461,50.283061 C105.845862,50.283061 105.888563,50.3430102 105.888563,50.283061 C105.845862,50.2427898 105.760461,50.2427898 105.760461,50.283061 M107.34359,51.5886712 C107.47215,51.7694339 107.237068,51.8701119 107.47215,51.9703322 C107.27931,52.7739254 107.621831,52.9551458 107.47215,53.7184678 C107.34359,53.7184678 107.237068,53.758739 107.151209,53.8589593 C106.423465,53.8589593 105.845862,53.6379254 105.3105,53.2159932 C105.374781,53.0956373 105.3105,53.0553661 105.268259,53.0553661 C105.032718,50.785078 104.732897,47.9725017 104.262275,45.5013153 C103.812773,45.8230271 103.877053,46.4856712 103.577232,46.7671119 C103.298991,47.791739 102.956928,48.5353831 103.063909,49.9618068 C102.657107,50.6848576 101.565722,50.2427898 101.1378,49.9215356 C101.03036,48.4347051 100.559738,47.0284169 100.303076,45.5013153 C99.7677144,46.6668915 99.6396132,48.7161458 99.1901113,49.5998237 C99.2543914,49.6199593 99.2543914,49.800722 99.2970918,49.8409932 C98.91187,50.785078 99.061551,52.0911458 98.5693486,52.9551458 C97.8631852,53.0956373 97.0927416,52.8544678 96.5151385,52.6334339 C96.4935588,52.513078 96.6005393,52.2316373 96.4935588,52.2316373 C96.5151385,52.1314169 96.707979,52.0106034 96.8360802,51.9103831 C97.2213019,50.5640441 97.4141424,49.1980271 97.9063447,47.8924169 C97.8631852,47.8521458 97.9063447,47.6713831 97.7989051,47.6311119 C97.8631852,47.6311119 97.9917455,47.5308915 98.0344459,47.4503492 C97.9063447,46.7067051 98.4412475,45.4615017 98.4839479,44.7178576 C98.8264693,44.1755695 99.0193097,43.4525186 99.4040724,42.9701797 C99.5326327,42.9701797 99.5326327,42.9097729 99.5326327,42.8695017 C100.217675,42.8695017 100.538158,42.7894169 101.223201,42.9701797 C101.565722,43.552739 102.079045,44.316061 102.271886,45.2601458 C103.063909,44.3764678 103.106609,42.7894169 104.262275,42.1061797 C104.390376,42.1464508 104.497816,42.2068576 104.690197,42.3272136 C105.032718,42.2471288 105.182399,42.1464508 105.653022,42.2471288 C105.888563,42.4677051 106.080944,42.7491458 106.316485,43.0905356 C106.573146,44.8588068 106.765987,47.0888237 106.915668,48.9769932 C106.915668,49.0575356 107.044228,49.0575356 107.108049,49.0575356 C107.044228,49.7407729 107.237068,50.7049932 107.386749,51.3680949 C107.47215,51.5886712 107.108049,51.4683153 107.27931,51.649078 C107.237068,51.7694339 107.34359,51.649078 107.34359,51.5886712" id="Fill-14" fill="#FFFFFF" mask="url(#mask-4)"/>
                <path d="M70.9295245,48.1605864 C70.9648786,47.5107559 70.5870031,47.2270271 70.0153689,47.0009593 C68.45933,46.6179254 67.0552677,45.790078 66.2255946,44.5773661 C65.7614,43.8982475 64.2797424,43.8213661 63.8430965,44.5773661 C61.9045907,47.9368068 56.276863,48.0635695 54.1262327,44.7672814 C53.4981237,43.8044339 51.8263805,44.3421458 51.7396023,45.2825695 C51.6036957,46.7524678 49.3185362,47.4956542 47.7133689,47.3139763 C45.6940537,47.0856203 44.030116,45.8106712 42.7679292,44.6286203 C42.1228319,44.0240949 40.818863,44.3714339 40.5856179,45.088078 C39.9868942,46.9263661 37.8330498,48.3454678 35.3977502,48.2699593 C32.9036802,48.1926203 30.8871198,46.5890949 30.4523105,44.683078 C30.2479914,43.7856712 28.7227152,43.9728407 28.4003961,44.683078 C27.7534623,46.1040102 26.4384739,47.599078 24.4834389,47.9615186 C22.499937,48.3294508 20.0949409,46.8915864 20.6445362,45.1773153 C20.873649,44.4634169 19.6445206,44.0478915 19.1587463,44.6775864 C17.7941704,46.4476881 15.8363805,48.1038407 12.8859214,47.8512305 C11.9717658,47.7729763 11.9988553,48.8905017 12.8859214,48.9829424 C15.4497813,49.249739 17.425937,47.9871458 18.9677424,46.4733153 C19.5944739,47.8910441 21.568793,49.2039763 23.5412755,49.3229593 C26.0188163,49.4726034 27.8485051,48.0516712 29.1634934,46.492078 C30.3912444,48.2772814 32.6773222,49.5691627 35.3169409,49.6835695 C38.1319525,49.8052983 40.6746918,48.5427051 42.1108942,46.7039593 C43.9401237,48.153722 46.3024195,49.2076373 48.9677502,48.936722 C50.7896335,48.7518407 52.3034311,48.0031627 53.2396257,46.8957051 C56.4196568,49.5728237 62.0519759,49.4359932 65.0318202,46.5588915 C66.5015401,47.8498576 67.8036724,48.625078 70.0162872,48.7994339 C70.3565128,48.6822814 70.9106996,48.5033492 70.9295245,48.1605864" id="Fill-15" fill="#FFFFFF" mask="url(#mask-4)"/>
            </g>
        </g>
    </g>
</svg>
