<?xml version="1.0" encoding="UTF-8"?>
<svg xmlns="http://www.w3.org/2000/svg" xmlns:xlink="http://www.w3.org/1999/xlink" width="27px" height="22px" viewBox="0 0 27 22" version="1.1">
    <!-- Generator: Sketch 44.1 (41455) - http://www.bohemiancoding.com/sketch -->
    <title>Group 8</title>
    <desc>Created with Sketch.</desc>
    <defs/>
    <g id="SR---Hotels" stroke="none" stroke-width="1" fill="none" fill-rule="evenodd">
        <g transform="translate(-1129.000000, -298.000000)" id="Group-8">
            <g transform="translate(1129.000000, 299.000000)">
                <rect id="Rectangle-13" stroke="#CACACA" stroke-width="3" x="3.5" y="7.5" width="22" height="12"/>
                <polygon id="Rectangle-14" fill="#FFFFFF" points="0 4 17 4 16 16 6.29516602 13.6467285 2.29052734 9.35351562"/>
                <path d="M13.8173452,5.57354701 C13.8065527,3.09915295 11.8727741,1.091361 9.49844188,1.08922622 C7.12921259,1.08709144 5.18587328,3.10574027 5.18053573,5.57452291 C5.17519817,8.03934096 7.14088483,10.0894626 9.50542176,10.0687247 C11.9230996,10.0474989 13.8042066,8.03531538 13.8173452,5.57354701 L13.8173452,5.57354701 Z M9.42518247,16 C9.36236355,15.8841729 9.27989539,15.7751161 9.23995171,15.6512378 C9.04404584,15.0439231 8.77716808,14.470582 8.48178426,13.9113303 C7.93917193,12.8841348 7.27174291,11.9427574 6.6161621,10.9929019 C6.0634612,10.192054 5.5088247,9.39181616 4.983926,8.57132837 C4.60537017,7.97962809 4.3007776,7.34212151 4.11918341,6.64996455 C3.95753174,6.03380578 3.97811946,5.4129505 4.07542719,4.78959447 C4.19437842,4.02796563 4.45527342,3.32415886 4.85212945,2.67268472 C5.32670262,1.89367266 5.94550709,1.27190247 6.7077217,0.801091788 C7.44553606,0.345346559 8.24276737,0.0911856421 9.0962483,0.0205548906 C9.13249676,0.0175661973 9.16810001,0.00701428016 9.20399653,0 L9.79388436,0 C10.0001134,0.0295819642 10.2068117,0.0558702663 10.4125129,0.0892338424 C11.1465147,0.208293624 11.822214,0.487949924 12.4482916,0.900084629 C13.0964819,1.32673584 13.6346365,1.87445963 14.0633419,2.53361899 C14.4685855,3.15673104 14.7509481,3.84071485 14.8890207,4.57916606 C15.0292635,5.32920609 15.0646907,6.08113692 14.8277854,6.8248336 C14.6333459,7.43538094 14.3599575,8.00799018 14.0148347,8.53534206 C13.4492298,9.39962336 12.8601632,10.2477413 12.2654657,11.0907358 C11.6797423,11.9210436 11.1005882,12.7557429 10.6102957,13.6510701 C10.2395995,14.3279176 9.92304146,15.0328223 9.69833626,15.7795076 C9.67376004,15.8613002 9.5993862,15.9268685 9.54806355,16 L9.42518247,16 Z" id="Fill-1" stroke="#CACACA" fill="#CACACA"/>
            </g>
        </g>
    </g>
</svg>
