<?xml version="1.0" encoding="UTF-8"?>
<svg xmlns="http://www.w3.org/2000/svg" xmlns:xlink="http://www.w3.org/1999/xlink" width="20px" height="20px" viewBox="0 0 20 20" version="1.1">
    <!-- Generator: Sketch 44.1 (41455) - http://www.bohemiancoding.com/sketch -->
    <title>Fill 1</title>
    <desc>Created with Sketch.</desc>
    <defs/>
    <g id="Symbols" stroke="none" stroke-width="1" fill="none" fill-rule="evenodd">
        <g id="Mobile-Menu" fill="#42B299">
            <g id="Group-3">
                <g id="Page-1">
                    <path d="M4.22059375,0 C4.60873452,0.131128638 4.84651445,0.414366495 5.03184293,0.765791244 C5.7276989,2.0980582 6.43054839,3.42508002 7.13164951,4.7555986 C7.42712604,5.31682916 7.35719077,5.83085342 6.91310178,6.29067785 C6.61412849,6.60014143 6.31165843,6.90435987 6.00044646,7.20158478 C5.80987284,7.38516488 5.73294404,7.59322232 5.8430921,7.83449901 C6.05289792,8.29432343 6.2277361,8.78212196 6.5074772,9.19648846 C7.76456374,11.0690054 9.32586872,12.6390523 11.2788112,13.7877392 C11.5830297,13.9660741 11.9344544,14.0639835 12.2683953,14.1881186 C12.4712076,14.263299 12.6338071,14.1758799 12.7754261,14.0307642 C13.1163605,13.6810879 13.4590434,13.3331599 13.8034746,12.9852319 C14.2877764,12.495685 14.936426,12.4117627 15.5308759,12.7631874 C16.8036978,13.5132432 18.0765198,14.263299 19.345845,15.0186 C19.4944575,15.1077674 19.6413216,15.2126704 19.7602115,15.3385539 C20.0749202,15.6672496 20.0906557,16.135816 19.8161597,16.497731 C19.753218,16.579905 19.6815343,16.6568338 19.6081023,16.7302658 C18.7304146,17.6027083 17.8474818,18.4699057 16.9767876,19.3493418 C16.4715053,19.8581209 15.8735587,20.0347075 15.1672124,19.9944947 C13.4433079,19.8948369 11.8907449,19.2759097 10.3976268,18.4629122 C8.49363896,17.4261218 6.84841165,16.0553904 5.32382269,14.5255563 C3.97232353,13.1670636 2.7624433,11.7019196 1.78160109,10.0496988 C0.98084221,8.70344478 0.379398859,7.27851359 0.096161001,5.73119566 C0.0611933643,5.54062204 0.0314708731,5.35004842 0,5.1594748 C0,4.88497885 0,4.61223128 0,4.33773534 C0.0804255645,3.70482111 0.431850314,3.23800316 0.879436064,2.80615285 C1.6749498,2.04210998 2.44773457,1.25184139 3.22401611,0.468566332 C3.43382193,0.25701213 3.65062127,0.0716836553 3.94784619,0 L4.22059375,0 Z" id="Fill-1"/>
                </g>
            </g>
        </g>
    </g>
</svg>
