<?xml version="1.0" encoding="UTF-8"?>
<svg xmlns="http://www.w3.org/2000/svg" xmlns:xlink="http://www.w3.org/1999/xlink" width="16px" height="21px" viewBox="0 0 16 21" version="1.1">
    <!-- Generator: Sketch 45.2 (43514) - http://www.bohemiancoding.com/sketch -->
    <title>Fill 1</title>
    <desc>Created with Sketch.</desc>
    <defs/>
    <g id="Index" stroke="none" stroke-width="1" fill="none" fill-rule="evenodd">
        <g id="Sticky-Header" transform="translate(-1329.000000, -20.000000)" stroke="#373737" stroke-width="0.4" fill="#373737">
            <path d="M1338.84578,39.1586789 C1337.91198,38.3072685 1337.17043,37.1056811 1336.45291,36.072316 C1334.95951,33.9300575 1333.65836,31.6676402 1332.5426,29.3056628 C1331.94867,28.0491458 1331.35818,26.768597 1330.86381,25.4674496 C1330.60976,24.7911276 1330.47587,24.0736083 1331.0286,23.5071457 C1331.43714,23.0883067 1332.0242,22.8651547 1332.55976,22.6660346 C1333.27728,22.3982522 1334.01883,22.0515085 1334.75695,21.8592545 C1334.95264,21.8077579 1335.39208,21.6738667 1335.58776,21.842089 C1335.71136,21.9485153 1335.78688,22.3089915 1335.85211,22.4669144 C1336.00317,22.8205244 1336.15079,23.1741343 1336.29842,23.5277443 C1336.5559,24.1388373 1337.34895,25.319826 1336.75159,25.8897217 C1336.30872,26.3154269 1335.37148,26.4321526 1334.80502,26.607241 C1334.64709,26.6553045 1334.575,26.7788963 1334.57156,26.9059213 C1334.47544,27.0157807 1334.43424,27.1702705 1334.5235,27.3350596 C1335.93107,29.8858579 1337.33865,32.4366561 1338.74966,34.9840212 C1338.86638,35.200307 1339.1582,35.200307 1339.32298,35.0458172 C1339.78302,34.6166788 1340.30142,34.1600756 1340.87132,33.8785609 C1341.32105,33.6588421 1341.58197,33.6588421 1341.90468,34.0193183 C1342.145,34.2871006 1342.38188,34.558316 1342.60847,34.8363977 C1342.96894,35.2689691 1343.66243,35.9212594 1343.85812,36.456824 C1344.16023,37.2704703 1343.07194,37.8232004 1342.51577,38.2489057 C1341.50301,39.0247878 1340.0611,40.2675724 1338.84578,39.1586789 Z M1343.03074,34.2012729 C1342.60847,33.7000393 1342.02484,32.690706 1341.23866,32.88296 C1340.50054,33.0649146 1339.75556,33.6657083 1339.15476,34.2115722 C1337.86048,31.8667604 1336.5662,29.5219485 1335.27535,27.1771367 C1336.34991,26.8715902 1338.00124,26.4699167 1337.64763,25.062343 C1337.42104,24.159436 1336.91294,23.2633951 1336.55247,22.4051185 C1336.31902,21.8523883 1336.13706,21.0318758 1335.40238,21.0009778 C1335.02473,20.9838123 1334.62649,21.1966649 1334.29005,21.3236899 C1333.83345,21.4919121 1333.37684,21.6601343 1332.91681,21.8283565 C1332.19585,22.0927057 1331.41311,22.3398894 1330.80201,22.8239575 C1329.42534,23.9191185 1330.11883,25.4331185 1330.68872,26.7788963 C1332.20615,30.3664928 1333.94674,33.8236312 1336.22289,36.9992548 C1336.73442,37.7167741 1337.26655,38.420561 1337.82272,39.1037492 C1338.29305,39.6805111 1338.81832,40.2092096 1339.58733,40.3259352 C1341.21806,40.576552 1342.76639,38.9973229 1343.93365,38.0806834 C1344.43831,37.6858762 1344.93611,37.1606109 1344.69923,36.4671233 C1344.41428,35.6363115 1343.5869,34.8672956 1343.03074,34.2012729 Z" id="Fill-1"/>
        </g>
    </g>
</svg>
