<?xml version="1.0" encoding="UTF-8"?>
<svg xmlns="http://www.w3.org/2000/svg" xmlns:xlink="http://www.w3.org/1999/xlink" width="20px" height="25px" viewBox="0 0 20 25" version="1.1">
    <!-- Generator: Sketch 45.2 (43514) - http://www.bohemiancoding.com/sketch -->
    <title>Fill 1</title>
    <desc>Created with Sketch.</desc>
    <defs>
        <filter x="-0.6%" y="-15.0%" width="101.2%" height="145.0%" filterUnits="objectBoundingBox" id="filter-1">
            <feOffset dx="0" dy="2" in="SourceAlpha" result="shadowOffsetOuter1"/>
            <feGaussianBlur stdDeviation="1" in="shadowOffsetOuter1" result="shadowBlurOuter1"/>
            <feColorMatrix values="0 0 0 0 0   0 0 0 0 0   0 0 0 0 0  0 0 0 0.211390399 0" type="matrix" in="shadowBlurOuter1" result="shadowMatrixOuter1"/>
            <feMerge>
                <feMergeNode in="shadowMatrixOuter1"/>
                <feMergeNode in="SourceGraphic"/>
            </feMerge>
        </filter>
    </defs>
    <g id="Index" stroke="none" stroke-width="1" fill="none" fill-rule="evenodd">
        <g id="Index---Hotels" transform="translate(-1335.000000, -31.000000)" stroke="#FFFFFF" stroke-width="0.4" fill="#FFFFFF">
            <g id="Group-28" transform="translate(233.000000, 32.000000)">
                <g id="Group-8" filter="url(#filter-1)" transform="translate(449.000000, 0.000000)">
                    <g id="Group-2" transform="translate(656.000000, 0.000000)">
                        <path d="M8.8457825,18.1586789 C7.91197749,17.3072685 7.17042645,16.1056811 6.45290716,15.072316 C4.95950576,12.9300575 3.65835834,10.6676402 2.54259868,8.30566283 C1.94867123,7.04914579 1.35817688,5.76859701 0.863809523,4.46744959 C0.60975963,3.79112758 0.475868471,3.07360829 1.02859864,2.50714569 C1.43713833,2.08830668 2.02419957,1.86515474 2.55976421,1.66603456 C3.2772835,1.39825224 4.01883454,1.05150847 4.75695247,0.859254495 C4.95263955,0.807757895 5.3920772,0.673866735 5.58776428,0.842088961 C5.71135612,0.948515268 5.78688447,1.30899147 5.85211349,1.46691437 C6.00317019,1.82052436 6.15079377,2.17413434 6.29841736,2.52774433 C6.55590036,3.13883731 7.34894799,4.319826 6.75158744,4.88972171 C6.30871668,5.31542693 5.37147856,5.43215256 4.80501596,5.607241 C4.64709306,5.65530449 4.57499782,5.77889633 4.57156471,5.90592128 C4.47543772,6.01578069 4.43424044,6.17027049 4.52350122,6.33505961 C5.93107495,8.88585785 7.33864867,11.4366561 8.74965551,13.9840212 C8.86638114,14.200307 9.1581952,14.200307 9.32298432,14.0458172 C9.78302061,13.6166788 10.3014197,13.1600756 10.8713154,12.8785609 C11.3210524,12.6588421 11.5819685,12.6588421 11.9046805,13.0193183 C12.144998,13.2871006 12.3818824,13.558316 12.6084674,13.8363977 C12.9689436,14.2689691 13.6624311,14.9212594 13.8581182,15.456824 C14.1602316,16.2704703 13.0719368,16.8232004 12.5157735,17.2489057 C11.503007,18.0247878 10.0611023,19.2675724 8.8457825,18.1586789 Z M13.0307395,13.2012729 C12.6084674,12.7000393 12.0248393,11.690706 11.2386578,11.88296 C10.5005399,12.0649146 9.75555576,12.6657083 9.15476209,13.2115722 C7.86048089,10.8667604 6.56619968,8.52194855 5.27535157,6.1771367 C6.34991396,5.87159021 8.00123826,5.46991673 7.64762827,4.062343 C7.42104323,3.15943595 6.91294345,2.26339512 6.55246725,1.40511845 C6.319016,0.852388281 6.13706134,0.0318757908 5.40237652,0.000977830941 C5.02473479,-0.0161877023 4.62649442,0.19666491 4.29004996,0.323689857 C3.83344678,0.491912083 3.37684359,0.660134309 2.9168073,0.828356535 C2.1958549,1.09270575 1.41310659,1.33988943 0.802013603,1.82395746 C-0.574662166,2.91911849 0.118825378,4.43311852 0.688721083,5.77889633 C2.20615422,9.36649279 3.9467393,12.8236312 6.22288901,15.9992548 C6.7344219,16.7167741 7.26655343,17.420561 7.82271671,18.1037492 C8.29305232,18.6805111 8.81831764,19.2092096 9.58733353,19.3259352 C11.2180592,19.576552 12.7663903,17.9973229 13.9336466,17.0806834 C14.4383132,16.6858762 14.9361137,16.1606109 14.6992293,15.4671233 C14.4142815,14.6363115 13.5869028,13.8672956 13.0307395,13.2012729 Z" id="Fill-1"/>
                    </g>
                </g>
            </g>
        </g>
    </g>
</svg>
