<?xml version="1.0" encoding="UTF-8"?>
<svg xmlns="http://www.w3.org/2000/svg" xmlns:xlink="http://www.w3.org/1999/xlink" width="17px" height="17px" viewBox="0 0 17 17" version="1.1">
    <!-- Generator: Sketch 44.1 (41455) - http://www.bohemiancoding.com/sketch -->
    <title>Fill 1</title>
    <desc>Created with Sketch.</desc>
    <defs/>
    <g id="SR---Hotel-+-Flights" stroke="none" stroke-width="1" fill="none" fill-rule="evenodd">
        <g id="SR---Hotel-+-Flights-Calendar" transform="translate(-1037.000000, -951.000000)" fill="#6522FF">
            <path d="M1054,959.569474 C1053.95318,959.742562 1053.83082,959.853247 1053.6976,959.956872 C1053.29427,960.270579 1052.8452,960.473416 1052.34045,960.536849 C1052.19512,960.555088 1052.04762,960.559538 1051.901,960.561376 C1051.51647,960.566267 1051.13191,960.566488 1050.74738,960.568142 C1050.44491,960.569466 1050.14239,960.571415 1049.83992,960.570937 C1049.31561,960.570128 1048.7913,960.56851 1048.26699,960.565164 C1048.1482,960.564392 1048.05758,960.61021 1047.98447,960.705488 C1047.24293,961.671833 1046.50046,962.637444 1045.75785,963.602944 C1045.08731,964.474784 1044.41641,965.346367 1043.74543,966.217913 C1043.3165,966.775054 1042.88695,967.33168 1042.45827,967.889004 C1042.40158,967.962696 1042.3366,968.000903 1042.23798,967.999984 C1041.72228,967.995167 1041.20654,967.997741 1040.69077,967.997741 L1040.6379,967.997741 C1041.56197,965.520117 1042.48409,963.047715 1043.40885,960.568216 C1043.38371,960.568216 1043.36696,960.568179 1043.35017,960.568216 C1042.82586,960.569209 1042.30152,960.571856 1041.77721,960.570569 C1041.49789,960.569871 1041.21818,960.570606 1040.93947,960.555346 C1040.72582,960.543652 1040.51342,960.507982 1040.30045,960.48283 C1040.26756,960.478969 1040.23486,960.473674 1040.20194,960.470144 C1040.13711,960.463157 1040.13707,960.463451 1040.11406,960.405792 C1040.0789,960.4572 1040.04458,960.505445 1040.01223,960.555051 C1039.50791,961.328047 1039.00294,962.100601 1038.50071,962.874994 C1038.42706,962.988548 1038.33579,963.043045 1038.19982,963.041096 C1037.81386,963.03558 1037.42778,963.038338 1037.04174,963.03786 L1037,963.03786 C1037.00688,963.018444 1037.01192,963.002816 1037.01786,962.987592 C1037.34613,962.147744 1037.67472,961.308079 1038.00259,960.468084 C1038.10477,960.206301 1038.20483,959.943634 1038.30607,959.681446 C1038.35254,959.561053 1038.35297,959.440586 1038.30611,959.320597 C1037.89724,958.273278 1037.48797,957.226106 1037.07946,956.178641 C1037.05305,956.110979 1037.03191,956.041185 1037.00551,955.964257 L1037.05846,955.964257 C1037.35521,955.964257 1037.65199,955.963742 1037.94874,955.964514 C1038.06249,955.964808 1038.17623,955.97003 1038.2899,955.969037 C1038.34411,955.968559 1038.38697,955.989078 1038.41784,956.029969 C1038.47399,956.104323 1038.52773,956.18081 1038.57891,956.258841 C1039.05539,956.985504 1039.531,957.712754 1040.00715,958.439674 C1040.04389,958.495789 1040.08261,958.55058 1040.11834,958.602944 C1040.20831,958.568599 1040.29404,958.53087 1040.38271,958.50307 C1040.55477,958.449161 1040.73313,958.433496 1040.91192,958.433165 C1041.72293,958.431547 1042.53398,958.43243 1043.34502,958.43243 L1043.4064,958.43243 C1043.40035,958.413565 1043.39649,958.399849 1043.39156,958.386574 C1042.47476,955.92833 1041.55793,953.470122 1040.64103,951.011914 C1040.63955,951.007869 1040.63768,951.003971 1040.63599,951 L1042.26975,951 C1042.35515,951.023093 1042.42384,951.066852 1042.48035,951.140471 C1043.04168,951.871803 1043.6059,952.600856 1044.1685,953.331269 C1045.09422,954.533143 1046.01945,955.735421 1046.94467,956.937773 C1047.28983,957.386324 1047.6347,957.835133 1047.97874,958.284604 C1048.05917,958.3897 1048.16185,958.44166 1048.29231,958.438534 C1048.37292,958.436585 1048.45356,958.435776 1048.53417,958.435445 C1048.93317,958.43379 1049.33214,958.430591 1049.73111,958.4314 C1050.45993,958.432908 1051.18875,958.435372 1051.91753,958.441035 C1052.07122,958.442248 1052.22602,958.449529 1052.37816,958.470342 C1052.8671,958.537232 1053.30208,958.738083 1053.69342,959.041898 C1053.82895,959.147141 1053.95653,959.257863 1054,959.437092 L1054,959.569474 Z" id="Fill-1"/>
        </g>
    </g>
</svg>
