<?xml version="1.0" encoding="UTF-8"?>
<svg xmlns="http://www.w3.org/2000/svg" xmlns:xlink="http://www.w3.org/1999/xlink" width="17px" height="17px" viewBox="0 0 17 17" version="1.1">
    <!-- Generator: Sketch 44.1 (41455) - http://www.bohemiancoding.com/sketch -->
    <title>Fill 1</title>
    <desc>Created with Sketch.</desc>
    <defs/>
    <g id="SR---Hotel-+-Flights" stroke="none" stroke-width="1" fill="none" fill-rule="evenodd">
        <g id="SR---Hotel-+-Flights-Calendar" transform="translate(-527.000000, -781.000000)" fill="#333333">
            <g id="Page-1" transform="translate(527.000000, 622.000000)">
                <path d="M17,167.569474 C16.953177,167.742562 16.8308248,167.853247 16.6975953,167.956872 C16.2942689,168.270579 15.8452001,168.473416 15.3404479,168.536849 C15.1951164,168.555088 15.0476239,168.559538 14.9009958,168.561376 C14.5164707,168.566267 14.1319096,168.566488 13.7473845,168.568142 C13.4449077,168.569466 13.142395,168.571415 12.8399182,168.570937 C12.3156084,168.570128 11.7912985,168.56851 11.2669887,168.565164 C11.1482023,168.564392 11.0575817,168.61021 10.9844658,168.705488 C10.2429331,169.671833 9.50046399,170.637444 8.7578508,171.602944 C8.08730905,172.474784 7.41640713,173.346367 6.74543317,174.217913 C6.31649823,174.775054 5.88695099,175.33168 5.45826818,175.889004 C5.4015763,175.962696 5.33660035,176.000903 5.23798386,175.999984 C4.72228225,175.995167 4.20654463,175.997741 3.69077099,175.997741 L3.63789699,175.997741 C4.56196741,173.520117 5.48409288,171.047715 6.40884765,168.568216 C6.38370728,168.568216 6.36695905,168.568179 6.35017479,168.568216 C5.82586495,168.569209 5.3015191,168.571856 4.77720926,168.570569 C4.4978919,168.569871 4.21817835,168.570606 3.93947329,168.555346 C3.72581622,168.543652 3.51341978,168.507982 3.30044704,168.48283 C3.26756287,168.478969 3.23485879,168.473674 3.2019386,168.470144 C3.13710672,168.463157 3.1370707,168.463451 3.11405538,168.405792 C3.0789021,168.4572 3.04457722,168.505445 3.01223331,168.555051 C2.5079133,169.328047 2.00294498,170.100601 1.500714,170.874994 C1.42705778,170.988548 1.33578889,171.043045 1.19982203,171.041096 C0.813856226,171.03558 0.427782368,171.038338 0.0417445285,171.03786 L0,171.03786 C0.00687938304,171.018444 0.0119218628,171.002816 0.0178647853,170.987592 C0.346130215,170.147744 0.674719803,169.308079 1.00258904,168.468084 C1.10477129,168.206301 1.20482849,167.943634 1.30607428,167.681446 C1.35253713,167.561053 1.35296934,167.440586 1.3061103,167.320597 C0.89723723,166.273278 0.487967965,165.226106 0.0794550732,164.178641 C0.0530540901,164.110979 0.031911693,164.041185 0.00551070997,163.964257 L0.058456747,163.964257 C0.355206678,163.964257 0.651992627,163.963742 0.948742558,163.964514 C1.06248649,163.964808 1.17623043,163.97003 1.28990233,163.969037 C1.34410899,163.968559 1.38697006,163.989078 1.41783724,164.029969 C1.47398886,164.104323 1.52772728,164.18081 1.57890845,164.258841 C2.05538677,164.985504 2.53100066,165.712754 3.00715481,166.439674 C3.04389288,166.495789 3.08261192,166.55058 3.11834149,166.602944 C3.20831374,166.568599 3.29403589,166.53087 3.3827115,166.50307 C3.55476811,166.449161 3.73312782,166.433496 3.91191974,166.433165 C4.72293057,166.431547 5.53397741,166.43243 6.34502426,166.43243 L6.40639844,166.43243 C6.40034746,166.413565 6.39649357,166.399849 6.39155914,166.386574 C5.4747643,163.92833 4.55793343,161.470122 3.64103053,159.011914 C3.6395538,159.007869 3.63768088,159.003971 3.63598805,159 L5.26975148,159 C5.35514947,159.023093 5.42383525,159.066852 5.48034704,159.140471 C6.04168309,159.871803 6.60590055,160.600856 7.16849721,161.331269 C8.09422445,162.533143 9.01944745,163.735421 9.94467044,164.937773 C10.2898282,165.386324 10.6346978,165.835133 10.978739,166.284604 C11.0591665,166.3897 11.161853,166.44166 11.2923092,166.438534 C11.3729168,166.436585 11.4535605,166.435776 11.5341681,166.435445 C11.9331723,166.43379 12.3321405,166.430591 12.7311087,166.4314 C13.4599271,166.432908 14.1887455,166.435372 14.9175279,166.441035 C15.0712155,166.442248 15.2260196,166.449529 15.3781584,166.470342 C15.8670989,166.537232 16.3020848,166.738083 16.6934172,167.041898 C16.8289519,167.147141 16.9565266,167.257863 17,167.437092 L17,167.569474 Z" id="Fill-1" transform="translate(8.500000, 167.500000) rotate(-180.000000) translate(-8.500000, -167.500000) "/>
            </g>
        </g>
    </g>
</svg>
