<?xml version="1.0" encoding="UTF-8"?>
<svg xmlns="http://www.w3.org/2000/svg" xmlns:xlink="http://www.w3.org/1999/xlink" width="22px" height="23px" viewBox="0 0 22 23" version="1.1">
    <!-- Generator: Sketch 44.1 (41455) - http://www.bohemiancoding.com/sketch -->
    <title>Group 4</title>
    <desc>Created with Sketch.</desc>
    <defs/>
    <g id="Symbols" stroke="none" stroke-width="1" fill="none" fill-rule="evenodd">
        <g id="Amenities" transform="translate(-158.000000, 0.000000)">
            <g id="Page-1">
                <g id="Group-118" transform="translate(38.805970, 0.180597)">
                    <g id="Group-4" transform="translate(120.000000, 0.000000)">
                        <path d="M9.06522388,21.8550107 C8.77076759,21.8550107 8.53217484,21.6164179 8.53217484,21.3219616 L8.53217484,7.45927505 C8.53217484,7.16503198 8.77076759,6.92622601 9.06522388,6.92622601 C9.35968017,6.92622601 9.59827292,7.16503198 9.59827292,7.45927505 L9.59827292,21.3219616 C9.59827292,21.6164179 9.35968017,21.8550107 9.06522388,21.8550107" id="Fill-82" fill="#353535"/>
                        <path d="M9.06522388,21.8550107 C8.77076759,21.8550107 8.53217484,21.6164179 8.53217484,21.3219616 L8.53217484,7.45927505 C8.53217484,7.16503198 8.77076759,6.92622601 9.06522388,6.92622601 C9.35968017,6.92622601 9.59827292,7.16503198 9.59827292,7.45927505 L9.59827292,21.3219616 C9.59827292,21.6164179 9.35968017,21.8550107 9.06522388,21.8550107 Z" id="Stroke-84" stroke="#353535" stroke-width="0.2"/>
                        <path d="M2.81865672,6.9263113 L15.2821962,6.9263113 C15.0107676,3.7263113 12.3195096,1.20541578 9.05063966,1.20541578 C5.7815565,1.20541578 3.09008529,3.7263113 2.81865672,6.9263113 M15.8376333,7.99240938 L2.26321962,7.99240938 C1.96876333,7.99240938 1.73017058,7.75381663 1.73017058,7.45936034 C1.73017058,3.42289979 5.01396588,0.139317697 9.05063966,0.139317697 C13.086887,0.139317697 16.3706823,3.42289979 16.3706823,7.45936034 C16.3706823,7.75381663 16.1320896,7.99240938 15.8376333,7.99240938" id="Fill-86" fill="#353535"/>
                        <path d="M2.81865672,6.9263113 L15.2821962,6.9263113 C15.0107676,3.7263113 12.3195096,1.20541578 9.05063966,1.20541578 C5.7815565,1.20541578 3.09008529,3.7263113 2.81865672,6.9263113 Z M15.8376333,7.99240938 L2.26321962,7.99240938 C1.96876333,7.99240938 1.73017058,7.75381663 1.73017058,7.45936034 C1.73017058,3.42289979 5.01396588,0.139317697 9.05063966,0.139317697 C13.086887,0.139317697 16.3706823,3.42289979 16.3706823,7.45936034 C16.3706823,7.75381663 16.1320896,7.99240938 15.8376333,7.99240938 Z" id="Stroke-88" stroke="#353535" stroke-width="0.2"/>
                        <path d="M19.747548,18.6027932 L5.22153518,18.6027932 C5.08017058,18.6027932 4.9445629,18.5465032 4.84434968,18.4467164 L0.33347548,13.9352026 C0.125373134,13.7271002 0.125373134,13.3895736 0.33347548,13.1814712 C0.541577825,12.9733689 0.879104478,12.9733689 1.08742004,13.1814712 L5.44221748,17.5366951 L19.747548,17.5366951 C20.0420043,17.5366951 20.280597,17.7752878 20.280597,18.0697441 C20.280597,18.3642004 20.0420043,18.6027932 19.747548,18.6027932" id="Fill-90" fill="#353535"/>
                        <path d="M19.747548,18.6027932 L5.22153518,18.6027932 C5.08017058,18.6027932 4.9445629,18.5465032 4.84434968,18.4467164 L0.33347548,13.9352026 C0.125373134,13.7271002 0.125373134,13.3895736 0.33347548,13.1814712 C0.541577825,12.9733689 0.879104478,12.9733689 1.08742004,13.1814712 L5.44221748,17.5366951 L19.747548,17.5366951 C20.0420043,17.5366951 20.280597,17.7752878 20.280597,18.0697441 C20.280597,18.3642004 20.0420043,18.6027932 19.747548,18.6027932 Z" id="Stroke-92" stroke="#353535" stroke-width="0.2"/>
                        <path d="M5.22144989,21.8550107 C4.9269936,21.8550107 4.68840085,21.6164179 4.68840085,21.3219616 L4.68840085,18.0697228 C4.68840085,17.7752665 4.9269936,17.5366738 5.22144989,17.5366738 C5.51590618,17.5366738 5.75449893,17.7752665 5.75449893,18.0697228 L5.75449893,21.3219616 C5.75449893,21.6164179 5.51590618,21.8550107 5.22144989,21.8550107" id="Fill-94" fill="#353535"/>
                        <path d="M5.22144989,21.8550107 C4.9269936,21.8550107 4.68840085,21.6164179 4.68840085,21.3219616 L4.68840085,18.0697228 C4.68840085,17.7752665 4.9269936,17.5366738 5.22144989,17.5366738 C5.51590618,17.5366738 5.75449893,17.7752665 5.75449893,18.0697228 L5.75449893,21.3219616 C5.75449893,21.6164179 5.51590618,21.8550107 5.22144989,21.8550107 Z" id="Stroke-96" stroke="#353535" stroke-width="0.2"/>
                        <path d="M19.747548,21.8550107 C19.4530917,21.8550107 19.2144989,21.6164179 19.2144989,21.3219616 L19.2144989,18.0697228 C19.2144989,17.7752665 19.4530917,17.5366738 19.747548,17.5366738 C20.0420043,17.5366738 20.280597,17.7752665 20.280597,18.0697228 L20.280597,21.3219616 C20.280597,21.6164179 20.0420043,21.8550107 19.747548,21.8550107" id="Fill-98" fill="#353535"/>
                        <path d="M19.747548,21.8550107 C19.4530917,21.8550107 19.2144989,21.6164179 19.2144989,21.3219616 L19.2144989,18.0697228 C19.2144989,17.7752665 19.4530917,17.5366738 19.747548,17.5366738 C20.0420043,17.5366738 20.280597,17.7752665 20.280597,18.0697228 L20.280597,21.3219616 C20.280597,21.6164179 20.0420043,21.8550107 19.747548,21.8550107 Z" id="Stroke-100" stroke="#353535" stroke-width="0.2"/>
                    </g>
                </g>
            </g>
        </g>
    </g>
</svg>
