<?xml version="1.0" encoding="UTF-8"?>
<svg xmlns="http://www.w3.org/2000/svg" xmlns:xlink="http://www.w3.org/1999/xlink" width="16px" height="13px" viewBox="0 0 16 13" version="1.1">
    <!-- Generator: Sketch 45.2 (43514) - http://www.bohemiancoding.com/sketch -->
    <title>Twitter</title>
    <desc>Created with Sketch.</desc>
    <defs/>
    <g id="Symbols" stroke="none" stroke-width="1" fill="none" fill-rule="evenodd">
        <g id="Footer" transform="translate(-1014.000000, -43.000000)" fill="#373737">
            <g transform="translate(335.000000, 38.000000)" id="Social-Icons">
                <g transform="translate(647.000000, 3.000000)">
                    <g id="Twitter" transform="translate(32.000000, 2.200000)">
                        <path d="M14.3171134,1.84873308 C14.8958737,1.8128073 15.4346365,1.6330019 16,1.49124074 C15.9714716,1.53281578 15.9456418,1.57633275 15.9139329,1.61578931 C15.5288958,2.09447596 15.0828504,2.52002424 14.5699175,2.88422507 C14.4728631,2.95316372 14.4309379,3.02563315 14.4280465,3.13597029 C14.4101199,3.81396995 14.368773,4.4905573 14.2023252,5.15425726 C13.6285766,7.44141378 12.3413288,9.29543082 10.2065177,10.6230956 C9.05439431,11.3396691 7.77755557,11.7812825 6.3943136,11.9207486 C4.98321788,12.0630394 3.57703753,12.0392948 2.20516836,11.6364319 C1.49311487,11.4273209 0.817974821,11.1440634 0.168760918,10.8067848 C0.111511355,10.7770379 0.0578278417,10.7416418 0,10.6810005 C1.74350943,10.7795978 3.33107644,10.4048928 4.76684537,9.41653686 C3.28481417,9.25924024 2.25123788,8.59827663 1.71314981,7.30503707 C2.19793988,7.31280481 2.64716583,7.35349715 3.12858262,7.2449254 C1.51161978,6.76826895 0.654322029,5.78909304 0.564688874,4.25046368 C1.01073429,4.43918432 1.46815252,4.55764228 1.98792844,4.59621614 C0.535774953,3.47483772 0.249623517,2.14117063 0.991554726,0.559112581 C1.27915186,0.81694841 1.53648575,1.0466262 1.79266309,1.2774515 C3.43632311,2.75870554 5.42270948,3.54077519 7.70931872,3.71051785 C7.73534124,3.71245978 7.76155653,3.71334248 7.78767544,3.71237151 C7.79702428,3.71201843 7.80608397,3.70486859 7.79037407,3.71175363 C7.79037407,3.45232894 7.7945184,3.20455586 7.78960304,2.95695932 C7.76329137,1.62646994 8.89122342,0.325815731 10.4458286,0.0603887062 C11.499741,-0.119504968 12.4719234,0.0979033339 13.2823806,0.774667218 C13.4504668,0.915016061 13.6158545,0.962946515 13.8235528,0.891006699 C14.2935004,0.72823735 14.7630625,0.564585303 15.2317571,0.399079592 C15.3463526,0.358563794 15.4570929,0.309132755 15.6082164,0.248226654 C15.3406662,0.924725729 14.8899946,1.42150767 14.3171134,1.84873308" id="Fill-1"/>
                    </g>
                </g>
            </g>
        </g>
    </g>
</svg>
