<?xml version="1.0" encoding="UTF-8"?>
<svg xmlns="http://www.w3.org/2000/svg" xmlns:xlink="http://www.w3.org/1999/xlink" width="23px" height="15px" viewBox="0 0 23 15" version="1.1">
    <!-- Generator: Sketch 44.1 (41455) - http://www.bohemiancoding.com/sketch -->
    <title>Group 5</title>
    <desc>Created with Sketch.</desc>
    <defs>
        <rect id="path-1" x="0" y="0" width="23" height="15" rx="5"/>
    </defs>
    <g id="Checkout---Hotel-+-Flights" stroke="none" stroke-width="1" fill="none" fill-rule="evenodd">
        <g id="Checkout-2" transform="translate(-822.000000, -1016.000000)">
            <g id="Group-5" transform="translate(822.000000, 1016.000000)">
                <mask id="mask-2" fill="white">
                    <use xlink:href="#path-1"/>
                </mask>
                <use id="Mask" fill="#F4F4F4" xlink:href="#path-1"/>
                <rect id="Rectangle-25" fill="#09599E" mask="url(#mask-2)" x="-1" y="11" width="24" height="5"/>
                <rect id="Rectangle-25" fill="#E59703" mask="url(#mask-2)" x="-1" y="11" width="24" height="5"/>
                <polygon id="Rectangle-25" fill-opacity="0.15" fill="#FFFFFF" mask="url(#mask-2)" points="-12 7.28244197 20.7581413 -10 27 0.717558032 -5.75814135 18"/>
                <polyline id="Fill-1" fill="#004F8B" mask="url(#mask-2)" points="10 10 10.769437 6 12 6 11.2300441 10 10 10"/>
                <path d="M14,6.1627169 C13.8019252,6.08417927 13.4915683,6 13.1039207,6 C12.1160764,6 11.4201096,6.5255637 11.4142074,7.27879744 C11.4086565,7.83561288 11.9110455,8.14627447 12.2902614,8.33163218 C12.6793845,8.52159228 12.8102867,8.64266493 12.8083895,8.81228542 C12.8059303,9.07202375 12.497611,9.19072098 12.2102305,9.19072098 C11.8100759,9.19072098 11.5975267,9.13200334 11.2691821,8.98732486 L11.1403176,8.92571216 L11,9.7931892 C11.2335582,9.90134546 11.6654019,9.99510068 12.1136875,10 C13.1646993,10 13.8468943,9.48037487 13.8546936,8.67606941 C13.8584879,8.2352046 13.5920461,7.89974947 13.0153176,7.62316043 C12.6658235,7.44388977 12.4517988,7.32430175 12.4540472,7.14272989 C12.4540472,6.9816461 12.6351883,6.80942748 13.0266301,6.80942748 C13.3535694,6.80408277 13.5903598,6.87935418 13.7748735,6.95789181 L13.8644604,7.00257957 L14,6.1627169" id="Fill-2" fill="#004F8B" mask="url(#mask-2)"/>
                <path d="M17.0983854,6 L16.2376358,6 C15.9709952,6 15.7714453,6.07122868 15.6543302,6.33191489 L14,10 L15.1697426,10 C15.1697426,10 15.3609942,9.50676634 15.4042861,9.39850489 C15.5321264,9.39850489 16.6683629,9.40019168 16.8308054,9.40019168 C16.864155,9.54034886 16.9663959,10 16.9663959,10 L18,10 L17.0983854,6 M15.7248654,8.57979682 C15.8169292,8.34916619 16.1686662,7.46099291 16.1686662,7.46099291 C16.1620119,7.4715737 16.2601037,7.22921219 16.3163128,7.07893425 L16.3916234,7.4240368 C16.3916234,7.4240368 16.6049516,8.37945179 16.649496,8.57979682 L15.7248654,8.57979682" id="Fill-3" fill="#004F8B" mask="url(#mask-2)"/>
                <path d="M8.79890027,6 L7.68872774,8.73207982 L7.57046659,8.17682272 C7.36382835,7.53676132 6.71992668,6.84336147 6,6.49623945 L7.01510141,10 L8.2148464,9.99869532 L10,6 L8.79890027,6" id="Fill-4" fill="#004F8B" mask="url(#mask-2)"/>
                <path d="M6.33811659,6 L5.01053088,6 L5,6.07648965 C6.03289455,6.38082829 6.71630262,7.11628398 7,8 L6.71132649,6.31039583 C6.66144944,6.07754613 6.51691017,6.00809973 6.33811659,6" id="Fill-5" fill="#EE9F2D" mask="url(#mask-2)"/>
            </g>
        </g>
    </g>
</svg>
