<?xml version="1.0" encoding="UTF-8"?>
<svg xmlns="http://www.w3.org/2000/svg" xmlns:xlink="http://www.w3.org/1999/xlink" width="23px" height="17px" viewBox="0 0 23 17" version="1.1">
    <!-- Generator: Sketch 44.1 (41455) - http://www.bohemiancoding.com/sketch -->
    <title>Group 13</title>
    <desc>Created with Sketch.</desc>
    <defs/>
    <g id="Symbols" stroke="none" stroke-width="1" fill="none" fill-rule="evenodd">
        <g id="Amenities" transform="translate(0.000000, -2.000000)">
            <g id="Page-1">
                <g id="Group-13" transform="translate(0.000000, 2.099574)">
                    <path d="M10.8606823,13.8501493 C10.5820043,14.1288273 10.5820043,14.5821322 10.8604691,14.860597 C11.1391471,15.1392751 11.592452,15.1390618 11.8711301,14.860597 C12.1495949,14.5821322 12.1493817,14.1288273 11.8709168,13.8503625 C11.592452,13.5716844 11.1391471,13.5716844 10.8606823,13.8501493 M12.4604691,15.449936 C11.8568443,16.0535608 10.8747548,16.0535608 10.2711301,15.449936 C9.66750533,14.8465245 9.66750533,13.864435 10.2713433,13.2608102 C10.8747548,12.6571855 11.8568443,12.6573987 12.4602559,13.2608102 C13.0638806,13.864435 13.0638806,14.8465245 12.4604691,15.449936" id="Fill-1" fill="#353535"/>
                    <path d="M10.8606823,13.8501493 C10.5820043,14.1288273 10.5820043,14.5821322 10.8604691,14.860597 C11.1391471,15.1392751 11.592452,15.1390618 11.8711301,14.860597 C12.1495949,14.5821322 12.1493817,14.1288273 11.8709168,13.8503625 C11.592452,13.5716844 11.1391471,13.5716844 10.8606823,13.8501493 Z M12.4604691,15.449936 C11.8568443,16.0535608 10.8747548,16.0535608 10.2711301,15.449936 C9.66750533,14.8465245 9.66750533,13.864435 10.2713433,13.2608102 C10.8747548,12.6571855 11.8568443,12.6573987 12.4602559,13.2608102 C13.0638806,13.864435 13.0638806,14.8465245 12.4604691,15.449936 Z" id="Stroke-3" stroke="#353535" stroke-width="0.2"/>
                    <path d="M17.9187633,10.5252878 C17.8991471,10.5449041 17.8771855,10.5628145 17.8530917,10.578806 C17.6609808,10.7054584 17.4023454,10.6523667 17.275693,10.4602559 C17.0140725,10.0634542 16.7093817,9.69031983 16.3701493,9.3508742 C13.6108742,6.59159915 9.12089552,6.59159915 6.36162047,9.35108742 C6.02089552,9.69181237 5.71513859,10.0664392 5.45309168,10.4645203 C5.32665245,10.6564179 5.06801706,10.709936 4.87569296,10.5834968 C4.68358209,10.4568443 4.63027719,10.1984222 4.75692964,10.0060981 C5.04989339,9.56089552 5.39147122,9.1421322 5.77206823,8.76153518 C8.8565032,5.67710021 13.8752665,5.67710021 16.9597015,8.76153518 C17.3385928,9.14042644 17.6791045,9.55769723 17.9716418,10.0014072 C18.082516,10.1694243 18.0558635,10.3881876 17.9187633,10.5252878" id="Fill-5" fill="#353535"/>
                    <path d="M17.9187633,10.5252878 C17.8991471,10.5449041 17.8771855,10.5628145 17.8530917,10.578806 C17.6609808,10.7054584 17.4023454,10.6523667 17.275693,10.4602559 C17.0140725,10.0634542 16.7093817,9.69031983 16.3701493,9.3508742 C13.6108742,6.59159915 9.12089552,6.59159915 6.36162047,9.35108742 C6.02089552,9.69181237 5.71513859,10.0664392 5.45309168,10.4645203 C5.32665245,10.6564179 5.06801706,10.709936 4.87569296,10.5834968 C4.68358209,10.4568443 4.63027719,10.1984222 4.75692964,10.0060981 C5.04989339,9.56089552 5.39147122,9.1421322 5.77206823,8.76153518 C8.8565032,5.67710021 13.8752665,5.67710021 16.9597015,8.76153518 C17.3385928,9.14042644 17.6791045,9.55769723 17.9716418,10.0014072 C18.082516,10.1694243 18.0558635,10.3881876 17.9187633,10.5252878 Z" id="Stroke-7" stroke="#353535" stroke-width="0.2"/>
                    <path d="M22.4887846,6.00153518 C22.4779104,6.01240938 22.4663966,6.02285714 22.4540299,6.03266525 C22.2742857,6.17637527 22.0120256,6.14716418 21.8683156,5.96742004 C21.5591471,5.58085288 21.223113,5.20558635 20.8693817,4.85185501 C15.6290832,-0.388443497 7.10264392,-0.388443497 1.86234542,4.85185501 C1.51501066,5.19897655 1.18473348,5.56742004 0.880469083,5.94652452 C0.735266525,6.12498934 0.474072495,6.15462687 0.294541578,6.01070362 C0.115010661,5.86656716 0.0862260128,5.60409382 0.230362473,5.4245629 C0.553390192,5.02200426 0.90434968,4.63095949 1.27279318,4.26230277 C6.83803838,-1.30294243 15.8934755,-1.30294243 21.4587207,4.26251599 C21.8342004,4.63799574 22.1909168,5.03628998 22.5192751,5.44673774 C22.653177,5.61432836 22.6369723,5.85334755 22.4887846,6.00153518" id="Fill-9" fill="#353535"/>
                    <path d="M22.4887846,6.00153518 C22.4779104,6.01240938 22.4663966,6.02285714 22.4540299,6.03266525 C22.2742857,6.17637527 22.0120256,6.14716418 21.8683156,5.96742004 C21.5591471,5.58085288 21.223113,5.20558635 20.8693817,4.85185501 C15.6290832,-0.388443497 7.10264392,-0.388443497 1.86234542,4.85185501 C1.51501066,5.19897655 1.18473348,5.56742004 0.880469083,5.94652452 C0.735266525,6.12498934 0.474072495,6.15462687 0.294541578,6.01070362 C0.115010661,5.86656716 0.0862260128,5.60409382 0.230362473,5.4245629 C0.553390192,5.02200426 0.90434968,4.63095949 1.27279318,4.26230277 C6.83803838,-1.30294243 15.8934755,-1.30294243 21.4587207,4.26251599 C21.8342004,4.63799574 22.1909168,5.03628998 22.5192751,5.44673774 C22.653177,5.61432836 22.6369723,5.85334755 22.4887846,6.00153518 Z" id="Stroke-11" stroke="#353535" stroke-width="0.2"/>
                </g>
            </g>
        </g>
    </g>
</svg>
