<?xml version="1.0" encoding="UTF-8"?>
<svg xmlns="http://www.w3.org/2000/svg" xmlns:xlink="http://www.w3.org/1999/xlink" width="28px" height="50px" viewBox="0 0 28 50" version="1.1">
    <!-- Generator: Sketch 45.2 (43514) - http://www.bohemiancoding.com/sketch -->
    <title>›</title>
    <desc>Created with Sketch.</desc>
    <defs/>
    <g id="EXPLORE-(regions)" stroke="none" stroke-width="1" fill="none" fill-rule="evenodd">
        <g id="Individual-Region-Guide-Gallery" transform="translate(-35.000000, -488.000000)" fill="#FFFFFF">
            <path d="M63,512.053885 L63,513.70802 C62.2648251,514.489143 60.0593333,516.648687 56.3834586,520.186717 L48.5952381,527.76817 L39.0150376,537.62406 L38.1190476,537.761905 L35.5689223,535.969925 L35.5,535.211779 C44.1383055,523.954413 49.44527,516.510879 51.4210526,512.880952 C50.3182902,510.997067 48.0323899,507.619907 44.5632832,502.749373 C41.0941765,497.878839 38.0731123,493.812464 35.5,490.550125 L35.5689223,489.79198 L38.1190476,488 L39.0150376,488.137845 C45.309973,494.616574 51.053441,500.383016 56.245614,505.437343 L63,512.053885 Z" id="›" transform="translate(49.250000, 512.880952) scale(-1, 1) translate(-49.250000, -512.880952) "/>
        </g>
    </g>
</svg>
