<?xml version="1.0" encoding="UTF-8"?>
<svg xmlns="http://www.w3.org/2000/svg" xmlns:xlink="http://www.w3.org/1999/xlink" width="17px" height="9px" viewBox="0 0 17 9" version="1.1">
    <!-- Generator: Sketch 44.1 (41455) - http://www.bohemiancoding.com/sketch -->
    <title>›</title>
    <desc>Created with Sketch.</desc>
    <defs/>
    <g id="Regional-Guide-Template" stroke="none" stroke-width="1" fill="none" fill-rule="evenodd">
        <g id="Neighborhood-Guide-Mobile" transform="translate(-331.000000, -106.000000)" fill="#FFFFFF">
            <path d="M343.642857,110.229323 L343.642857,110.770677 C343.402254,111.026317 342.680457,111.733077 341.477444,112.890977 L338.928571,115.37218 L335.793233,118.597744 L335.5,118.642857 L334.665414,118.056391 L334.642857,117.808271 C337.469939,114.124042 339.206764,111.687976 339.853383,110.5 C339.492479,109.883456 338.744367,108.778203 337.609023,107.184211 C336.473679,105.590218 335.484967,104.259404 334.642857,103.191729 L334.665414,102.943609 L335.5,102.357143 L335.793233,102.402256 C337.853394,104.522567 339.733074,106.409766 341.432331,108.06391 L343.642857,110.229323 Z" id="›" transform="translate(339.142857, 110.500000) rotate(-270.000000) translate(-339.142857, -110.500000) "/>
        </g>
    </g>
</svg>
