<?xml version="1.0" encoding="UTF-8"?>
<svg xmlns="http://www.w3.org/2000/svg" xmlns:xlink="http://www.w3.org/1999/xlink" width="17px" height="10px" viewBox="0 0 17 10" version="1.1">
    <!-- Generator: Sketch 44.1 (41455) - http://www.bohemiancoding.com/sketch -->
    <title>›</title>
    <desc>Created with Sketch.</desc>
    <defs/>
    <g id="SR---Hotels" stroke="none" stroke-width="1" fill="none" fill-rule="evenodd">
        <g id="SR---Hotel-+-Flights-Mobile-Filters" transform="translate(-339.000000, -1969.000000)" fill="#292929">
            <g id="Group-3" transform="translate(7.000000, 241.000000)">
                <g id="Group">
                    <path d="M344.642857,1732.5208 L344.642857,1733.06216 C344.402254,1733.3178 343.680457,1734.02456 342.477444,1735.18246 L339.928571,1737.66366 L336.793233,1740.88922 L336.5,1740.93434 L335.665414,1740.34787 L335.642857,1740.09975 C338.469939,1736.41552 340.206764,1733.97946 340.853383,1732.79148 C340.492479,1732.17494 339.744367,1731.06968 338.609023,1729.47569 C337.473679,1727.8817 336.484967,1726.55088 335.642857,1725.48321 L335.665414,1725.23509 L336.5,1724.64862 L336.793233,1724.69374 C338.853394,1726.81405 340.733074,1728.70125 342.432331,1730.35539 L344.642857,1732.5208 Z" id="›" transform="translate(340.142857, 1732.791480) rotate(-90.000000) translate(-340.142857, -1732.791480) "/>
                </g>
            </g>
        </g>
    </g>
</svg>
