<?xml version="1.0" encoding="UTF-8"?>
<svg xmlns="http://www.w3.org/2000/svg" xmlns:xlink="http://www.w3.org/1999/xlink" width="12px" height="7px" viewBox="0 0 12 7" version="1.1">
    <!-- Generator: Sketch 45.2 (43514) - http://www.bohemiancoding.com/sketch -->
    <title>›</title>
    <desc>Created with Sketch.</desc>
    <defs/>
    <g id="SR---Hotel-+-Flights" stroke="none" stroke-width="1" fill="none" fill-rule="evenodd">
        <g id="SR---Hotel-+-Flights-Fully-Expanded-Flight-info" transform="translate(-1161.000000, -749.000000)" fill="#373737">
            <path d="M1169.64286,752.605263 L1169.64286,752.966165 C1169.48246,753.136592 1169.00126,753.607766 1168.19925,754.379699 L1166.5,756.033835 L1164.40977,758.184211 L1164.21429,758.214286 L1163.65789,757.823308 L1163.64286,757.657895 C1165.52758,755.201742 1166.68546,753.577698 1167.11654,752.785714 C1166.87594,752.374685 1166.3772,751.63785 1165.6203,750.575188 C1164.8634,749.512526 1164.20426,748.625317 1163.64286,747.913534 L1163.65789,747.74812 L1164.21429,747.357143 L1164.40977,747.387218 C1165.78321,748.800759 1167.03634,750.058892 1168.16917,751.161654 L1169.64286,752.605263 Z" id="›" transform="translate(1166.642857, 752.785714) rotate(-270.000000) translate(-1166.642857, -752.785714) "/>
        </g>
    </g>
</svg>
