<?xml version="1.0" encoding="UTF-8"?>
<svg xmlns="http://www.w3.org/2000/svg" xmlns:xlink="http://www.w3.org/1999/xlink" width="17px" height="9px" viewBox="0 0 17 9" version="1.1">
    <!-- Generator: Sketch 44.1 (41455) - http://www.bohemiancoding.com/sketch -->
    <title>›</title>
    <desc>Created with Sketch.</desc>
    <defs/>
    <g id="SR---Hotels" stroke="none" stroke-width="1" fill="none" fill-rule="evenodd">
        <g id="SR---Hotel-+-Flights-Mobile-Filters" transform="translate(-340.000000, -106.000000)" fill="#FFFFFF">
            <path d="M352.642857,110.229323 L352.642857,110.770677 C352.402254,111.026317 351.680457,111.733077 350.477444,112.890977 L347.928571,115.37218 L344.793233,118.597744 L344.5,118.642857 L343.665414,118.056391 L343.642857,117.808271 C346.469939,114.124042 348.206764,111.687976 348.853383,110.5 C348.492479,109.883456 347.744367,108.778203 346.609023,107.184211 C345.473679,105.590218 344.484967,104.259404 343.642857,103.191729 L343.665414,102.943609 L344.5,102.357143 L344.793233,102.402256 C346.853394,104.522567 348.733074,106.409766 350.432331,108.06391 L352.642857,110.229323 Z" id="›" transform="translate(348.142857, 110.500000) rotate(-270.000000) translate(-348.142857, -110.500000) "/>
        </g>
    </g>
</svg>
