<?xml version="1.0" encoding="UTF-8"?>
<svg xmlns="http://www.w3.org/2000/svg" xmlns:xlink="http://www.w3.org/1999/xlink" width="17px" height="9px" viewBox="0 0 17 9" version="1.1">
    <!-- Generator: Sketch 44.1 (41455) - http://www.bohemiancoding.com/sketch -->
    <title>›</title>
    <desc>Created with Sketch.</desc>
    <defs/>
    <g id="SR---Hotel-+-Flights" stroke="none" stroke-width="1" fill="none" fill-rule="evenodd">
        <g id="SR---Hotel-+-Flights-Calendar" transform="translate(-1159.000000, -576.000000)" fill="#6522FF">
            <path d="M1171.64286,580.229323 L1171.64286,580.770677 C1171.40225,581.026317 1170.68046,581.733077 1169.47744,582.890977 L1166.92857,585.37218 L1163.79323,588.597744 L1163.5,588.642857 L1162.66541,588.056391 L1162.64286,587.808271 C1165.46994,584.124042 1167.20676,581.687976 1167.85338,580.5 C1167.49248,579.883456 1166.74437,578.778203 1165.60902,577.184211 C1164.47368,575.590218 1163.48497,574.259404 1162.64286,573.191729 L1162.66541,572.943609 L1163.5,572.357143 L1163.79323,572.402256 C1165.85339,574.522567 1167.73307,576.409766 1169.43233,578.06391 L1171.64286,580.229323 Z" id="›" transform="translate(1167.142857, 580.500000) rotate(-90.000000) translate(-1167.142857, -580.500000) "/>
        </g>
    </g>
</svg>
