<?xml version="1.0" encoding="UTF-8"?>
<svg xmlns="http://www.w3.org/2000/svg" xmlns:xlink="http://www.w3.org/1999/xlink" width="12px" height="7px" viewBox="0 0 12 7" version="1.1">
    <!-- Generator: Sketch 44.1 (41455) - http://www.bohemiancoding.com/sketch -->
    <title>›</title>
    <desc>Created with Sketch.</desc>
    <defs/>
    <g id="SR---Hotel-+-Flights" stroke="none" stroke-width="1" fill="none" fill-rule="evenodd">
        <g id="SR---Hotel-+-Flights-Calendar" transform="translate(-1162.000000, -740.000000)" fill="#6522FF">
            <path d="M1170.64286,743.605263 L1170.64286,743.966165 C1170.48246,744.136592 1170.00126,744.607766 1169.19925,745.379699 L1167.5,747.033835 L1165.40977,749.184211 L1165.21429,749.214286 L1164.65789,748.823308 L1164.64286,748.657895 C1166.52758,746.201742 1167.68546,744.577698 1168.11654,743.785714 C1167.87594,743.374685 1167.3772,742.63785 1166.6203,741.575188 C1165.8634,740.512526 1165.20426,739.625317 1164.64286,738.913534 L1164.65789,738.74812 L1165.21429,738.357143 L1165.40977,738.387218 C1166.78321,739.800759 1168.03634,741.058892 1169.16917,742.161654 L1170.64286,743.605263 Z" id="›" transform="translate(1167.642857, 743.785714) rotate(-270.000000) translate(-1167.642857, -743.785714) "/>
        </g>
    </g>
</svg>
