<?xml version="1.0" encoding="UTF-8"?>
<svg xmlns="http://www.w3.org/2000/svg" xmlns:xlink="http://www.w3.org/1999/xlink" width="17px" height="9px" viewBox="0 0 17 9" version="1.1">
    <!-- Generator: Sketch 45 (43475) - http://www.bohemiancoding.com/sketch -->
    <title>›</title>
    <desc>Created with Sketch.</desc>
    <defs/>
    <g id="SR---Hotel-+-Flights" stroke="none" stroke-width="1" fill="none" fill-rule="evenodd">
        <g id="SR---Hotel-+-Flights-Calendar" transform="translate(-1159.000000, -1234.000000)" fill="#6522FF">
            <g id="Group-6" transform="translate(499.000000, 1021.000000)">
                <g id="Group-5" transform="translate(13.000000, 192.000000)">
                    <path d="M659.642857,25.2293233 L659.642857,25.7706767 C659.402254,26.0263171 658.680457,26.7330769 657.477444,27.8909774 L654.928571,30.3721805 L651.793233,33.5977444 L651.5,33.6428571 L650.665414,33.056391 L650.642857,32.8082707 C653.469939,29.1240417 655.206764,26.6879759 655.853383,25.5 C655.492479,24.8834556 654.744367,23.7782035 653.609023,22.1842105 C652.473679,20.5902176 651.484967,19.2594038 650.642857,18.1917293 L650.665414,17.943609 L651.5,17.3571429 L651.793233,17.4022556 C653.853394,19.522567 655.733074,21.4097662 657.432331,23.0639098 L659.642857,25.2293233 Z" id="›" transform="translate(655.142857, 25.500000) scale(1, -1) rotate(-90.000000) translate(-655.142857, -25.500000) "/>
                </g>
            </g>
        </g>
    </g>
</svg>
