<?xml version="1.0" encoding="UTF-8"?>
<svg xmlns="http://www.w3.org/2000/svg" xmlns:xlink="http://www.w3.org/1999/xlink" width="17px" height="9px" viewBox="0 0 17 9" version="1.1">
    <!-- Generator: Sketch 45.2 (43514) - http://www.bohemiancoding.com/sketch -->
    <title>›</title>
    <desc>Created with Sketch.</desc>
    <defs/>
    <g id="SR---Hotel-+-Flights" stroke="none" stroke-width="1" fill="none" fill-rule="evenodd">
        <g id="SR---Hotel-+-Flights-Fully-Expanded-Flight-info" transform="translate(-1159.000000, -585.000000)" fill="#373737">
            <path d="M1171.64286,589.229323 L1171.64286,589.770677 C1171.40225,590.026317 1170.68046,590.733077 1169.47744,591.890977 L1166.92857,594.37218 L1163.79323,597.597744 L1163.5,597.642857 L1162.66541,597.056391 L1162.64286,596.808271 C1165.46994,593.124042 1167.20676,590.687976 1167.85338,589.5 C1167.49248,588.883456 1166.74437,587.778203 1165.60902,586.184211 C1164.47368,584.590218 1163.48497,583.259404 1162.64286,582.191729 L1162.66541,581.943609 L1163.5,581.357143 L1163.79323,581.402256 C1165.85339,583.522567 1167.73307,585.409766 1169.43233,587.06391 L1171.64286,589.229323 Z" id="›" transform="translate(1167.142857, 589.500000) rotate(-90.000000) translate(-1167.142857, -589.500000) "/>
        </g>
    </g>
</svg>
