<?xml version="1.0" encoding="UTF-8"?>
<svg xmlns="http://www.w3.org/2000/svg" xmlns:xlink="http://www.w3.org/1999/xlink" width="12px" height="7px" viewBox="0 0 12 7" version="1.1">
    <!-- Generator: Sketch 44.1 (41455) - http://www.bohemiancoding.com/sketch -->
    <title>›</title>
    <desc>Created with Sketch.</desc>
    <defs/>
    <g id="SR---Hotel-+-Flights" stroke="none" stroke-width="1" fill="none" fill-rule="evenodd">
        <g id="SR---Hotel-+-Flights-Fully-Expanded-Flight-info" transform="translate(-1161.000000, -1194.000000)" fill="#6522FF">
            <path d="M1169.64286,1197.60526 L1169.64286,1197.96617 C1169.48246,1198.13659 1169.00126,1198.60777 1168.19925,1199.3797 L1166.5,1201.03383 L1164.40977,1203.18421 L1164.21429,1203.21429 L1163.65789,1202.82331 L1163.64286,1202.65789 C1165.52758,1200.20174 1166.68546,1198.5777 1167.11654,1197.78571 C1166.87594,1197.37468 1166.3772,1196.63785 1165.6203,1195.57519 C1164.8634,1194.51253 1164.20426,1193.62532 1163.64286,1192.91353 L1163.65789,1192.74812 L1164.21429,1192.35714 L1164.40977,1192.38722 C1165.78321,1193.80076 1167.03634,1195.05889 1168.16917,1196.16165 L1169.64286,1197.60526 Z" id="›" transform="translate(1166.642857, 1197.785714) rotate(-90.000000) translate(-1166.642857, -1197.785714) "/>
        </g>
    </g>
</svg>
