<?xml version="1.0" encoding="UTF-8"?>
<svg xmlns="http://www.w3.org/2000/svg" xmlns:xlink="http://www.w3.org/1999/xlink" width="11px" height="20px" viewBox="0 0 11 20" version="1.1">
    <!-- Generator: Sketch 44.1 (41455) - http://www.bohemiancoding.com/sketch -->
    <title>›</title>
    <desc>Created with Sketch.</desc>
    <defs/>
    <g id="Index" stroke="none" stroke-width="1" fill="none" fill-rule="evenodd">
        <g id="Hotels-+-Flights" transform="translate(-1229.000000, -830.000000)" fill="#6522FF">
            <path d="M1240,839.621554 L1240,840.283208 C1239.70593,840.595657 1238.82373,841.459475 1237.35338,842.874687 L1234.2381,845.907268 L1230.40602,849.849624 L1230.04762,849.904762 L1229.02757,849.18797 L1229,848.884712 C1232.45532,844.381765 1234.57811,841.404351 1235.36842,839.952381 C1234.92732,839.198827 1234.01296,837.847963 1232.62531,835.899749 C1231.23767,833.951536 1230.02924,832.324986 1229,831.02005 L1229.02757,830.716792 L1230.04762,830 L1230.40602,830.055138 C1232.92399,832.646629 1235.22138,834.953206 1237.29825,836.974937 L1240,839.621554 Z" id="›" transform="translate(1234.500000, 839.952381) rotate(-360.000000) translate(-1234.500000, -839.952381) "/>
        </g>
    </g>
</svg>
