<?xml version="1.0" encoding="UTF-8"?>
<svg xmlns="http://www.w3.org/2000/svg" xmlns:xlink="http://www.w3.org/1999/xlink" width="7px" height="17px" viewBox="0 0 7 17" version="1.1">
    <!-- Generator: Sketch 44.1 (41455) - http://www.bohemiancoding.com/sketch -->
    <title>Facebook</title>
    <desc>Created with Sketch.</desc>
    <defs/>
    <g id="Symbols" stroke="none" stroke-width="1" fill="none" fill-rule="evenodd">
        <g id="Footer" transform="translate(-982.000000, -41.000000)" fill="#EC8793">
            <g transform="translate(335.000000, 38.000000)" id="Social-Icons">
                <g transform="translate(647.000000, 3.000000)">
                    <g id="Facebook">
                        <path d="M6.79644196,0 C6.79383739,0.0518016613 6.78900031,0.103629393 6.78897706,0.155431054 C6.78855847,0.99369508 6.78672131,1.83195911 6.7911863,2.67019706 C6.79181419,2.78699195 6.76067554,2.81619067 6.6597947,2.81501751 C6.25306212,2.81029879 5.84619,2.81087233 5.43952719,2.81944946 C5.30111253,2.82236933 5.16181418,2.84638006 5.02537621,2.8752138 C4.76882539,2.92941393 4.58199351,3.16261265 4.57104034,3.48648383 C4.55111067,4.07645444 4.55355247,4.66733751 4.54415738,5.25780345 C4.5424365,5.36539553 4.60664397,5.34709419 4.66229355,5.34714633 C5.32478628,5.34766773 5.98730226,5.34748524 6.64979498,5.34745917 L6.8,5.34745917 C6.71088626,6.29545304 6.62384224,7.22139144 6.535868,8.15718441 L4.5471573,8.15718441 C4.5471573,8.22324652 4.54718055,8.2780984 4.5471573,8.33295029 C4.54632011,10.9475916 4.54548293,13.5622589 4.5444597,16.1769263 C4.5444597,16.2246088 4.54199466,16.2723174 4.54069237,16.32 L1.81983976,16.32 C1.82074671,16.2722392 1.82242108,16.2244785 1.82244434,16.1767438 C1.82258387,13.5698193 1.82260713,10.9628948 1.82263038,8.35597035 L1.82263038,8.16117316 L0.00933327796,8.16117316 C0.00649614961,8.10415744 0.00258928433,8.06197572 0.00258928433,8.01982006 C0.00221720192,7.17691553 0.00431016546,6.33401099 7.96262589e-06,5.49113252 C-0.000573416136,5.37457227 0.0305652303,5.34495642 0.131678625,5.34597316 C0.650966134,5.35113508 1.17036992,5.34440895 1.68965743,5.35069188 C1.80046822,5.35204754 1.82404894,5.31064792 1.82449079,5.194583 C1.82742094,4.4387793 1.82423499,3.68250633 1.84837383,2.92743259 C1.86593147,2.37779272 1.96853319,1.84296077 2.19580578,1.34642607 C2.44528703,0.801322428 2.83336899,0.430055463 3.34874963,0.246442428 C3.63446241,0.144637955 3.93666309,0.101022364 4.23142212,0.0309975719 C4.27260699,0.0212212141 4.31358257,0.0103499042 4.35465116,0 L6.79644196,0 Z" id="Fill-1"/>
                    </g>
                </g>
            </g>
        </g>
    </g>
</svg>
