<?xml version="1.0" encoding="UTF-8"?>
<svg xmlns="http://www.w3.org/2000/svg" xmlns:xlink="http://www.w3.org/1999/xlink" width="80px" height="28px" viewBox="0 0 80 28" version="1.1">
    <!-- Generator: Sketch 44.1 (41455) - http://www.bohemiancoding.com/sketch -->
    <title>LOGO DESKTOP</title>
    <desc>Created with Sketch.</desc>
    <defs/>
    <g id="Symbols" stroke="none" stroke-width="1" fill="none" fill-rule="evenodd">
        <g id="Mobile-Footer" transform="translate(-9.000000, -29.000000)">
            <g id="LOGO-DESKTOP" transform="translate(9.000000, 29.000000)">
                <g id="Page-1">
                    <g id="Group-3" transform="translate(0.000000, 0.002428)" fill="#6522FF">
                        <path d="M11.3149314,19.708806 C12.8503827,19.6978077 14.0710325,19.5318338 15.2538484,19.1101857 C15.9049675,18.8780793 16.5715379,18.6839669 17.2749314,18.6811102 C18.0817184,18.677825 18.6638123,19.4598451 18.3566643,20.1930157 C17.9010686,21.2805593 17.1708159,22.1589928 16.1043899,22.7143342 C14.8275668,23.3792298 13.4538484,23.7120347 12.0161588,23.8087338 C10.0456173,23.9414272 8.13644765,23.6678988 6.33312635,22.8724522 C3.461213,21.6055082 1.54901083,19.4734144 0.622368231,16.4884544 C0.153487365,14.9778344 -0.106296029,13.4429325 0.0414296029,11.8588955 C0.212693141,10.0224695 0.681140794,8.26131738 1.45572563,6.58329509 C2.20301805,4.96440637 3.18410108,3.5077779 4.52330686,2.30125302 C5.85875812,1.09801334 7.41529242,0.365414064 9.21168231,0.167873646 C11.2818628,-0.0598048972 12.9441011,1.14272061 13.3624404,3.2053968 C13.7248953,4.99240198 13.3260505,6.62000361 12.1000578,8.00464338 C11.3250397,8.87979171 10.3212852,9.35771668 9.15189892,9.46498556 C8.7380361,9.50283676 8.31522022,9.49883739 7.90077978,9.46455706 C7.27781949,9.41299372 6.71695307,8.80637467 6.67493141,8.18975718 C6.65225993,7.85580961 6.83449819,7.50643588 7.1680722,7.3987385 C7.53240433,7.28104269 7.91666426,7.19619887 8.2980361,7.16348972 C9.83334296,7.03179611 10.926917,5.62844499 10.5855451,4.18252912 C10.4775307,3.724601 10.2658339,3.3193789 9.74410108,3.21753775 C9.56590614,3.18282891 9.36590614,3.21753775 9.18265704,3.25381777 C7.51420939,3.58476581 6.26568953,4.52418977 5.32980505,5.89711709 C4.41384838,7.24104897 3.93341516,8.74095636 3.72532852,10.3394197 C3.51781949,11.9330267 3.67262094,13.4782127 4.30207942,14.9664076 C4.89168231,16.3603317 5.74698917,17.558715 6.96648375,18.4881405 C7.8246787,19.141895 8.80864982,19.4709862 9.8714657,19.5872536 C10.4457617,19.6499581 11.0232347,19.6848098 11.3149314,19.708806" id="Fill-1"/>
                    </g>
                    <path d="M63.1878412,9.22485183 C63.26813,8.96560681 63.3429314,8.658655 63.4583105,8.36727217 C63.6074801,7.99018851 63.7647365,7.61239068 63.9615596,7.25830341 C64.4123899,6.4470022 65.1357112,6.03463836 66.0515235,5.89608868 C67.2142671,5.72011631 68.0580217,6.21846665 68.7232924,7.09418631 C69.2821372,7.82964229 69.537444,8.69807738 69.670296,9.585938 C69.874917,10.9542946 70.0102238,12.3327925 70.1791769,13.706434 C70.3429314,15.0380821 70.5411986,16.3624456 71.0962888,17.6041078 C71.6523899,18.8477697 72.5293574,19.762769 73.817444,20.2945426 C74.361704,20.5192216 74.8850253,20.4907975 75.3898628,20.2856869 C75.8785271,20.0870038 76.3230036,19.784337 76.7991047,19.5518021 C77.1446643,19.3829714 77.4988881,19.2127124 77.8685632,19.1151563 C78.8572996,18.8543401 79.7566498,19.5413751 79.8825704,20.540504 C80.0457473,21.8354436 79.489935,22.7564418 78.4606209,23.4553321 C77.3788881,24.1897883 76.1671913,24.4991683 74.8597545,24.4825994 C73.3300794,24.4631739 71.9544838,24.0089595 70.7619928,23.0595371 C69.7710903,22.270661 69.0775162,21.2443935 68.5039422,20.1379958 C67.7404765,18.6649413 67.2718845,17.0901885 67.0362166,15.4605872 C66.8005487,13.8311287 66.6611986,12.1879581 66.4700072,10.5519292 C66.4388159,10.2852568 66.3798989,10.0168704 66.2938339,9.76262455 C66.2144116,9.52823277 66.06813,9.49309543 65.9030758,9.67349568 C65.717083,9.87689232 65.5436534,10.105285 65.4229314,10.3508179 C65.0604765,11.0879879 64.8827148,11.8848628 64.7471191,12.6867369 C64.5351336,13.9401116 64.3482744,15.1974856 64.1547726,16.4538598 C64.0304404,17.2610188 63.1679134,17.8245018 62.3530397,17.6299609 C61.7846643,17.4941251 61.3809097,17.1566067 61.0961444,16.6615415 C60.7674801,16.0897741 60.6304404,15.4574448 60.4923899,14.8251155 C60.0951336,13.0065439 60.048491,11.1672612 60.1780217,9.32026542 C60.2538339,8.23800675 60.430296,7.16988871 60.7143394,6.12005352 C60.8857473,5.48701005 61.2779495,5.18105808 61.9465415,5.1770587 C62.5978051,5.17305933 62.9547726,5.46958421 63.0018484,6.11034076 C63.0788159,7.15931895 63.1286354,8.21015398 63.1878412,9.22485183" id="Fill-4" fill="#6522FF"/>
                    <path d="M18.550917,9.65664119 C17.4827581,9.72977256 16.5688231,10.1317095 15.8476679,10.9264418 C15.4348159,11.3813704 15.2489675,11.9090019 15.3434079,12.5269049 C15.4712058,13.3622023 16.19987,13.8288434 17.0166209,13.5873098 C17.405213,13.4724707 17.7265126,13.2482202 18.0125776,12.972692 C18.7000866,12.3103674 19.2307726,11.5486299 19.4667292,10.6167762 C19.6056462,10.0682908 19.3458628,9.72348784 18.778787,9.65778386 C18.7038412,9.64907095 18.6268736,9.65664119 18.550917,9.65664119 M19.7682455,14.4396046 C19.35987,14.8966757 18.9701227,15.3787429 18.531278,15.8121034 C17.9770542,16.3595889 17.3275235,16.7806657 16.5730108,17.0211993 C15.1992924,17.4592734 13.6148881,16.9334988 12.7767653,15.7735381 C12.1158267,14.8589674 11.8563321,13.8218445 11.8951769,12.7237311 C11.9579928,10.9437248 12.5750325,9.35183189 13.744852,7.99275954 C14.5073069,7.1068986 15.450556,6.51913373 16.6713502,6.48542474 C17.7821083,6.45471527 18.6502671,6.93392576 19.3540939,7.75036902 C19.4274513,7.83549851 19.4945993,7.92605572 19.5985704,8.05660666 C19.6322166,7.93019793 19.6472347,7.83949788 19.6803032,7.7556539 C19.851278,7.3232932 19.9715668,6.85950887 20.2115668,6.46785607 C20.826296,5.46472783 22.0098339,5.46329948 22.6813141,6.43271873 C22.98413,6.86979297 23.1122166,7.36100157 23.0971986,7.88534783 C23.0687509,8.88647638 23.0583538,9.88917611 22.9880289,10.8875908 C22.8387148,13.0104004 23.3185704,14.9970885 24.23987,16.8967903 C24.8222527,18.0977446 25.5646354,19.1831457 26.6218195,20.0301555 C27.4297617,20.6776253 28.337343,21.0844186 29.3964043,21.1029871 C30.0154657,21.1136997 30.5631913,21.2943857 30.9927942,21.7588842 C31.7213141,22.5470461 31.4931552,23.7944218 30.5038412,24.2182124 C30.0857906,24.3971843 29.6176318,24.4885985 29.1627581,24.5515886 C27.3940939,24.795836 25.8826137,24.2254969 24.5626137,23.0765345 C23.0018917,21.7177478 21.8925776,20.0371544 21.013444,18.1970148 C20.3428303,16.7929495 20.1849964,16.2703172 19.7682455,14.4396046" id="Fill-6" fill="#6522FF"/>
                    <path d="M28.4827148,9.20923999 C28.5975162,8.85372438 28.6978773,8.49278104 28.8300072,8.14369298 C29.0971552,7.43751813 29.4495018,6.7890485 30.0985993,6.33826213 C30.8086354,5.84505384 32.6190325,5.55967007 33.5358556,6.3048388 C34.1316679,6.78890567 34.4931119,7.41652143 34.7173718,8.12012526 C35.1734007,9.55075781 35.3771552,11.0193844 35.3347004,12.5230055 C35.30813,13.4631436 35.3153502,14.4042816 35.3150614,15.3449911 C35.3150614,15.4618299 35.3540505,15.5808112 35.38813,15.6949361 C35.7050975,16.7571979 35.334556,17.8863064 34.4676968,18.4896402 C33.7674801,18.9771351 33.0964332,18.8641529 32.5718123,18.1941152 C32.2222094,17.7477567 32.1446643,17.2209823 32.06813,16.6927795 C31.84387,15.1455938 31.8600433,13.5859815 31.8253863,12.0285117 C31.8109458,11.3827559 31.7485632,10.7378572 31.6965776,10.0935297 C31.6866137,9.96969204 31.636361,9.84399749 31.5814874,9.73015822 C31.4922455,9.54433025 31.3653141,9.50862157 31.224231,9.65674117 C31.049213,9.84056946 30.8799711,10.0432519 30.7643032,10.2662169 C30.4210542,10.9273988 30.2376606,11.6458575 30.1100072,12.3720292 C29.8796823,13.6825377 29.676361,14.9977598 29.4723177,16.3126963 C29.2896462,17.4900829 28.1036534,18.0279984 27.082426,17.3906699 C26.6568664,17.1249973 26.4040144,16.7279168 26.2131119,16.2857005 C25.8871913,15.5315332 25.7674801,14.725374 25.6276968,13.9257853 C25.3466859,12.3193232 25.36387,10.7024342 25.494556,9.08554513 C25.5764332,8.07270413 25.7472635,7.07186125 26.0193213,6.08958688 C26.2040144,5.42297724 26.7848087,5.06060556 27.476361,5.18801413 C27.9871191,5.28214221 28.228852,5.50567854 28.2870469,6.02045487 C28.3520289,6.59536462 28.3885632,7.17441658 28.4126787,7.75275436 C28.4326065,8.23339319 28.416722,8.7156032 28.416722,9.19709904 L28.4827148,9.20923999 Z" id="Fill-8" fill="#6522FF"/>
                    <path d="M55.7675379,13.60445 C55.6362744,13.9621081 55.5415451,14.3387633 55.3649386,14.6729965 C55.1165632,15.1432084 54.8573574,15.6235616 54.5148303,16.0262127 C53.510065,17.2070273 52.0616895,17.2654467 50.9328809,16.2000425 C50.1760578,15.4855833 49.7552635,14.581011 49.5263827,13.5873098 C49.1845776,12.1038284 49.2065271,10.6176332 49.5388014,9.13386611 C49.7310036,8.27614362 49.9208953,7.41770695 50.1128087,6.55984163 C50.2420505,5.98250369 50.745444,5.60927657 51.3067437,5.67255235 C51.9403899,5.74396971 52.3044332,6.15933307 52.2725199,6.81880097 C52.231509,7.66738204 52.1441444,8.5142491 52.1177184,9.362973 C52.0901372,10.2524048 52.1399567,11.1422651 52.4634224,11.9865611 C52.5581516,12.233808 52.7051552,12.4750559 52.8790181,12.6760243 C53.1416895,12.9795481 53.504722,12.9981166 53.8442166,12.7718664 C54.211148,12.5271906 54.432231,12.1658187 54.6141805,11.7820218 C54.9497762,11.0745615 55.1656606,10.3242507 55.2229892,9.55022932 C55.2950469,8.57652504 55.3217617,7.5972502 55.3135307,6.62068922 C55.3048664,5.60370601 56.3746137,5.0046572 57.2354079,5.27361497 C57.7678267,5.43987459 58.1939639,6.02978198 58.2108592,6.60340622 C58.2582238,8.21415335 58.2943249,9.82518616 58.3491986,11.4356476 C58.3874657,12.5634706 58.4182238,13.6950072 58.6709314,14.8016906 C58.7675379,15.2253384 58.9217617,15.6367024 59.0583682,16.0507803 C59.1903538,16.4508603 59.2549025,16.8522259 59.1603177,17.2710173 C59.0216895,17.8857779 58.5881877,18.1883018 58.0121588,18.329851 C57.430787,18.4728286 56.9414007,18.3114254 56.5723032,17.8404993 C56.2121588,17.381 56.0423394,16.8367997 55.9734585,16.2747451 C55.8895596,15.5892813 55.8629892,14.8968186 55.8183682,14.2069269 C55.8055162,14.0071011 55.816491,13.8059898 55.816491,13.605307 C55.8001733,13.6050213 55.7838556,13.6047357 55.7675379,13.60445" id="Fill-10" fill="#6522FF"/>
                    <path d="M43.2842888,5.65634061 C43.902917,5.66119699 44.5146137,5.7246156 45.0956968,5.94600942 C45.7075379,6.17925852 46.1686209,6.57191116 46.3381516,7.22852237 C46.5530253,8.06024894 45.9289097,8.71800283 45.0799567,8.55659959 C44.9611119,8.53403171 44.8308592,8.51732004 44.7310758,8.45704379 C44.2955523,8.19408507 43.8458773,8.29164119 43.4097762,8.41333637 C42.0759134,8.78527798 41.3521588,9.714275 41.077935,11.0153565 C40.9486931,11.6284031 40.9725199,12.2434494 41.2058773,12.8373561 C41.5827726,13.7959199 42.4044332,14.1411515 43.3652996,13.7460706 C44.1062383,13.441547 44.6930975,12.9326269 45.2367798,12.3665729 C45.3468159,12.2518766 45.4610397,12.1393229 45.5569242,12.0136283 C45.8724477,11.6001218 46.3177906,11.4560016 46.8103538,11.4147223 C47.3049386,11.3733003 47.7774296,11.6503996 48.0008231,12.0951869 C48.2598845,12.6109631 48.2545415,13.1408799 48.0796679,13.6753674 C47.810787,14.4978098 47.3433502,15.1879871 46.6593069,15.7321874 C45.8959856,16.3393778 45.0816895,16.8770077 44.1697762,17.2258101 C42.5891264,17.8301438 41.0538195,17.6176057 39.6087653,16.7918782 C38.2929531,16.0399962 37.4146859,14.9540239 37.1619783,13.4308344 C37.0057329,12.4886966 37.102917,11.5676983 37.4096318,10.6714105 C37.9162022,9.19021441 38.7150469,7.89170397 39.9319422,6.86929305 C40.8930975,6.06170554 42.0471769,5.64819903 43.2842888,5.65634061" id="Fill-12" fill="#6522FF"/>
                    <path d="M55.0289819,21.1365247 C55.4577184,20.62989 55.9242888,20.2200972 56.6112202,20.2276674 C57.3728087,20.2359518 57.6585848,20.7930072 57.885444,21.4027686 C58.0341805,21.185517 58.1605343,20.974693 58.3130253,20.7844371 C58.5248664,20.5200501 58.7959134,20.3279374 59.1250108,20.2238109 C59.9062383,19.976564 60.5907148,20.2696608 60.8474657,21.0388258 C60.9901372,21.4661873 61.03187,21.9351136 61.0614729,22.3888995 C61.1066715,23.0800768 61.2151191,23.7469721 61.5343971,24.371874 C62.0967076,25.4727011 63.1569242,25.9786217 64.4050108,25.8956348 C64.6532419,25.8790659 64.8594513,25.7997927 65.0753357,25.6642425 C65.3390181,25.4989827 65.6494874,25.3557195 65.9544693,25.3170113 C66.5576462,25.2403091 67.0130975,25.7955076 66.9170686,26.4161245 C66.8473213,26.8660538 66.5858051,27.1830041 66.2133863,27.4236806 C65.5245776,27.8688964 64.7544693,28.0143022 63.9486931,27.9965906 C62.882556,27.9733086 61.8850108,27.7129209 61.0187292,27.0714502 C59.9460939,26.2772891 59.3690542,25.1901741 59.2247942,23.8928063 C59.1596679,23.3066126 59.2184404,22.7072781 59.2138195,22.1140855 C59.2126643,21.952111 59.2981516,21.7221471 59.0705704,21.6685841 C58.8489097,21.6163065 58.7255884,21.8162752 58.6623394,21.9925332 C58.469704,22.5301631 58.2988736,23.0753632 58.1193791,23.6175638 C58.03187,23.8819509 57.955769,24.1507658 57.8532419,24.4092967 C57.6912202,24.8185181 57.3030614,25.0076313 56.8307148,24.9279295 C56.4580072,24.8650822 56.1400289,24.513566 56.1499928,24.1054872 C56.1611119,23.6479876 56.2246498,23.1917735 56.2617617,22.7347024 C56.2793791,22.517308 56.2998845,22.2991993 56.296852,22.0818049 C56.2954079,21.973679 56.2665271,21.8528408 56.210787,21.7612838 C56.0480433,21.4937544 55.7834946,21.4873268 55.6777906,21.7754244 C55.5237112,22.1956442 55.4029892,22.6361464 55.3369964,23.0779342 C55.2337473,23.7692543 55.1915812,24.4691444 55.1167798,25.1647495 C55.0717256,25.5826839 54.8902094,25.7682262 54.4647942,25.857355 C54.0736029,25.9393422 53.7426282,25.8266456 53.5819061,25.4704158 C53.4356245,25.1463238 53.324722,24.7910939 53.2812563,24.4395776 C53.1208231,23.1447809 53.3264549,21.8726949 53.6048664,20.61175 C53.7163466,20.1064007 53.9676101,19.9195729 54.3668881,20.0048452 C54.6909314,20.0739772 54.8714368,20.3043696 54.9541805,20.6048939 C54.9990903,20.768154 55.0031336,20.9422695 55.0289819,21.1365247" id="Fill-14" fill="#EC8793"/>
                    <path d="M48.9446354,22.082719 C48.7592202,22.4810851 48.7522888,22.9364422 48.8831191,23.3553764 C48.9293285,23.503496 48.9814585,23.6486161 49.0494729,23.7861659 C49.2190036,24.1286836 49.5558989,24.1823894 49.88413,23.9868487 C50.4771986,23.6331899 50.7608087,22.7310458 50.4617473,22.1148569 C50.3249964,21.8330439 50.1238412,21.6067938 49.7803032,21.582369 C49.4285343,21.5572301 49.1450686,21.7087777 48.9829025,22.0065881 C48.9693285,22.0315842 48.9566209,22.056866 48.9446354,22.082719 M47.0535162,22.9478689 C47.0910614,22.0165866 47.358065,21.1845743 48.1232635,20.5759556 C49.3619639,19.5908245 51.2289675,19.8733516 52.1260072,21.1772898 C52.9288953,22.3443922 52.8354657,23.8434426 51.873444,24.8881358 C51.2538051,25.5610301 50.4709892,25.9355428 49.5463682,25.8911212 C48.473444,25.839415 47.7622527,25.2333673 47.3336606,24.2879443 C47.1420361,23.8654392 47.0458628,23.416224 47.0535162,22.9478689" id="Fill-16" fill="#EC8793"/>
                    <path d="M43.4682888,26.0202295 C42.5763032,25.9972331 41.8685776,25.7635555 41.2606354,25.2597774 C40.5871336,24.7017222 40.3100217,23.9762646 40.4919711,23.140253 C40.7956534,21.7449006 41.5904549,20.7217755 42.9983971,20.2565629 C43.6060505,20.0557372 44.2308881,20.1004445 44.8414296,20.2808448 C45.1116101,20.3605465 45.333704,20.5166649 45.4769531,20.765483 C45.7082888,21.1669914 45.4675668,21.5829261 44.9999856,21.5839259 C44.8950036,21.5842116 44.786556,21.5706423 44.6856173,21.5426467 C43.7581083,21.2845443 42.7868448,21.8911634 42.6313213,22.8388718 C42.5820794,23.1382533 42.5854007,23.4386348 42.7311047,23.721876 C42.934426,24.1169568 43.3039567,24.286216 43.7400578,24.1740907 C44.2606354,24.0403974 44.6629458,23.7203048 45.0268448,23.3502201 C45.2215018,23.152394 45.4392635,23.0244141 45.7173863,22.9927048 C46.2064838,22.9369992 46.5677834,23.2529496 46.5592635,23.7404445 C46.5514657,24.1919451 46.3338484,24.567886 46.0142816,24.8496989 C45.2620794,25.5130234 44.4099495,25.9893772 43.4682888,26.0202295" id="Fill-18" fill="#EC8793"/>
                    <path d="M36.9616751,21.9386702 C37.5739495,21.9399557 38.2090397,22.3694597 38.4607365,22.9532252 C38.7062238,23.5227073 38.5807365,24.2274538 38.1387148,24.6699557 C37.7840578,25.0251857 37.3494007,25.095746 36.8748881,24.9657664 C35.7660072,24.6622427 35.3011697,23.4171524 35.9424693,22.4738719 C36.1862238,22.1153568 36.5265848,21.9388131 36.9616751,21.9386702" id="Fill-20" fill="#EC8793"/>
                </g>
            </g>
        </g>
    </g>
</svg>
