<?xml version="1.0" encoding="UTF-8"?>
<svg xmlns="http://www.w3.org/2000/svg" xmlns:xlink="http://www.w3.org/1999/xlink" width="21px" height="20px" viewBox="0 0 21 20" version="1.1">
    <!-- Generator: Sketch 44.1 (41455) - http://www.bohemiancoding.com/sketch -->
    <title>Group 5</title>
    <desc>Created with Sketch.</desc>
    <defs/>
    <g id="Symbols" stroke="none" stroke-width="1" fill="none" fill-rule="evenodd">
        <g id="Amenities" transform="translate(-121.000000, -1.000000)">
            <g id="Page-1">
                <g id="Group-118" transform="translate(38.805970, 0.180597)">
                    <g id="Group-5" transform="translate(82.000000, 1.000000)">
                        <path d="M4.43102345,11.4123667 C4.35724947,11.4123667 4.28816631,11.4411514 4.23614072,11.493177 L1.96791045,13.7609808 C1.86044776,13.8686567 1.86044776,14.0439232 1.96812367,14.1513859 L6.34509595,18.5289979 C6.44957356,18.6328358 6.63187633,18.6328358 6.73571429,18.5287846 L9.00373134,16.2605544 C9.05575693,16.2083156 9.08454158,16.1390192 9.08454158,16.0654584 C9.08454158,15.9916844 9.05575693,15.9223881 9.00373134,15.8703625 L4.62654584,11.493177 C4.57430704,11.4411514 4.50501066,11.4123667 4.43102345,11.4123667 M6.54040512,19.6162047 C6.19797441,19.6162047 5.87601279,19.4827292 5.63358209,19.2407249 L1.25660981,14.863113 C0.756609808,14.3633262 0.756183369,13.5498934 1.25597015,13.0496802 L3.52420043,10.7814499 C4.00863539,10.2968017 4.85362473,10.2970149 5.3380597,10.7814499 L9.71545842,15.1586354 C9.95767591,15.4008529 10.0909382,15.7230277 10.0909382,16.0654584 C10.0909382,16.4078891 9.95767591,16.730064 9.71545842,16.9720682 L7.44722814,19.2405117 C7.20501066,19.4827292 6.88283582,19.6162047 6.54040512,19.6162047" id="Fill-102" fill="#353535"/>
                        <path d="M4.43102345,11.4123667 C4.35724947,11.4123667 4.28816631,11.4411514 4.23614072,11.493177 L1.96791045,13.7609808 C1.86044776,13.8686567 1.86044776,14.0439232 1.96812367,14.1513859 L6.34509595,18.5289979 C6.44957356,18.6328358 6.63187633,18.6328358 6.73571429,18.5287846 L9.00373134,16.2605544 C9.05575693,16.2083156 9.08454158,16.1390192 9.08454158,16.0654584 C9.08454158,15.9916844 9.05575693,15.9223881 9.00373134,15.8703625 L4.62654584,11.493177 C4.57430704,11.4411514 4.50501066,11.4123667 4.43102345,11.4123667 Z M6.54040512,19.6162047 C6.19797441,19.6162047 5.87601279,19.4827292 5.63358209,19.2407249 L1.25660981,14.863113 C0.756609808,14.3633262 0.756183369,13.5498934 1.25597015,13.0496802 L3.52420043,10.7814499 C4.00863539,10.2968017 4.85362473,10.2970149 5.3380597,10.7814499 L9.71545842,15.1586354 C9.95767591,15.4008529 10.0909382,15.7230277 10.0909382,16.0654584 C10.0909382,16.4078891 9.95767591,16.730064 9.71545842,16.9720682 L7.44722814,19.2405117 C7.20501066,19.4827292 6.88283582,19.6162047 6.54040512,19.6162047 Z" id="Stroke-104" stroke="#353535" stroke-width="0.2"/>
                        <path d="M14.4710448,1.37249467 C14.3972708,1.37249467 14.3279744,1.40127932 14.276162,1.45309168 L12.008145,3.72110874 C11.9561194,3.77313433 11.9273348,3.8424307 11.9273348,3.91599147 C11.927548,3.98976546 11.9563326,4.05906183 12.0083582,4.11130064 L16.3855437,8.48848614 C16.4900213,8.59253731 16.6710448,8.59296375 16.7755224,8.48848614 L19.0439659,6.22046908 C19.0959915,6.1684435 19.1245629,6.09914712 19.1245629,6.02558635 C19.1245629,5.95159915 19.0957783,5.88230277 19.0437527,5.83027719 L14.6665672,1.45309168 C14.6145416,1.40127932 14.545032,1.37249467 14.4710448,1.37249467 M16.5806397,9.57569296 C16.2379957,9.57569296 15.9160341,9.4424307 15.6738166,9.20021322 L11.2966311,4.8228145 C11.0546269,4.58081023 10.9211514,4.25884861 10.9209382,3.91641791 C10.9209382,3.57356077 11.0542004,3.25159915 11.2966311,3.00916844 L13.564435,0.741364606 C14.0486567,0.257142857 14.8934328,0.257142857 15.378081,0.741151386 L19.7554797,5.11855011 C19.9979104,5.36076759 20.1311727,5.68294243 20.1309595,6.02558635 C20.1309595,6.36823028 19.9976972,6.6901919 19.7554797,6.93219616 L17.4872495,9.20021322 C17.2452452,9.4424307 16.9232836,9.57569296 16.5806397,9.57569296" id="Fill-106" fill="#353535"/>
                        <path d="M14.4710448,1.37249467 C14.3972708,1.37249467 14.3279744,1.40127932 14.276162,1.45309168 L12.008145,3.72110874 C11.9561194,3.77313433 11.9273348,3.8424307 11.9273348,3.91599147 C11.927548,3.98976546 11.9563326,4.05906183 12.0083582,4.11130064 L16.3855437,8.48848614 C16.4900213,8.59253731 16.6710448,8.59296375 16.7755224,8.48848614 L19.0439659,6.22046908 C19.0959915,6.1684435 19.1245629,6.09914712 19.1245629,6.02558635 C19.1245629,5.95159915 19.0957783,5.88230277 19.0437527,5.83027719 L14.6665672,1.45309168 C14.6145416,1.40127932 14.545032,1.37249467 14.4710448,1.37249467 Z M16.5806397,9.57569296 C16.2379957,9.57569296 15.9160341,9.4424307 15.6738166,9.20021322 L11.2966311,4.8228145 C11.0546269,4.58081023 10.9211514,4.25884861 10.9209382,3.91641791 C10.9209382,3.57356077 11.0542004,3.25159915 11.2966311,3.00916844 L13.564435,0.741364606 C14.0486567,0.257142857 14.8934328,0.257142857 15.378081,0.741151386 L19.7554797,5.11855011 C19.9979104,5.36076759 20.1311727,5.68294243 20.1309595,6.02558635 C20.1309595,6.36823028 19.9976972,6.6901919 19.7554797,6.93219616 L17.4872495,9.20021322 C17.2452452,9.4424307 16.9232836,9.57569296 16.5806397,9.57569296 Z" id="Stroke-108" stroke="#353535" stroke-width="0.2"/>
                        <path d="M7.26987207,12.2403198 C7.14108742,12.2403198 7.01230277,12.1910661 6.91400853,12.0929851 C6.71742004,11.8963966 6.71742004,11.5778465 6.91400853,11.381258 L11.8958849,6.39916844 C12.0924733,6.20257996 12.4110235,6.20257996 12.6076119,6.39916844 C12.8042004,6.59554371 12.8042004,6.91430704 12.6076119,7.11089552 L7.62573561,12.0929851 C7.52744136,12.1910661 7.39865672,12.2403198 7.26987207,12.2403198" id="Fill-110" fill="#353535"/>
                        <path d="M7.26987207,12.2403198 C7.14108742,12.2403198 7.01230277,12.1910661 6.91400853,12.0929851 C6.71742004,11.8963966 6.71742004,11.5778465 6.91400853,11.381258 L11.8958849,6.39916844 C12.0924733,6.20257996 12.4110235,6.20257996 12.6076119,6.39916844 C12.8042004,6.59554371 12.8042004,6.91430704 12.6076119,7.11089552 L7.62573561,12.0929851 C7.52744136,12.1910661 7.39865672,12.2403198 7.26987207,12.2403198 Z" id="Stroke-112" stroke="#353535" stroke-width="0.2"/>
                        <path d="M8.75963753,13.7304264 C8.63085288,13.7304264 8.50206823,13.6811727 8.40377399,13.5830917 C8.2071855,13.3865032 8.2071855,13.0679531 8.40377399,12.8713646 L13.3860768,7.88884861 C13.5826652,7.69247335 13.9012154,7.69247335 14.0978038,7.88884861 C14.2943923,8.0854371 14.2943923,8.40398721 14.0978038,8.60057569 L9.11550107,13.5830917 C9.01720682,13.6811727 8.88842217,13.7304264 8.75963753,13.7304264" id="Fill-114" fill="#353535"/>
                        <path d="M8.75963753,13.7304264 C8.63085288,13.7304264 8.50206823,13.6811727 8.40377399,13.5830917 C8.2071855,13.3865032 8.2071855,13.0679531 8.40377399,12.8713646 L13.3860768,7.88884861 C13.5826652,7.69247335 13.9012154,7.69247335 14.0978038,7.88884861 C14.2943923,8.0854371 14.2943923,8.40398721 14.0978038,8.60057569 L9.11550107,13.5830917 C9.01720682,13.6811727 8.88842217,13.7304264 8.75963753,13.7304264 Z" id="Stroke-116" stroke="#353535" stroke-width="0.2"/>
                    </g>
                </g>
            </g>
        </g>
    </g>
</svg>
