<?xml version="1.0" encoding="UTF-8"?>
<svg xmlns="http://www.w3.org/2000/svg" xmlns:xlink="http://www.w3.org/1999/xlink" width="6px" height="10px" viewBox="0 0 6 10" version="1.1">
    <!-- Generator: Sketch 44.1 (41455) - http://www.bohemiancoding.com/sketch -->
    <title>Page 1</title>
    <desc>Created with Sketch.</desc>
    <defs/>
    <g id="Symbols" stroke="none" stroke-width="1" fill="none" fill-rule="evenodd">
        <g id="rating" transform="translate(-51.000000, -8.000000)" fill="#EE8F8F">
            <g id="Page-1">
                <g transform="translate(2.000000, 8.000000)">
                    <g transform="translate(49.465590, 0.000000)">
                        <path d="M4.88390263,0.0359189788 C4.82000958,0.081840964 4.76333025,0.143735814 4.7210784,0.22459844 L3.44527837,2.70139073 C3.37829372,2.74831101 3.2968816,2.80721095 3.22989695,2.85413124 L0.409327761,3.29837653 C0.212495932,3.32932396 0.0713128929,3.43714079 0.0197862362,3.59487283 C-0.0317404205,3.75160656 0.0197862362,3.91932164 0.160969276,4.05409268 L1.12142616,4.96853917 C1.19459401,5.03941875 2.13340969,5.93389916 2.19833328,5.99579401 C2.24882941,6.0437126 2.29314233,6.17449043 2.282837,6.2413768 L1.84692148,8.97672983 C1.81703602,9.16740589 1.87886801,9.33112776 2.01695945,9.42696494 C2.05405864,9.45292085 2.09424944,9.47288693 2.13753183,9.48486657 C2.25192101,9.51880891 2.38279871,9.50383435 2.51161536,9.43894459 L4.64378841,8.36576776 C4.89523849,8.23898315 5.06115433,7.99639527 5.08382606,7.72285997 L5.11783365,7.31056041 C5.11371152,7.25465538 5.13432218,1.63819694 5.13432218,1.25085498 C5.13535272,0.826575767 5.14771911,0.481162574 5.14771911,0.173684934 C5.14771911,0.0748528358 5.04878793,-0.00101827011 4.98798648,-1.99660806e-05 C4.95603995,-1.99660806e-05 4.91791022,0.0159528983 4.88390263,0.0359189788 Z" id="Fill-1"/>
                    </g>
                </g>
            </g>
        </g>
    </g>
</svg>
