<?xml version="1.0" encoding="UTF-8"?>
<svg xmlns="http://www.w3.org/2000/svg" xmlns:xlink="http://www.w3.org/1999/xlink" width="33px" height="27px" viewBox="0 0 33 27" version="1.1">
    <!-- Generator: Sketch 45.2 (43514) - http://www.bohemiancoding.com/sketch -->
    <title>Heart Icon</title>
    <desc>Created with Sketch.</desc>
    <defs/>
    <g id="Landing-Page---Hotel" stroke="none" stroke-width="1" fill="none" fill-rule="evenodd">
        <g id="Hotel-Landing-Mobile" transform="translate(-329.000000, -258.000000)">
            <g id="Group-6" transform="translate(7.000000, 143.000000)">
                <g id="904536_308_z" transform="translate(0.000000, 102.000000)">
                    <g id="Heart-Icon" transform="translate(323.000000, 14.000000)">
                        <path d="M15.9663013,4.62909363 C16.4307903,4.13286142 16.8416673,3.65673659 17.2911152,3.22082653 C18.5681249,1.9824218 19.9915255,0.95694526 21.6989211,0.413295637 C24.0596393,-0.338180297 26.3110486,-0.0857876208 28.3687097,1.34243681 C29.6689514,2.24501823 30.4256262,3.54179439 30.7827422,5.08030931 C31.0414205,6.19476853 31.0417183,7.31823106 30.9257077,8.4526476 C30.8204196,9.48172547 30.552806,10.4572337 30.1011243,11.3815731 C29.6135522,12.3797396 28.9971623,13.2961261 28.3091407,14.1638947 C27.060724,15.7382728 25.6386638,17.1415881 24.1367812,18.4671748 C22.5934981,19.8295251 20.9834977,21.1060438 19.301419,22.288478 C18.2655146,23.0166954 17.2065272,23.7119006 16.1604961,24.4258628 C16.0538677,24.4986395 15.9811935,24.5191971 15.8601196,24.4348661 C14.4373147,23.4430019 12.9923204,22.4824992 11.5864928,21.4670764 C9.77291548,20.1570953 8.06105221,18.7177668 6.44703097,17.1634961 C5.36883262,16.1251148 4.34111896,15.0379657 3.44073399,13.8375249 C2.56611259,12.6715968 1.78337632,11.4469971 1.37800948,10.0256752 C1.03310515,8.81683133 0.940624323,7.57767632 1.03444545,6.32261548 C1.10935343,5.32114775 1.34286379,4.36514671 1.80497007,3.47276904 C2.56700612,2.0014788 3.75138616,1.01486653 5.29258433,0.468515913 C7.46015022,-0.300066302 9.566509,-0.0925401003 11.5990022,0.951843386 C13.2970157,1.82411367 14.7111831,3.04961366 15.9107532,4.5339587 C15.9332405,4.56186895 15.947537,4.59638162 15.9663013,4.62909363" id="Fill-1" fill="#373737" opacity="0.200000003"/>
                        <path d="M15.311663,4.897819 C14.1121536,3.42497399 12.6980577,2.20896861 11.0001302,1.34345627 C8.96773973,0.307164191 6.86148751,0.101245808 4.69403127,0.8638734 C3.15291106,1.40599114 1.96859093,2.38495959 1.20659343,3.84485095 C0.744510523,4.73031489 0.511011974,5.67890926 0.436107784,6.67261808 C0.342291402,7.91795528 0.43476755,9.14750988 0.779654437,10.3469882 C1.18500077,11.7572983 1.96769744,12.9724104 2.84227459,14.1293054 C3.74261403,15.3204457 4.77027569,16.3991722 5.8484195,17.4295085 C7.46235909,18.9717375 9.17413576,20.3999147 10.9876213,21.6997466 C12.3933779,22.7073024 13.8382991,23.6603636 15.2610319,24.6445433 C15.3820997,24.7282209 15.4547702,24.7078226 15.5613933,24.6356097 C16.6073715,23.927179 17.6663053,23.2373599 18.7021572,22.5147844 C20.3841509,21.3415112 21.9940698,20.0748823 23.5372748,18.7230869 C25.0390815,17.4077702 26.4610698,16.0153272 27.7094233,14.4531467 C28.3974101,13.5921011 29.0137689,12.6828144 29.5013162,11.6923812 C29.9529751,10.7752031 30.2205752,9.80725273 30.325858,8.78614769 C30.4418627,7.66052008 30.4415649,6.54576163 30.1828997,5.43993673 C29.8258018,3.91334152 29.0691652,2.62661219 27.7689893,1.73102355 C25.7114323,0.313864356 23.4601369,0.0634271029 21.0995381,0.809080945 C19.3922288,1.34851862 17.9689003,2.36605024 16.6919551,3.59486037 C16.24253,4.0273932 15.8275637,4.47280707 15.3630981,4.9651947 C15.3438286,4.94107056 15.3341491,4.92551301 15.311663,4.897819 Z M17.9690492,1.98920322 C19.2778622,1.03986438 20.6976168,0.323244586 22.3143858,0.0991613126 C24.5685105,-0.21336413 26.6455754,0.250138349 28.4225768,1.71881437 C29.6686966,2.74885296 30.3767869,4.12179108 30.6527262,5.70288096 C30.9518962,7.41648521 30.8588244,9.1192203 30.3151361,10.7765432 C29.8850699,12.0872442 29.146452,13.2368435 28.3205701,14.3309059 C27.0440716,16.0218785 25.543903,17.5024659 23.9624269,18.9010135 C22.6424453,20.068331 21.2774914,21.183834 19.8331658,22.1955588 C18.4853372,23.1398353 17.1188941,24.0577578 15.7646621,24.9929518 C15.5191014,25.1623915 15.3013879,25.1598603 15.0500195,25.0002475 C12.9480858,23.6655748 10.9168867,22.2306974 8.9684843,20.6817683 C7.29393635,19.350669 5.6874425,17.9403589 4.22360912,16.3765405 C2.9173277,14.9809707 1.72809338,13.4985966 0.889702542,11.7628074 C0.392475721,10.7332154 0.131725746,9.64629989 0.0438659605,8.5103987 C-0.0195717831,7.68925634 -0.0228479107,6.87124073 0.0919654703,6.05456514 C0.487334506,3.24406955 2.24765743,1.12190417 5.01672983,0.32815804 C6.03158482,0.0372220158 7.06624548,-0.0665560848 8.11430848,0.0421354697 C9.30160691,0.165120708 10.4120653,0.548816784 11.4575967,1.11907521 C12.9518087,1.93396409 14.2333703,3.01075494 15.3438286,4.29569756 C15.3573799,4.31133128 15.3761431,4.32234933 15.4112871,4.3507878 C16.1734335,3.45028572 17.028056,2.67187552 17.9690492,1.98920322 Z" id="Fill-1" stroke="#FFFFFF" stroke-width="1.21" fill="#FFFFFF"/>
                    </g>
                </g>
            </g>
        </g>
    </g>
</svg>
