<?xml version="1.0" encoding="UTF-8"?>
<svg xmlns="http://www.w3.org/2000/svg" xmlns:xlink="http://www.w3.org/1999/xlink" width="16px" height="16px" viewBox="0 0 16 16" version="1.1">
    <!-- Generator: Sketch 45.2 (43514) - http://www.bohemiancoding.com/sketch -->
    <title>Instagram</title>
    <desc>Created with Sketch.</desc>
    <defs/>
    <g id="Symbols" stroke="none" stroke-width="1" fill="none" fill-rule="evenodd">
        <g id="Footer" transform="translate(-1048.000000, -41.000000)" fill="#373737">
            <g transform="translate(335.000000, 38.000000)" id="Social-Icons">
                <g transform="translate(647.000000, 3.000000)">
                    <g id="Instagram" transform="translate(66.000000, 0.000000)">
                        <path d="M11.4728,3.5364 C11.4728,4.2724 12.0541333,4.85906667 12.7808,4.8564 C13.5061333,4.85373333 14.0981333,4.26173333 14.0994667,3.5404 C14.1008,2.8124 13.5168,2.22306667 12.7914667,2.2204 C12.0501333,2.21773333 11.4728,2.79373333 11.4728,3.5364 M4.19013333,7.89506667 C4.16613333,10.2737333 6.13413333,12.1364 8.41946667,12.1364 C10.7408,12.1377333 12.6394667,10.2364 12.6434667,7.91906667 C12.6474667,5.57906667 10.7474667,3.66973333 8.41546667,3.67106667 C6.1448,3.67373333 4.1768,5.5244 4.19013333,7.89506667 M8.41813333,0.4884 L12.0928,0.4884 C13.7061333,0.4884 15.2808,1.6084 15.7168,3.34306667 C15.8021333,3.67906667 15.8421333,4.0204 15.8421333,4.36706667 C15.8408,6.7524 15.8474667,9.13773333 15.8381333,11.5230667 C15.8341333,12.5444 15.4741333,13.4364 14.7648,14.1724 C14.2074667,14.7497333 13.5221333,15.1084 12.7354667,15.2644 C12.5394667,15.3017333 12.3368,15.3190667 12.1368,15.3204 C9.6528,15.3230667 7.1688,15.3444 4.6848,15.3137333 C3.31546667,15.2964 2.2648,14.6377333 1.53546667,13.4830667 C1.1568,12.8857333 0.994133333,12.2190667 0.994133333,11.5164 C0.991466667,9.11106667 0.9768,6.70706667 0.998133333,4.30306667 C1.0128,2.71906667 1.75946667,1.56173333 3.17546667,0.849733333 C3.68613333,0.5924 4.23546667,0.481733333 4.81146667,0.485733333 C6.0128,0.493733333 7.21546667,0.4884 8.41813333,0.4884" id="Fill-4"/>
                        <path d="M8.41826667,4.99413333 C10.0062667,4.9888 11.3289333,6.25546667 11.3316,7.9008 C11.3342667,9.5448 10.0222667,10.8061333 8.44626667,10.8154667 C6.80093333,10.8261333 5.50093333,9.5328 5.4996,7.90746667 C5.49826667,6.29013333 6.79693333,4.99413333 8.41826667,4.99413333" id="Fill-10"/>
                    </g>
                </g>
            </g>
        </g>
    </g>
</svg>
