<?xml version="1.0" encoding="UTF-8"?>
<svg xmlns="http://www.w3.org/2000/svg" xmlns:xlink="http://www.w3.org/1999/xlink" width="12px" height="16px" viewBox="0 0 12 16" version="1.1">
    <!-- Generator: Sketch 44.1 (41455) - http://www.bohemiancoding.com/sketch -->
    <title>Fill 1</title>
    <desc>Created with Sketch.</desc>
    <defs/>
    <g id="Landing-Page---Hotel" stroke="none" stroke-width="1" fill="none" fill-rule="evenodd">
        <g id="Hotel-Landing-Page---Hotel-Note" transform="translate(-235.000000, -203.000000)" stroke="#CACACA" fill="#CACACA">
            <path d="M244.924859,208.876854 C244.915048,206.711759 243.157067,204.954941 240.998584,204.953073 C238.844739,204.951205 237.078067,206.717523 237.073214,208.877708 C237.068362,211.034423 238.85535,212.82828 241.004929,212.810134 C243.202818,212.791562 244.912915,211.030901 244.924859,208.876854 L244.924859,208.876854 Z M240.931984,218 C240.874876,217.898651 240.799905,217.803227 240.763592,217.694833 C240.585496,217.163433 240.34288,216.661759 240.074349,216.172414 C239.581065,215.273618 238.974312,214.449913 238.378329,213.618789 C237.875874,212.918047 237.371659,212.217839 236.894478,211.499912 C236.550337,210.982175 236.273434,210.424356 236.108349,209.818719 C235.961392,209.27958 235.980109,208.736332 236.06857,208.190895 C236.176708,207.52447 236.413885,206.908639 236.774663,206.338599 C237.206093,205.656964 237.768643,205.112915 238.461565,204.700955 C239.132306,204.302178 239.857061,204.079787 240.632953,204.017986 C240.665906,204.01537 240.698273,204.006137 240.730906,204 L241.267168,204 C241.454649,204.025884 241.642556,204.048886 241.829557,204.07808 C242.496832,204.182257 243.111104,204.426956 243.680265,204.787574 C244.269529,205.160894 244.75876,205.640152 245.148493,206.216917 C245.516896,206.76214 245.773589,207.360625 245.89911,208.00677 C246.026603,208.663055 246.05881,209.320995 245.843441,209.971729 C245.666678,210.505958 245.418143,211.006991 245.104395,211.468424 C244.590209,212.22467 244.054694,212.966774 243.51406,213.704394 C242.981584,214.430913 242.45508,215.161275 242.00936,215.944686 C241.672363,216.536928 241.384583,217.153719 241.180306,217.807069 C241.157964,217.878638 241.090351,217.93601 241.043694,218 L240.931984,218 Z" id="Fill-1"/>
        </g>
    </g>
</svg>
