<?xml version="1.0" encoding="UTF-8"?>
<svg xmlns="http://www.w3.org/2000/svg" xmlns:xlink="http://www.w3.org/1999/xlink" width="130px" height="46px" viewBox="0 0 130 46" version="1.1">
    <!-- Generator: Sketch 44.1 (41455) - http://www.bohemiancoding.com/sketch -->
    <title>LOGO DESKTOP</title>
    <desc>Created with Sketch.</desc>
    <defs/>
    <g id="Symbols" stroke="none" stroke-width="1" fill="none" fill-rule="evenodd">
        <g id="Footer" transform="translate(-86.000000, -35.000000)">
            <g id="LOGO-DESKTOP" transform="translate(86.000000, 35.000000)">
                <g id="Page-1">
                    <g id="Group-3" transform="translate(0.000000, 0.003989)" fill="#6522FF">
                        <path d="M18.3867635,32.3787527 C20.8818718,32.3606841 22.8654278,32.0880126 24.7875036,31.3953051 C25.8455722,31.0139874 26.9287491,30.6950884 28.0717635,30.6903953 C29.3827924,30.6849982 30.3286949,31.9697455 29.8295794,33.1742401 C29.0892365,34.9609188 27.9025758,36.4040596 26.1696336,37.3164061 C24.094796,38.4087347 21.8625036,38.9554856 19.5262581,39.1143484 C16.3241282,39.3323448 13.2217274,38.8829765 10.2913303,37.5761715 C5.62447112,35.4947635 2.5171426,31.9920379 1.01134838,27.0881751 C0.249416968,24.6064422 -0.172731047,22.0848177 0.0673231047,19.4824711 C0.345626354,16.4654856 1.10685379,13.5721643 2.36555415,10.8154134 C3.57990433,8.15581047 5.17416426,5.76277798 7.35037365,3.78062996 C9.52048195,1.80387906 12.0498502,0.600323105 14.9689838,0.275792419 C18.3330271,-0.0982509025 21.0341643,1.87732671 21.7139657,5.26600903 C22.3029549,8.20180325 21.6548321,10.8757202 19.6625939,13.1504856 C18.4031895,14.5882292 16.7720884,15.3733917 14.8718357,15.5496191 C14.1993087,15.6118032 13.5122329,15.6052329 12.8387671,15.5489152 C11.8264567,15.464204 10.9150487,14.4676155 10.8467635,13.4546011 C10.8099224,12.9059729 11.1060596,12.3320018 11.6481173,12.1550704 C12.240157,11.961713 12.8645794,11.8223267 13.4843087,11.7685903 C15.9791823,11.5522365 17.7562401,9.24673105 17.2015108,6.87129783 C17.0259874,6.11898736 16.6819801,5.45326534 15.8341643,5.28595487 C15.5445975,5.22893321 15.2195975,5.28595487 14.9218177,5.34555776 C12.2105903,5.88925812 10.1817455,7.43259747 8.66093321,9.68812094 C7.17250361,11.896009 6.39179964,14.3601426 6.05365884,16.9861895 C5.71645668,19.6042581 5.96800903,22.142778 6.99087906,24.5876697 C7.94898375,26.8776877 9.3388574,28.8464603 11.3205361,30.3733736 C12.7151029,31.4473989 14.314056,31.9880487 16.0411318,32.1790596 C16.9743628,32.282074 17.9127563,32.3393303 18.3867635,32.3787527" id="Fill-1"/>
                    </g>
                    <path d="M102.680242,15.1551137 C102.810711,14.7292112 102.932264,14.2249332 103.119755,13.7462329 C103.362155,13.1267383 103.617697,12.5060704 103.937534,11.9243556 C104.670134,10.5915036 105.845531,9.91404874 107.333726,9.68643141 C109.223184,9.39733394 110.594285,10.2160523 111.67535,11.6547347 C112.583473,12.8629838 112.998347,14.2896986 113.214231,15.7483267 C113.54674,17.9963412 113.766614,20.2610162 114.041162,22.517713 C114.307264,24.7054206 114.629448,26.8811606 115.531469,28.9210343 C116.435134,30.9641931 117.860206,32.4674061 119.953347,33.3410343 C120.837769,33.7101498 121.688166,33.6634531 122.508527,33.3264856 C123.302606,33.0000776 124.024881,32.5028394 124.798545,32.1208177 C125.360079,31.8434531 125.935693,31.5637419 126.536415,31.4034711 C128.143112,30.9749874 129.604556,32.1036877 129.809177,33.7451137 C130.074339,35.8725144 129.171144,37.385583 127.498509,38.5337599 C125.740693,39.7403664 123.771686,40.2486336 121.647101,40.2214134 C119.161379,40.1895 116.926036,39.4432906 114.988238,37.8835253 C113.378022,36.5875144 112.250964,34.9015036 111.318906,33.0838502 C110.078274,30.6638321 109.316812,28.0767383 108.933852,25.3995361 C108.550892,22.7225686 108.324448,20.023074 108.013762,17.3353123 C107.963076,16.8972076 107.867336,16.456287 107.72748,16.0385975 C107.598419,15.6535253 107.360711,15.5957996 107.092498,15.8921715 C106.79026,16.2263231 106.508437,16.6015397 106.312264,17.0049152 C105.723274,18.2159801 105.434412,19.5251318 105.214069,20.8424964 C104.869592,22.9016119 104.565946,24.9672978 104.251505,27.0313412 C104.049466,28.3573881 102.647859,29.2831101 101.32369,28.9635072 C100.400079,28.7403484 99.7439783,28.1858538 99.2812347,27.3725325 C98.7471552,26.4332004 98.5244657,25.3943736 98.3001336,24.3555469 C97.6545921,21.3678935 97.5787978,18.3462148 97.7892852,15.3118646 C97.9124801,13.5338682 98.199231,11.7791029 98.6608014,10.0543736 C98.9393394,9.01437365 99.5766679,8.51173827 100.66313,8.50516787 C101.721433,8.49859747 102.301505,8.98574549 102.378004,10.038417 C102.503076,11.7617383 102.584032,13.4881101 102.680242,15.1551137" id="Fill-4" fill="#6522FF"/>
                    <path d="M30.1452401,15.8644819 C28.4094819,15.9846264 26.9243375,16.6449513 25.7524603,17.950583 C25.0815758,18.6979657 24.7795722,19.5647888 24.9330379,20.5799152 C25.1407094,21.9521895 26.3247888,22.7188141 27.652009,22.322009 C28.2834711,22.1333448 28.805583,21.7649332 29.2704386,21.3122798 C30.3876408,20.2241751 31.2500054,18.9727491 31.633435,17.4418466 C31.8591751,16.5407635 31.4370271,15.9743014 30.5155289,15.8663592 C30.3937419,15.8520451 30.2686697,15.8644819 30.1452401,15.8644819 M32.1233989,23.7222076 C31.4597888,24.4731101 30.8264495,25.2650776 30.1133267,25.9770271 C29.212713,26.8764675 28.1572256,27.5682365 26.9311426,27.9633989 C24.6988502,28.6830921 22.1241931,27.8193195 20.7622437,25.9136697 C19.6882184,24.4111606 19.2665397,22.7073159 19.3296625,20.9032726 C19.4317383,17.9789765 20.4344278,15.3637238 22.3353845,13.1309621 C23.5743736,11.6756191 25.1071534,10.7100054 27.090944,10.6546264 C28.895926,10.6041751 30.3066841,11.3914495 31.4504025,12.7327491 C31.5696083,12.8726047 31.6787238,13.0213773 31.8476769,13.2358538 C31.902352,13.0281823 31.9267563,12.8791751 31.9804928,12.7414314 C32.2583267,12.0311245 32.453796,11.2691931 32.843796,10.6257635 C33.842731,8.97776715 35.7659801,8.97542058 36.8571354,10.5680379 C37.3492112,11.2860884 37.557352,12.093074 37.5329477,12.9545 C37.4867202,14.5992112 37.4698249,16.2465036 37.3555469,17.8867563 C37.1129116,21.3742292 37.8926769,24.638074 39.3897888,27.7590126 C40.3361606,29.732009 41.5425325,31.5151679 43.2604567,32.9066841 C44.5733628,33.9703845 46.0481823,34.6386877 47.769157,34.6691931 C48.7751318,34.6867924 49.6651859,34.9836336 50.3632906,35.7467383 C51.5471354,37.0415758 51.1763773,39.0908357 49.5687419,39.7870632 C48.8894097,40.0810884 48.1286516,40.231269 47.3894819,40.3347527 C44.5154025,40.7360162 42.0592473,39.7990307 39.9142473,37.9114495 C37.378074,35.679157 35.5754386,32.9181823 34.1468466,29.8950957 C33.0570993,27.588417 32.8006191,26.7298069 32.1233989,23.7222076" id="Fill-6" fill="#6522FF"/>
                    <path d="M46.2844116,15.1294657 C46.4709639,14.5454043 46.6340505,13.952426 46.8487617,13.3789242 C47.2828773,12.2187798 47.8554404,11.1534368 48.9102238,10.4128592 C50.0640325,9.60258845 53.0059278,9.13374368 54.4957653,10.3579495 C55.4639603,11.1532022 56.0513069,12.1842852 56.4157292,13.3402058 C57.1567762,15.6905307 57.4878773,18.1032744 57.4188881,20.573509 C57.3757112,22.1180217 57.387444,23.6641769 57.3869747,25.2096282 C57.3869747,25.4015776 57.4503321,25.5970469 57.5057112,25.7845379 C58.0207834,27.5296823 57.4186534,29.3846462 56.0100072,30.3758375 C54.8721552,31.176722 53.781704,30.9911083 52.9291949,29.8903321 C52.3610903,29.1570289 52.2350794,28.2916137 52.1107112,27.423852 C51.7462888,24.8820469 51.7725704,22.3198267 51.7162527,19.7611264 C51.692787,18.7002419 51.5914152,17.6407653 51.5069386,16.5822274 C51.4907473,16.3787798 51.4090866,16.1722816 51.319917,15.9852599 C51.1748989,15.6799711 50.9686354,15.6213069 50.7393755,15.8646462 C50.4549711,16.1666498 50.1799531,16.4996282 49.9919928,16.8659278 C49.434213,17.9521552 49.1361986,19.1324801 48.9287617,20.3254765 C48.5544838,22.4784549 48.2240866,24.6391769 47.8925162,26.7994296 C47.5956751,28.7337076 45.6684368,29.617426 44.0089422,28.5703863 C43.3174079,28.1339242 42.9065235,27.4815776 42.5963069,26.7550794 C42.0666859,25.5160903 41.8721552,24.1916859 41.6450072,22.8780758 C41.1883646,20.2388881 41.2162888,17.5825704 41.4286534,14.9262527 C41.561704,13.2622996 41.8393032,11.6180578 42.2813971,10.0043213 C42.5815235,8.9091769 43.5253141,8.31385199 44.6490866,8.52316606 C45.4790686,8.67780505 45.8718845,9.04504332 45.9664513,9.89074729 C46.0720469,10.8352419 46.1314152,11.7865415 46.1706029,12.7366679 C46.2029856,13.5262888 46.1771733,14.318491 46.1771733,15.1095199 L46.2844116,15.1294657 Z" id="Fill-8" fill="#6522FF"/>
                    <path d="M90.6222491,22.3501679 C90.4089458,22.9377491 90.2550108,23.5565397 89.9680253,24.1056372 C89.5644152,24.8781282 89.1432058,25.6672798 88.5865993,26.328778 C86.9538556,28.2686877 84.6002455,28.3646625 82.7659314,26.6143556 C81.5360939,25.4406011 80.8523032,23.9545181 80.4803718,22.322009 C79.9249386,19.884861 79.9606065,17.4432545 80.5005523,15.0056372 C80.8128809,13.5965217 81.1214549,12.1862329 81.4333141,10.7768827 C81.6433321,9.82839892 82.4613466,9.21524007 83.3734585,9.31919314 C84.4031336,9.43652166 84.994704,10.1189043 84.9428448,11.2023159 C84.8762022,12.5964134 84.7342347,13.9876949 84.6912924,15.3820271 C84.6464729,16.8432365 84.7274296,18.3051498 85.2530614,19.6922076 C85.4069964,20.0983989 85.6458773,20.4947347 85.9284043,20.8248971 C86.3552455,21.3235433 86.9451733,21.3540487 87.496852,20.982352 C88.0931155,20.5803845 88.4523755,19.9867022 88.7480433,19.3561787 C89.2933863,18.1939224 89.6441986,16.961269 89.7373574,15.6896625 C89.8544513,14.0900054 89.8978628,12.4811968 89.8844874,10.8768466 C89.8704079,9.20608845 91.6087473,8.22193682 93.0075379,8.66379603 C93.8727184,8.93693682 94.5651913,9.9060704 94.5926462,10.8484531 C94.6696137,13.4946805 94.728278,16.1413773 94.8174477,18.7871354 C94.8796318,20.6399874 94.9296137,22.4989404 95.3402635,24.3170632 C95.4972491,25.013056 95.7478628,25.6888682 95.9698484,26.369139 C96.1843249,27.0264134 96.2892166,27.6857996 96.1355162,28.3738141 C95.9102455,29.383778 95.2058051,29.8807816 94.2697581,30.1133267 C93.3250289,30.3482184 92.5297762,30.083056 91.9299928,29.3093917 C91.3447581,28.5545 91.0688014,27.6604567 90.95687,26.7370812 C90.8205343,25.6109621 90.7773574,24.4733448 90.7048484,23.3399513 C90.6839639,23.0116661 90.7017978,22.681269 90.7017978,22.3515758 C90.6752816,22.3511065 90.6487653,22.3506372 90.6222491,22.3501679" id="Fill-10" fill="#6522FF"/>
                    <path d="M70.3369693,9.29255957 C71.3422401,9.30053791 72.3362473,9.40472563 73.2805072,9.76844404 C74.2747491,10.151639 75.024009,10.7967112 75.2994964,11.8754296 C75.6486661,13.2418375 74.6344783,14.3224332 73.2549296,14.0572708 C73.0618069,14.0201949 72.8501462,13.9927401 72.6879982,13.8937148 C71.9802726,13.4617112 71.2495505,13.6219819 70.5408863,13.8219097 C68.3733592,14.4329567 67.1972581,15.9591661 66.7516444,18.096657 C66.5416264,19.1038051 66.5803448,20.1142383 66.9595505,21.0899422 C67.5720054,22.6647256 68.907204,23.2318917 70.4686119,22.5828303 C71.6726372,22.0825415 72.6262834,21.2464585 73.5097671,20.3165126 C73.6885758,20.128083 73.8741895,19.9431733 74.0300018,19.7366751 C74.5427274,19.057343 75.2664097,18.820574 76.0668249,18.7527581 C76.8705253,18.6847076 77.6383231,19.1399422 78.0013375,19.8706643 C78.4223123,20.7180108 78.41363,21.5885884 78.1294603,22.4666751 C77.6925289,23.8178303 76.932944,24.9516931 75.8213736,25.8457365 C74.5809765,26.8432635 73.2577455,27.7265126 71.7758863,28.2995451 C69.2073303,29.2923791 66.7124567,28.9432094 64.3642437,27.586657 C62.2260487,26.3514224 60.7988646,24.5673249 60.3882148,22.0649422 C60.1343159,20.5171444 60.2922401,19.0040758 60.7906516,17.5316029 C61.6138285,15.0982094 62.9119513,12.9649422 64.8894061,11.2852671 C66.4512834,9.95851625 68.3266625,9.27918412 70.3369693,9.29255957" id="Fill-12" fill="#6522FF"/>
                    <path d="M89.4220957,34.7242906 C90.1187924,33.8919621 90.8769693,33.218731 91.9932329,33.2311679 C93.2308141,33.244778 93.6952004,34.1599404 94.0638466,35.1616913 C94.3055433,34.804778 94.5108682,34.4584242 94.7586661,34.145861 C95.1029079,33.7115108 95.5433592,33.3958971 96.0781426,33.2248321 C97.3476372,32.8186408 98.4599116,33.300157 98.8771318,34.5637852 C99.1089729,35.2658791 99.1767888,36.0362581 99.2248935,36.7817635 C99.2983412,37.917269 99.4745686,39.0128827 99.9933953,40.0395072 C100.90715,41.848009 102.630002,42.6791643 104.658143,42.5428285 C105.061518,42.5156083 105.396608,42.3853736 105.747421,42.1626841 C106.175904,41.8911859 106.680417,41.6558249 107.176013,41.5922329 C108.156175,41.466222 108.896283,42.3783339 108.740236,43.3979188 C108.626897,44.1370884 108.201933,44.6577924 107.596753,45.0531895 C106.477439,45.7846155 105.226013,46.0234964 103.916626,45.9943989 C102.184153,45.9561498 100.563143,45.52837 99.155435,44.4745253 C97.4124025,43.1698321 96.474713,41.3838574 96.2402906,39.2524675 C96.1344603,38.289435 96.2299657,37.3048141 96.2224567,36.3302834 C96.2205794,36.0641823 96.3594964,35.6863845 95.9896769,35.5983881 C95.6294783,35.5125036 95.4290812,35.8410235 95.3263014,36.1305903 C95.013269,37.0138394 94.7356697,37.9095253 94.443991,38.8002834 C94.3017888,39.2346336 94.1781245,39.6762581 94.0115181,40.1009874 C93.7482329,40.7732798 93.1174747,41.0839657 92.3499116,40.9530271 C91.7442617,40.849778 91.2275469,40.272287 91.2437383,39.6018718 C91.2618069,38.8502653 91.365056,38.1007708 91.4253628,37.3498682 C91.453991,36.9927202 91.4873123,36.6343989 91.4823845,36.2772509 C91.4800379,36.0996155 91.4331065,35.9010957 91.3425289,35.7506805 C91.0780704,35.3111679 90.6481787,35.3006083 90.4764097,35.7739116 C90.2260307,36.4642726 90.0298574,37.1879549 89.9226191,37.9137491 C89.7548394,39.0494892 89.6863195,40.1993087 89.5647671,41.3420884 C89.4915542,42.0286949 89.1965903,42.3335144 88.5052906,42.4799404 C87.8696047,42.6146336 87.3317708,42.4294892 87.0705975,41.8442545 C86.8328899,41.3118177 86.6526733,40.7282256 86.5820415,40.1507347 C86.3213375,38.0235686 86.6554892,35.933713 87.1079079,33.8621606 C87.2890632,33.031944 87.6973664,32.7250126 88.3461931,32.8651029 C88.8727635,32.9786769 89.1660848,33.3571787 89.3005433,33.8508971 C89.3735217,34.1191101 89.3800921,34.405157 89.4220957,34.7242906" id="Fill-14" fill="#EC8793"/>
                    <path d="M79.5350325,36.2787527 C79.2337329,36.9332112 79.2224693,37.6812978 79.4350686,38.3695469 C79.5101588,38.6128863 79.59487,38.8512978 79.7053935,39.0772726 C79.9808809,39.6399801 80.5283357,39.7282112 81.0617112,39.4069657 C82.0254477,38.8259549 82.4863141,37.343861 82.0003394,36.3315505 C81.7781191,35.8685722 81.4512419,35.4968755 80.8929928,35.4567491 C80.3213682,35.4154495 79.8607365,35.6644206 79.5972166,36.1536805 C79.5751588,36.1947455 79.554509,36.2362798 79.5350325,36.2787527 M76.4619639,37.7000704 C76.5229747,36.1701065 76.9568556,34.8032292 78.2003032,33.8033556 C80.2131913,32.184926 83.2470722,32.6490776 84.7047617,34.7912617 C86.0094549,36.7086444 85.8576318,39.17137 84.2943466,40.8876516 C83.2874332,41.9931209 82.0153574,42.6083917 80.5128484,42.5354134 C78.7693466,42.4504675 77.6136606,41.4548177 76.9171986,39.9016227 C76.6058087,39.2075072 76.4495271,38.4695108 76.4619639,37.7000704" id="Fill-16" fill="#EC8793"/>
                    <path d="M70.6359693,42.7475199 C69.1864928,42.7097401 68.0364386,42.3258412 67.0485325,41.4982058 C65.9540921,40.5814007 65.5037852,39.3895776 65.7994531,38.01613 C66.2929368,35.7237653 67.5844892,34.042917 69.8723953,33.278639 C70.8598321,32.9487112 71.8751931,33.0221588 72.8673231,33.3185307 C73.3063664,33.4494693 73.667269,33.7059495 73.9000487,34.114722 C74.2759693,34.774343 73.884796,35.4576643 73.1249765,35.4593069 C72.9543809,35.4597762 72.7781534,35.4374838 72.6141282,35.391491 C71.106926,34.9674657 69.5286227,35.9640542 69.2758971,37.5210036 C69.1958791,38.0128448 69.2012762,38.5063285 69.4380451,38.9716534 C69.7684422,39.6207148 70.3689296,39.8987834 71.0775939,39.7145776 C71.9235325,39.4949386 72.577287,38.9690722 73.1686227,38.3610758 C73.4849404,38.0360758 73.8388032,37.8258231 74.2907527,37.7737292 C75.0855361,37.682213 75.672648,38.2012744 75.6588032,39.0021588 C75.6461318,39.7439097 75.2925036,40.3615271 74.7732076,40.8245054 C73.5508791,41.9142527 72.1661679,42.6968339 70.6359693,42.7475199" id="Fill-18" fill="#EC8793"/>
                    <path d="M60.062722,36.0421011 C61.0576679,36.044213 62.0896895,36.7498267 62.4986968,37.70887 C62.8976137,38.6444477 62.6936968,39.8022455 61.9754116,40.529213 C61.3990939,41.1128051 60.6927762,41.2287256 59.9216931,41.0151877 C58.1197617,40.5165415 57.3644007,38.4710361 58.4065126,36.921361 C58.8026137,36.3323718 59.3557004,36.0423357 60.062722,36.0421011" id="Fill-20" fill="#EC8793"/>
                </g>
            </g>
        </g>
    </g>
</svg>
