<?xml version="1.0" encoding="UTF-8"?>
<svg xmlns="http://www.w3.org/2000/svg" xmlns:xlink="http://www.w3.org/1999/xlink" width="15px" height="18px" viewBox="0 0 15 18" version="1.1">
    <!-- Generator: Sketch 44.1 (41455) - http://www.bohemiancoding.com/sketch -->
    <title>Group 16</title>
    <desc>Created with Sketch.</desc>
    <defs/>
    <g id="Symbols" stroke="none" stroke-width="1" fill="none" fill-rule="evenodd">
        <g id="FlightAmenities" transform="translate(-34.000000, 0.000000)" stroke-width="0.2" stroke="#353535" fill="#353535">
            <g id="Page-1">
                <g id="Group-33" transform="translate(34.598773, 0.099422)">
                    <g id="Group-16">
                        <path d="M1.12777337,1.46429563 L1.12777337,16.3810056 L12.2283499,8.9224597 L1.12777337,1.46429563 Z M0.650518068,17.7539736 C0.573584513,17.7539736 0.496460056,17.7352652 0.426017174,17.6978484 C0.270431945,17.6149969 0.173262765,17.4531119 0.173262765,17.2767183 L0.173262765,0.56877378 C0.173262765,0.39238022 0.270431945,0.230495221 0.426017174,0.1476437 C0.581793304,0.0646012778 0.770213698,0.074337286 0.916635625,0.172460976 L13.3502817,8.5263378 C13.4823859,8.61510728 13.5614194,8.76362913 13.5614194,8.9224597 C13.5614194,9.08148117 13.4823859,9.23000302 13.3502817,9.3187725 L0.916635625,17.6728402 C0.836456734,17.7266746 0.743678303,17.7539736 0.650518068,17.7539736 L0.650518068,17.7539736 Z" id="Fill-14"/>
                    </g>
                </g>
            </g>
        </g>
    </g>
</svg>
