<?xml version="1.0" encoding="UTF-8"?>
<svg xmlns="http://www.w3.org/2000/svg" xmlns:xlink="http://www.w3.org/1999/xlink" width="24px" height="15px" viewBox="0 0 24 15" version="1.1">
    <!-- Generator: Sketch 44.1 (41455) - http://www.bohemiancoding.com/sketch -->
    <title>Group 2</title>
    <desc>Created with Sketch.</desc>
    <defs/>
    <g id="Symbols" stroke="none" stroke-width="1" fill="none" fill-rule="evenodd">
        <g id="FlightAmenities" transform="translate(-59.000000, -1.000000)" stroke-width="0.2" stroke="#353535" fill="#353535">
            <g id="Page-1">
                <g id="Group-33" transform="translate(34.598773, 0.099422)">
                    <g id="Group-2" transform="translate(24.000000, 1.000000)">
                        <path d="M21.0263869,5.75558699 C20.9042095,5.75558699 20.7822231,5.70900687 20.6890628,5.61584664 C20.5025514,5.42933527 20.5025514,5.12713721 20.6890628,4.94081674 L22.5408134,3.08925707 C22.7271339,2.9029366 23.029141,2.9029366 23.2156524,3.08925707 C23.4019729,3.27576844 23.4019729,3.5779665 23.2156524,3.76409606 L21.3639018,5.61584664 C21.2705507,5.70900687 21.1485642,5.75558699 21.0263869,5.75558699" id="Fill-17"/>
                        <path d="M18.891433,3.62118674 C18.7692556,3.62118674 18.6472692,3.57460662 18.553918,3.48144638 C18.3675976,3.29493501 18.3675976,2.99273695 18.553918,2.80641648 L20.4058595,0.954856811 C20.59218,0.76853634 20.8941871,0.76853634 21.0806985,0.954856811 C21.267019,1.14136818 21.267019,1.44356624 21.0806985,1.62969581 L19.2289479,3.48144638 C19.1355968,3.57460662 19.0136104,3.62118674 18.891433,3.62118674" id="Fill-19"/>
                        <path d="M10.2450941,6.20302338 C10.1229168,6.20302338 10.0009303,6.15644327 9.90757917,6.06347393 C9.7212587,5.87696256 9.7212587,5.5747645 9.90738827,5.38825313 C10.8515902,4.44366944 10.8515902,2.90671646 9.90757917,1.96251457 C8.96280457,1.01812177 7.4262334,1.01831268 6.48184061,1.96251457 C6.29590194,2.14902594 5.99332208,2.14902594 5.80700161,1.96251457 C5.62049024,1.776385 5.62049024,1.47418694 5.80700161,1.28767557 C7.12308083,-0.0287854587 9.26500263,-0.0289763608 10.5824182,1.28748467 C11.8984974,2.60394569 11.8984974,4.7462493 10.5826091,6.06328303 C10.4894488,6.15644327 10.3672715,6.20302338 10.2450941,6.20302338" id="Fill-21"/>
                        <path d="M9.43150746,14.0137837 C8.56691176,14.0137837 7.70212515,13.6846684 7.04389463,13.0264379 C6.40589974,12.3888248 6.05483074,11.5410285 6.05483074,10.6392069 C6.05483074,9.73738525 6.40589974,8.88920713 7.04389463,8.25140314 C7.23040601,8.06508267 7.53241316,8.06508267 7.71873363,8.25140314 C7.905245,8.43791452 7.905245,8.73992167 7.71873363,8.92643304 C7.26133215,9.38402543 7.00934135,9.99243049 7.00934135,10.6392069 C7.00934135,11.2859833 7.26114125,11.8940065 7.71873363,12.351408 C8.66331733,13.2958008 10.1995067,13.2956099 11.1440904,12.3515989 C11.3304109,12.1650875 11.632418,12.1650875 11.8189294,12.3515989 C12.0054408,12.5381103 12.0054408,12.8401174 11.8189294,13.0264379 C11.1606989,13.6846684 10.2959123,14.0137837 9.43150746,14.0137837" id="Fill-23"/>
                        <path d="M11.4814717,13.1662928 C11.3592944,13.1662928 11.2373079,13.1197127 11.1439568,13.0265524 C10.9576363,12.8400411 10.9576363,12.5380339 11.1439568,12.3515225 L16.3882289,7.10744127 C16.5747403,6.9209299 16.8767475,6.9209299 17.0630679,7.10744127 C17.2495793,7.29376174 17.2495793,7.5957689 17.0630679,7.78228027 L11.8189867,13.0265524 C11.7256355,13.1197127 11.6036491,13.1662928 11.4814717,13.1662928" id="Fill-25"/>
                        <path d="M7.3813714,9.0661734 C7.25919405,9.0661734 7.13720759,9.01959328 7.04385645,8.92643304 C6.85753598,8.74011257 6.85753598,8.43791452 7.04385645,8.25140314 L10.0141026,5.28115704 C10.2006139,5.09464567 10.5026211,5.09464567 10.6889416,5.28115704 C10.8754529,5.46728661 10.8754529,5.76967557 10.6889416,5.95599604 L7.71888635,8.92643304 C7.62553522,9.01959328 7.50354876,9.0661734 7.3813714,9.0661734" id="Fill-27"/>
                        <path d="M1.23056233,7.01584643 C1.10838497,7.01584643 0.986398518,6.96926632 0.893047381,6.87610608 C0.70672691,6.68959471 0.70672691,6.38739665 0.893047381,6.20107618 L5.91339136,1.1809231 C6.09990273,0.994602632 6.40190989,0.994602632 6.58823036,1.1809231 C6.77474173,1.36743447 6.77474173,1.66963253 6.58823036,1.855953 L1.56807728,6.87610608 C1.47472614,6.96926632 1.35273969,7.01584643 1.23056233,7.01584643" id="Fill-29"/>
                        <path d="M17.9818417,2.90864457 L17.1044555,3.78660342 C16.6661442,4.22453289 16.4250349,4.80659346 16.4250349,5.42607084 C16.4250349,6.04554822 16.6661442,6.62779969 17.1042646,7.06592006 C17.542385,7.50384953 18.1246364,7.74514981 18.7439229,7.74514981 C19.3634003,7.74514981 19.9458427,7.50384953 20.3841539,7.06572916 L21.2615401,6.18891572 L17.9818417,2.90864457 Z M18.7439229,8.69966041 C17.8697821,8.69966041 17.0477576,8.35909103 16.4294256,7.74075906 C15.8110936,7.12242709 15.4705243,6.30040256 15.4705243,5.42607084 C15.4705243,4.55173913 15.8110936,3.72971459 16.4294256,3.11138262 L17.6441358,1.89609972 C17.823202,1.71722443 18.1402904,1.71722443 18.3193566,1.89609972 L22.2737031,5.85140077 C22.4602145,6.03791214 22.4602145,6.3401102 22.2737031,6.52623976 L21.0589929,7.74075906 C20.4402792,8.35928193 19.6182546,8.69966041 18.7439229,8.69966041 L18.7439229,8.69966041 Z" id="Fill-31"/>
                    </g>
                </g>
            </g>
        </g>
    </g>
</svg>
