<?xml version="1.0" encoding="UTF-8"?>
<svg xmlns="http://www.w3.org/2000/svg" xmlns:xlink="http://www.w3.org/1999/xlink" width="17px" height="17px" viewBox="0 0 17 17" version="1.1">
    <!-- Generator: Sketch 44.1 (41455) - http://www.bohemiancoding.com/sketch -->
    <title>Fill 1</title>
    <desc>Created with Sketch.</desc>
    <defs/>
    <g id="SR---Hotel-+-Flights" stroke="none" stroke-width="1" fill="none" fill-rule="evenodd">
        <g id="SR---Hotel-+-Flights-Calendar" transform="translate(-527.000000, -622.000000)" fill="#333333">
            <g id="Page-1" transform="translate(527.000000, 622.000000)">
                <path d="M17,8.56947362 C16.953177,8.74256198 16.8308248,8.85324734 16.6975953,8.95687237 C16.2942689,9.27057894 15.8452001,9.47341629 15.3404479,9.53684893 C15.1951164,9.55508811 15.0476239,9.55953759 14.9009958,9.56137622 C14.5164707,9.56626696 14.1319096,9.5664876 13.7473845,9.56814236 C13.4449077,9.56946618 13.142395,9.57141512 12.8399182,9.57093708 C12.3156084,9.57012808 11.7912985,9.56851009 11.2669887,9.56516379 C11.1482023,9.56439156 11.0575817,9.61021015 10.9844658,9.70548782 C10.2429331,10.6718335 9.50046399,11.6374437 8.7578508,12.6029436 C8.08730905,13.4747839 7.41640713,14.3463667 6.74543317,15.2179128 C6.31649823,15.7750536 5.88695099,16.3316796 5.45826818,16.8890043 C5.4015763,16.9626964 5.33660035,17.0009031 5.23798386,16.9999838 C4.72228225,16.9951666 4.20654463,16.9977407 3.69077099,16.9977407 L3.63789699,16.9977407 C4.56196741,14.520117 5.48409288,12.047715 6.40884765,9.56821591 C6.38370728,9.56821591 6.36695905,9.56817914 6.35017479,9.56821591 C5.82586495,9.56920877 5.3015191,9.57185639 4.77720926,9.57056935 C4.4978919,9.56987067 4.21817835,9.57060612 3.93947329,9.55534552 C3.72581622,9.54365185 3.51341978,9.50798248 3.30044704,9.48283006 C3.26756287,9.47896895 3.23485879,9.4736737 3.2019386,9.47014353 C3.13710672,9.46315675 3.1370707,9.46345093 3.11405538,9.40579158 C3.0789021,9.4571996 3.04457722,9.50544518 3.01223331,9.55505134 C2.5079133,10.328047 2.00294498,11.1006014 1.500714,11.8749944 C1.42705778,11.988548 1.33578889,12.0430449 1.19982203,12.0410959 C0.813856226,12.0355801 0.427782368,12.038338 0.0417445285,12.03786 L0,12.03786 C0.00687938304,12.0184441 0.0119218628,12.0028157 0.0178647853,11.9875919 C0.346130215,11.1477438 0.674719803,10.3080795 1.00258904,9.46808427 C1.10477129,9.20630053 1.20482849,8.94363425 1.30607428,8.68144601 C1.35253713,8.56105271 1.35296934,8.44058585 1.3061103,8.32059704 C0.89723723,7.27327822 0.487967965,6.22610649 0.0794550732,5.17864058 C0.0530540901,5.1109791 0.031911693,5.04118481 0.00551070997,4.96425665 L0.058456747,4.96425665 C0.355206678,4.96425665 0.651992627,4.96374183 0.948742558,4.96451405 C1.06248649,4.96480824 1.17623043,4.97002994 1.28990233,4.96903708 C1.34410899,4.96855903 1.38697006,4.98907811 1.41783724,5.02996918 C1.47398886,5.10432327 1.52772728,5.18081016 1.57890845,5.2588415 C2.05538677,5.98550373 2.53100066,6.71275433 3.00715481,7.43967398 C3.04389288,7.49578888 3.08261192,7.55057997 3.11834149,7.60294408 C3.20831374,7.56859852 3.29403589,7.53086989 3.3827115,7.50306985 C3.55476811,7.4491613 3.73312782,7.43349619 3.91191974,7.43316524 C4.72293057,7.43154725 5.53397741,7.43242979 6.34502426,7.43242979 L6.40639844,7.43242979 C6.40034746,7.41356548 6.39649357,7.39984932 6.39155914,7.38657443 C5.4747643,4.92832987 4.55793343,2.47012209 3.64103053,0.0119143042 C3.6395538,0.00786932438 3.63768088,0.00397143474 3.63598805,0 L5.26975148,0 C5.35514947,0.0230931575 5.42383525,0.0668524847 5.48034704,0.140471118 C6.04168309,0.87180347 6.60590055,1.60085592 7.16849721,2.33126896 C8.09422445,3.53314279 9.01944745,4.73542111 9.94467044,5.93777297 C10.2898282,6.38632446 10.6346978,6.83513336 10.978739,7.28460416 C11.0591665,7.38970009 11.161853,7.4416597 11.2923092,7.43853403 C11.3729168,7.43658509 11.4535605,7.43577609 11.5341681,7.43544514 C11.9331723,7.43379037 12.3321405,7.43059116 12.7311087,7.43140016 C13.4599271,7.43290783 14.1887455,7.43537159 14.9175279,7.44103457 C15.0712155,7.44224806 15.2260196,7.44952902 15.3781584,7.47034228 C15.8670989,7.53723154 16.3020848,7.73808317 16.6934172,8.04189793 C16.8289519,8.14714095 16.9565266,8.25786308 17,8.43709246 L17,8.56947362 Z" id="Fill-1"/>
            </g>
        </g>
    </g>
</svg>
