<?xml version="1.0" encoding="UTF-8"?>
<svg xmlns="http://www.w3.org/2000/svg" xmlns:xlink="http://www.w3.org/1999/xlink" width="23px" height="20px" viewBox="0 0 23 20" version="1.1">
    <!-- Generator: Sketch 44.1 (41455) - http://www.bohemiancoding.com/sketch -->
    <title>Group 3</title>
    <desc>Created with Sketch.</desc>
    <defs/>
    <g id="Symbols" stroke="none" stroke-width="1" fill="none" fill-rule="evenodd">
        <g id="Amenities" transform="translate(-82.000000, -1.000000)">
            <g id="Page-1">
                <g id="Group-118" transform="translate(38.805970, 0.180597)">
                    <g id="Group-3" transform="translate(43.000000, 1.000000)">
                        <path d="M7.04501066,17.5185288 C6.75055437,17.5185288 6.51196162,17.279936 6.51196162,16.9854797 L6.51196162,4.4328145 C6.51196162,4.13835821 6.75055437,3.89976546 7.04501066,3.89976546 C7.33946695,3.89976546 7.5780597,4.13835821 7.5780597,4.4328145 L7.5780597,16.9854797 C7.5780597,17.279936 7.33946695,17.5185288 7.04501066,17.5185288" id="Fill-30" fill="#353535"/>
                        <path d="M7.04501066,17.5185288 C6.75055437,17.5185288 6.51196162,17.279936 6.51196162,16.9854797 L6.51196162,4.4328145 C6.51196162,4.13835821 6.75055437,3.89976546 7.04501066,3.89976546 C7.33946695,3.89976546 7.5780597,4.13835821 7.5780597,4.4328145 L7.5780597,16.9854797 C7.5780597,17.279936 7.33946695,17.5185288 7.04501066,17.5185288 Z" id="Stroke-32" stroke="#353535" stroke-width="0.2"/>
                        <path d="M7.04501066,4.72886994 C6.75055437,4.72886994 6.51196162,4.49027719 6.51196162,4.1958209 C6.51196162,2.79219616 5.37017058,1.6501919 3.96654584,1.6501919 C2.56249467,1.6501919 1.42006397,2.79219616 1.42006397,4.1958209 C1.42006397,4.49027719 1.18147122,4.72886994 0.887014925,4.72886994 C0.592558635,4.72886994 0.353965885,4.49027719 0.353965885,4.1958209 C0.353965885,2.20434968 1.97464819,0.584093817 3.96654584,0.584093817 C5.95780384,0.584093817 7.5780597,2.20434968 7.5780597,4.1958209 C7.5780597,4.49027719 7.33946695,4.72886994 7.04501066,4.72886994" id="Fill-34" fill="#353535"/>
                        <path d="M7.04501066,4.72886994 C6.75055437,4.72886994 6.51196162,4.49027719 6.51196162,4.1958209 C6.51196162,2.79219616 5.37017058,1.6501919 3.96654584,1.6501919 C2.56249467,1.6501919 1.42006397,2.79219616 1.42006397,4.1958209 C1.42006397,4.49027719 1.18147122,4.72886994 0.887014925,4.72886994 C0.592558635,4.72886994 0.353965885,4.49027719 0.353965885,4.1958209 C0.353965885,2.20434968 1.97464819,0.584093817 3.96654584,0.584093817 C5.95780384,0.584093817 7.5780597,2.20434968 7.5780597,4.1958209 C7.5780597,4.49027719 7.33946695,4.72886994 7.04501066,4.72886994 Z" id="Stroke-36" stroke="#353535" stroke-width="0.2"/>
                        <path d="M3.76675906,19.4101919 C2.57827292,19.4101919 1.61132196,18.4430277 1.61132196,17.2541151 C1.61132196,16.9596588 1.84991471,16.7210661 2.144371,16.7210661 C2.43861407,16.7210661 2.67742004,16.9596588 2.67742004,17.2541151 C2.67742004,17.8551812 3.1661194,18.3440938 3.76675906,18.3440938 C4.36782516,18.3440938 4.85673774,17.8551812 4.85673774,17.2541151 C4.85673774,16.9596588 5.09554371,16.7210661 5.38978678,16.7210661 C5.68424307,16.7210661 5.92283582,16.9596588 5.92283582,17.2541151 C5.92283582,18.4430277 4.95567164,19.4101919 3.76675906,19.4101919" id="Fill-38" fill="#353535"/>
                        <path d="M3.76675906,19.4101919 C2.57827292,19.4101919 1.61132196,18.4430277 1.61132196,17.2541151 C1.61132196,16.9596588 1.84991471,16.7210661 2.144371,16.7210661 C2.43861407,16.7210661 2.67742004,16.9596588 2.67742004,17.2541151 C2.67742004,17.8551812 3.1661194,18.3440938 3.76675906,18.3440938 C4.36782516,18.3440938 4.85673774,17.8551812 4.85673774,17.2541151 C4.85673774,16.9596588 5.09554371,16.7210661 5.38978678,16.7210661 C5.68424307,16.7210661 5.92283582,16.9596588 5.92283582,17.2541151 C5.92283582,18.4430277 4.95567164,19.4101919 3.76675906,19.4101919 Z" id="Stroke-40" stroke="#353535" stroke-width="0.2"/>
                        <path d="M7.01294243,19.4101919 C5.82402985,19.4101919 4.85686567,18.4430277 4.85686567,17.2541151 C4.85686567,16.9596588 5.09545842,16.7210661 5.38991471,16.7210661 C5.684371,16.7210661 5.92296375,16.9596588 5.92296375,17.2541151 C5.92296375,17.8551812 6.41187633,18.3440938 7.01294243,18.3440938 C7.61379531,18.3440938 8.10270789,17.8551812 8.10270789,17.2541151 C8.10270789,16.9596588 8.34130064,16.7210661 8.63575693,16.7210661 C8.93021322,16.7210661 9.16880597,16.9596588 9.16880597,17.2541151 C9.16880597,18.4430277 8.20164179,19.4101919 7.01294243,19.4101919" id="Fill-42" fill="#353535"/>
                        <path d="M7.01294243,19.4101919 C5.82402985,19.4101919 4.85686567,18.4430277 4.85686567,17.2541151 C4.85686567,16.9596588 5.09545842,16.7210661 5.38991471,16.7210661 C5.684371,16.7210661 5.92296375,16.9596588 5.92296375,17.2541151 C5.92296375,17.8551812 6.41187633,18.3440938 7.01294243,18.3440938 C7.61379531,18.3440938 8.10270789,17.8551812 8.10270789,17.2541151 C8.10270789,16.9596588 8.34130064,16.7210661 8.63575693,16.7210661 C8.93021322,16.7210661 9.16880597,16.9596588 9.16880597,17.2541151 C9.16880597,18.4430277 8.20164179,19.4101919 7.01294243,19.4101919 Z" id="Stroke-44" stroke="#353535" stroke-width="0.2"/>
                        <path d="M10.2582942,19.4101919 C9.0698081,19.4101919 8.10285714,18.4430277 8.10285714,17.2541151 C8.10285714,16.9596588 8.34144989,16.7210661 8.63590618,16.7210661 C8.93036247,16.7210661 9.16895522,16.9596588 9.16895522,17.2541151 C9.16895522,17.8551812 9.65765458,18.3440938 10.2582942,18.3440938 C10.8589339,18.3440938 11.3476333,17.8551812 11.3476333,17.2541151 C11.3476333,16.9596588 11.5864392,16.7210661 11.8806823,16.7210661 C12.1751386,16.7210661 12.4137313,16.9596588 12.4137313,17.2541151 C12.4137313,18.4430277 11.4467804,19.4101919 10.2582942,19.4101919" id="Fill-46" fill="#353535"/>
                        <path d="M10.2582942,19.4101919 C9.0698081,19.4101919 8.10285714,18.4430277 8.10285714,17.2541151 C8.10285714,16.9596588 8.34144989,16.7210661 8.63590618,16.7210661 C8.93036247,16.7210661 9.16895522,16.9596588 9.16895522,17.2541151 C9.16895522,17.8551812 9.65765458,18.3440938 10.2582942,18.3440938 C10.8589339,18.3440938 11.3476333,17.8551812 11.3476333,17.2541151 C11.3476333,16.9596588 11.5864392,16.7210661 11.8806823,16.7210661 C12.1751386,16.7210661 12.4137313,16.9596588 12.4137313,17.2541151 C12.4137313,18.4430277 11.4467804,19.4101919 10.2582942,19.4101919 Z" id="Stroke-48" stroke="#353535" stroke-width="0.2"/>
                        <path d="M13.5038593,19.4101919 C12.3149467,19.4101919 11.3477825,18.4430277 11.3477825,17.2541151 C11.3477825,16.9596588 11.5863753,16.7210661 11.8808316,16.7210661 C12.1752878,16.7210661 12.4138806,16.9596588 12.4138806,17.2541151 C12.4138806,17.8551812 12.9027932,18.3440938 13.5038593,18.3440938 C14.1049254,18.3440938 14.593838,17.8551812 14.593838,17.2541151 C14.593838,16.9596588 14.8326439,16.7210661 15.126887,16.7210661 C15.4213433,16.7210661 15.659936,16.9596588 15.659936,17.2541151 C15.659936,18.4430277 14.6927719,19.4101919 13.5038593,19.4101919" id="Fill-50" fill="#353535"/>
                        <path d="M13.5038593,19.4101919 C12.3149467,19.4101919 11.3477825,18.4430277 11.3477825,17.2541151 C11.3477825,16.9596588 11.5863753,16.7210661 11.8808316,16.7210661 C12.1752878,16.7210661 12.4138806,16.9596588 12.4138806,17.2541151 C12.4138806,17.8551812 12.9027932,18.3440938 13.5038593,18.3440938 C14.1049254,18.3440938 14.593838,17.8551812 14.593838,17.2541151 C14.593838,16.9596588 14.8326439,16.7210661 15.126887,16.7210661 C15.4213433,16.7210661 15.659936,16.9596588 15.659936,17.2541151 C15.659936,18.4430277 14.6927719,19.4101919 13.5038593,19.4101919 Z" id="Stroke-52" stroke="#353535" stroke-width="0.2"/>
                        <path d="M16.7498507,19.4101919 C15.5611514,19.4101919 14.5939872,18.4430277 14.5939872,17.2541151 C14.5939872,16.9596588 14.83258,16.7210661 15.1270362,16.7210661 C15.4214925,16.7210661 15.6600853,16.9596588 15.6600853,17.2541151 C15.6600853,17.8551812 16.1489979,18.3440938 16.7498507,18.3440938 C17.3509168,18.3440938 17.8398294,17.8551812 17.8398294,17.2541151 C17.8398294,16.9596588 18.0784222,16.7210661 18.3728785,16.7210661 C18.6673348,16.7210661 18.9059275,16.9596588 18.9059275,17.2541151 C18.9059275,18.4430277 17.9387633,19.4101919 16.7498507,19.4101919" id="Fill-54" fill="#353535"/>
                        <path d="M16.7498507,19.4101919 C15.5611514,19.4101919 14.5939872,18.4430277 14.5939872,17.2541151 C14.5939872,16.9596588 14.83258,16.7210661 15.1270362,16.7210661 C15.4214925,16.7210661 15.6600853,16.9596588 15.6600853,17.2541151 C15.6600853,17.8551812 16.1489979,18.3440938 16.7498507,18.3440938 C17.3509168,18.3440938 17.8398294,17.8551812 17.8398294,17.2541151 C17.8398294,16.9596588 18.0784222,16.7210661 18.3728785,16.7210661 C18.6673348,16.7210661 18.9059275,16.9596588 18.9059275,17.2541151 C18.9059275,18.4430277 17.9387633,19.4101919 16.7498507,19.4101919 Z" id="Stroke-56" stroke="#353535" stroke-width="0.2"/>
                        <path d="M19.9953945,19.4101919 C18.8069083,19.4101919 17.8399574,18.4430277 17.8399574,17.2541151 C17.8399574,16.9596588 18.0785501,16.7210661 18.3730064,16.7210661 C18.6672495,16.7210661 18.9060554,16.9596588 18.9060554,17.2541151 C18.9060554,17.8551812 19.3947548,18.3440938 19.9953945,18.3440938 C20.5964606,18.3440938 21.0853731,17.8551812 21.0853731,17.2541151 C21.0853731,16.9596588 21.3239659,16.7210661 21.6184222,16.7210661 C21.9128785,16.7210661 22.1514712,16.9596588 22.1514712,17.2541151 C22.1514712,18.4430277 21.184307,19.4101919 19.9953945,19.4101919" id="Fill-58" fill="#353535"/>
                        <path d="M19.9953945,19.4101919 C18.8069083,19.4101919 17.8399574,18.4430277 17.8399574,17.2541151 C17.8399574,16.9596588 18.0785501,16.7210661 18.3730064,16.7210661 C18.6672495,16.7210661 18.9060554,16.9596588 18.9060554,17.2541151 C18.9060554,17.8551812 19.3947548,18.3440938 19.9953945,18.3440938 C20.5964606,18.3440938 21.0853731,17.8551812 21.0853731,17.2541151 C21.0853731,16.9596588 21.3239659,16.7210661 21.6184222,16.7210661 C21.9128785,16.7210661 22.1514712,16.9596588 22.1514712,17.2541151 C22.1514712,18.4430277 21.184307,19.4101919 19.9953945,19.4101919 Z" id="Stroke-60" stroke="#353535" stroke-width="0.2"/>
                        <path d="M16.7281876,17.5185288 C16.4337313,17.5185288 16.1951386,17.279936 16.1951386,16.9854797 L16.1951386,4.4328145 C16.1951386,4.13835821 16.4337313,3.89976546 16.7281876,3.89976546 C17.0226439,3.89976546 17.2612367,4.13835821 17.2612367,4.4328145 L17.2612367,16.9854797 C17.2612367,17.279936 17.0226439,17.5185288 16.7281876,17.5185288" id="Fill-62" fill="#353535"/>
                        <path d="M16.7281876,17.5185288 C16.4337313,17.5185288 16.1951386,17.279936 16.1951386,16.9854797 L16.1951386,4.4328145 C16.1951386,4.13835821 16.4337313,3.89976546 16.7281876,3.89976546 C17.0226439,3.89976546 17.2612367,4.13835821 17.2612367,4.4328145 L17.2612367,16.9854797 C17.2612367,17.279936 17.0226439,17.5185288 16.7281876,17.5185288 Z" id="Stroke-64" stroke="#353535" stroke-width="0.2"/>
                        <path d="M16.7281876,4.72886994 C16.4337313,4.72886994 16.1951386,4.49027719 16.1951386,4.1958209 C16.1951386,2.79219616 15.0531343,1.6501919 13.6492964,1.6501919 C12.2454584,1.6501919 11.1032409,2.79219616 11.1032409,4.1958209 C11.1032409,4.49027719 10.8646482,4.72886994 10.5701919,4.72886994 C10.2757356,4.72886994 10.0371429,4.49027719 10.0371429,4.1958209 C10.0371429,2.20434968 11.6576119,0.584093817 13.6492964,0.584093817 C15.6409808,0.584093817 17.2612367,2.20434968 17.2612367,4.1958209 C17.2612367,4.49027719 17.0226439,4.72886994 16.7281876,4.72886994" id="Fill-66" fill="#353535"/>
                        <path d="M16.7281876,4.72886994 C16.4337313,4.72886994 16.1951386,4.49027719 16.1951386,4.1958209 C16.1951386,2.79219616 15.0531343,1.6501919 13.6492964,1.6501919 C12.2454584,1.6501919 11.1032409,2.79219616 11.1032409,4.1958209 C11.1032409,4.49027719 10.8646482,4.72886994 10.5701919,4.72886994 C10.2757356,4.72886994 10.0371429,4.49027719 10.0371429,4.1958209 C10.0371429,2.20434968 11.6576119,0.584093817 13.6492964,0.584093817 C15.6409808,0.584093817 17.2612367,2.20434968 17.2612367,4.1958209 C17.2612367,4.49027719 17.0226439,4.72886994 16.7281876,4.72886994 Z" id="Stroke-68" stroke="#353535" stroke-width="0.2"/>
                        <path d="M16.7281876,7.48852878 L7.04503198,7.48852878 C6.75057569,7.48852878 6.51198294,7.24993603 6.51198294,6.95547974 C6.51198294,6.66102345 6.75057569,6.4224307 7.04503198,6.4224307 L16.7281876,6.4224307 C17.0226439,6.4224307 17.2612367,6.66102345 17.2612367,6.95547974 C17.2612367,7.24993603 17.0226439,7.48852878 16.7281876,7.48852878" id="Fill-70" fill="#353535"/>
                        <path d="M16.7281876,7.48852878 L7.04503198,7.48852878 C6.75057569,7.48852878 6.51198294,7.24993603 6.51198294,6.95547974 C6.51198294,6.66102345 6.75057569,6.4224307 7.04503198,6.4224307 L16.7281876,6.4224307 C17.0226439,6.4224307 17.2612367,6.66102345 17.2612367,6.95547974 C17.2612367,7.24993603 17.0226439,7.48852878 16.7281876,7.48852878 Z" id="Stroke-72" stroke="#353535" stroke-width="0.2"/>
                        <path d="M16.7281876,11.3313859 L7.04503198,11.3313859 C6.75057569,11.3313859 6.51198294,11.0927932 6.51198294,10.7983369 C6.51198294,10.5038806 6.75057569,10.2652878 7.04503198,10.2652878 L16.7281876,10.2652878 C17.0226439,10.2652878 17.2612367,10.5038806 17.2612367,10.7983369 C17.2612367,11.0927932 17.0226439,11.3313859 16.7281876,11.3313859" id="Fill-74" fill="#353535"/>
                        <path d="M16.7281876,11.3313859 L7.04503198,11.3313859 C6.75057569,11.3313859 6.51198294,11.0927932 6.51198294,10.7983369 C6.51198294,10.5038806 6.75057569,10.2652878 7.04503198,10.2652878 L16.7281876,10.2652878 C17.0226439,10.2652878 17.2612367,10.5038806 17.2612367,10.7983369 C17.2612367,11.0927932 17.0226439,11.3313859 16.7281876,11.3313859 Z" id="Stroke-76" stroke="#353535" stroke-width="0.2"/>
                        <path d="M16.7281876,15.1737313 L7.04503198,15.1737313 C6.75057569,15.1737313 6.51198294,14.9351386 6.51198294,14.6406823 C6.51198294,14.346226 6.75057569,14.1076333 7.04503198,14.1076333 L16.7281876,14.1076333 C17.0226439,14.1076333 17.2612367,14.346226 17.2612367,14.6406823 C17.2612367,14.9351386 17.0226439,15.1737313 16.7281876,15.1737313" id="Fill-78" fill="#353535"/>
                        <path d="M16.7281876,15.1737313 L7.04503198,15.1737313 C6.75057569,15.1737313 6.51198294,14.9351386 6.51198294,14.6406823 C6.51198294,14.346226 6.75057569,14.1076333 7.04503198,14.1076333 L16.7281876,14.1076333 C17.0226439,14.1076333 17.2612367,14.346226 17.2612367,14.6406823 C17.2612367,14.9351386 17.0226439,15.1737313 16.7281876,15.1737313 Z" id="Stroke-80" stroke="#353535" stroke-width="0.2"/>
                    </g>
                </g>
            </g>
        </g>
    </g>
</svg>
