<?xml version="1.0" encoding="UTF-8"?>
<svg xmlns="http://www.w3.org/2000/svg" xmlns:xlink="http://www.w3.org/1999/xlink" width="25px" height="17px" viewBox="0 0 25 17" version="1.1">
    <!-- Generator: Sketch 44.1 (41455) - http://www.bohemiancoding.com/sketch -->
    <title>Group 2</title>
    <desc>Created with Sketch.</desc>
    <defs/>
    <g id="Symbols" stroke="none" stroke-width="1" fill="none" fill-rule="evenodd">
        <g id="Amenities" transform="translate(-38.000000, -3.000000)">
            <g id="Page-1">
                <g id="Group-118" transform="translate(38.805970, 0.180597)">
                    <g id="Group-2" transform="translate(0.000000, 3.000000)">
                        <path d="M13.654968,3.59603412 C13.3605117,3.59603412 13.121919,3.35744136 13.121919,3.06298507 L13.121919,1.83420043 C13.121919,1.5066951 13.0214925,1.46788913 12.9244776,1.43036247 C12.6839659,1.33761194 12.2607249,1.33846482 11.8104051,1.33782516 L11.7050746,1.33782516 C11.2547548,1.33675906 10.8321535,1.33761194 10.5916418,1.43036247 C10.4946269,1.46788913 10.3944136,1.5066951 10.3944136,1.83420043 L10.3944136,3.06298507 C10.3944136,3.35744136 10.1556077,3.59603412 9.86136461,3.59603412 C9.56690832,3.59603412 9.32831557,3.35744136 9.32831557,3.06298507 L9.32831557,1.83420043 C9.32831557,0.959147122 9.80656716,0.590916844 10.2076333,0.435906183 C10.6334328,0.271513859 11.1534755,0.274072495 11.7052878,0.271727079 L11.8101919,0.271727079 C12.3620043,0.273432836 12.8824733,0.271513859 13.3082729,0.435906183 C13.7097655,0.590703625 14.1880171,0.959147122 14.1880171,1.83420043 L14.1880171,3.06298507 C14.1880171,3.35744136 13.9494243,3.59603412 13.654968,3.59603412" id="Fill-14" fill="#353535"/>
                        <path d="M13.654968,3.59603412 C13.3605117,3.59603412 13.121919,3.35744136 13.121919,3.06298507 L13.121919,1.83420043 C13.121919,1.5066951 13.0214925,1.46788913 12.9244776,1.43036247 C12.6839659,1.33761194 12.2607249,1.33846482 11.8104051,1.33782516 L11.7050746,1.33782516 C11.2547548,1.33675906 10.8321535,1.33761194 10.5916418,1.43036247 C10.4946269,1.46788913 10.3944136,1.5066951 10.3944136,1.83420043 L10.3944136,3.06298507 C10.3944136,3.35744136 10.1556077,3.59603412 9.86136461,3.59603412 C9.56690832,3.59603412 9.32831557,3.35744136 9.32831557,3.06298507 L9.32831557,1.83420043 C9.32831557,0.959147122 9.80656716,0.590916844 10.2076333,0.435906183 C10.6334328,0.271513859 11.1534755,0.274072495 11.7052878,0.271727079 L11.8101919,0.271727079 C12.3620043,0.273432836 12.8824733,0.271513859 13.3082729,0.435906183 C13.7097655,0.590703625 14.1880171,0.959147122 14.1880171,1.83420043 L14.1880171,3.06298507 C14.1880171,3.35744136 13.9494243,3.59603412 13.654968,3.59603412 Z" id="Stroke-16" stroke="#353535" stroke-width="0.2"/>
                        <path d="M21.9351386,13.7733262 C21.6406823,13.7733262 21.4020896,13.5347335 21.4020896,13.2402772 C21.4020896,7.92236674 17.0756503,3.59614072 11.7577399,3.59614072 C6.43982942,3.59614072 2.11339019,7.92236674 2.11339019,13.2402772 C2.11339019,13.5347335 1.87479744,13.7733262 1.58034115,13.7733262 C1.28588486,13.7733262 1.04729211,13.5347335 1.04729211,13.2402772 C1.04729211,7.33452026 5.85198294,2.53004264 11.7577399,2.53004264 C17.6634968,2.53004264 22.4681876,7.33452026 22.4681876,13.2402772 C22.4681876,13.5347335 22.2295949,13.7733262 21.9351386,13.7733262" id="Fill-18" fill="#353535"/>
                        <path d="M21.9351386,13.7733262 C21.6406823,13.7733262 21.4020896,13.5347335 21.4020896,13.2402772 C21.4020896,7.92236674 17.0756503,3.59614072 11.7577399,3.59614072 C6.43982942,3.59614072 2.11339019,7.92236674 2.11339019,13.2402772 C2.11339019,13.5347335 1.87479744,13.7733262 1.58034115,13.7733262 C1.28588486,13.7733262 1.04729211,13.5347335 1.04729211,13.2402772 C1.04729211,7.33452026 5.85198294,2.53004264 11.7577399,2.53004264 C17.6634968,2.53004264 22.4681876,7.33452026 22.4681876,13.2402772 C22.4681876,13.5347335 22.2295949,13.7733262 21.9351386,13.7733262 Z" id="Stroke-20" stroke="#353535" stroke-width="0.2"/>
                        <path d="M21.8326866,13.7727932 L1.58066098,13.7727932 C1.28620469,13.7727932 1.04761194,13.5342004 1.04761194,13.2397441 C1.04761194,12.9452878 1.28620469,12.7066951 1.58066098,12.7066951 L21.8326866,12.7066951 C22.1271429,12.7066951 22.3657356,12.9452878 22.3657356,13.2397441 C22.3657356,13.5342004 22.1271429,13.7727932 21.8326866,13.7727932" id="Fill-22" fill="#353535"/>
                        <path d="M21.8326866,13.7727932 L1.58066098,13.7727932 C1.28620469,13.7727932 1.04761194,13.5342004 1.04761194,13.2397441 C1.04761194,12.9452878 1.28620469,12.7066951 1.58066098,12.7066951 L21.8326866,12.7066951 C22.1271429,12.7066951 22.3657356,12.9452878 22.3657356,13.2397441 C22.3657356,13.5342004 22.1271429,13.7727932 21.8326866,13.7727932 Z" id="Stroke-24" stroke="#353535" stroke-width="0.2"/>
                        <path d="M22.8261194,15.7225373 L0.689658849,15.7225373 C0.395202559,15.7225373 0.156609808,15.4839446 0.156609808,15.1894883 C0.156609808,14.895032 0.395202559,14.6564392 0.689658849,14.6564392 L22.8261194,14.6564392 C23.1205757,14.6564392 23.3591684,14.895032 23.3591684,15.1894883 C23.3591684,15.4839446 23.1205757,15.7225373 22.8261194,15.7225373" id="Fill-26" fill="#353535"/>
                        <path d="M22.8261194,15.7225373 L0.689658849,15.7225373 C0.395202559,15.7225373 0.156609808,15.4839446 0.156609808,15.1894883 C0.156609808,14.895032 0.395202559,14.6564392 0.689658849,14.6564392 L22.8261194,14.6564392 C23.1205757,14.6564392 23.3591684,14.895032 23.3591684,15.1894883 C23.3591684,15.4839446 23.1205757,15.7225373 22.8261194,15.7225373 Z" id="Stroke-28" stroke="#353535" stroke-width="0.2"/>
                    </g>
                </g>
            </g>
        </g>
    </g>
</svg>
