<?xml version="1.0" encoding="UTF-8"?>
<svg xmlns="http://www.w3.org/2000/svg" xmlns:xlink="http://www.w3.org/1999/xlink" width="14px" height="13px" viewBox="0 0 14 13" version="1.1">
    <!-- Generator: Sketch 45.2 (43514) - http://www.bohemiancoding.com/sketch -->
    <title>Page 1</title>
    <desc>Created with Sketch.</desc>
    <defs/>
    <g id="SR---Hotel-+-Flights" stroke="none" stroke-width="1" fill="none" fill-rule="evenodd">
        <g id="SR---Hotel-+-Flights-Calendar" transform="translate(-782.000000, -434.000000)" fill="#42B299">
            <g id="rating" transform="translate(782.000000, 395.000000)">
                <g transform="translate(0.528736, 39.114943)" id="Page-1">
                    <g>
                        <path d="M12.8318077,5.11214394 C13.007709,4.93921932 13.0715547,4.72590355 13.0024972,4.52773447 C12.9347426,4.3308276 12.7523263,4.19703191 12.5047615,4.16042743 L8.93200972,3.64165358 C8.84471054,3.62903135 8.69877757,3.52679125 8.65838541,3.45105784 L7.00491276,0.338414737 C6.88894817,0.122574522 6.7000171,-0.0011233789 6.48502656,0.000138844583 C6.27003603,0.00140106806 6.08240793,0.126361193 5.97035226,0.344725855 L4.3559688,3.47630231 C4.31687961,3.55329794 4.17094664,3.65680027 4.08364746,3.67068472 L0.51741055,4.23237417 C0.269845693,4.2715031 0.0900354294,4.40782324 0.0248867829,4.60599232 C-0.0402618635,4.80416141 0.0248867829,5.01621495 0.203394074,5.18661512 L1.41776484,6.34281183 C1.51027592,6.4324297 2.69728426,7.56338194 2.77937155,7.64163979 C2.84321723,7.70222652 2.89924506,7.86757779 2.88621533,7.95214677 L2.33505779,11.4119013 C2.29727157,11.6517238 2.37544995,11.8599907 2.55004832,11.9811641 C2.59695534,12.0139819 2.64777129,12.0379642 2.70249615,12.0543731 C2.84712615,12.0972887 3.01260371,12.0770931 3.17547532,11.9950486 L6.3820917,10.3806647 C6.46027008,10.3415358 6.64138331,10.3402736 6.71956169,10.3794025 L9.94572266,11.9559196 C10.171137,12.0657331 10.3978543,12.0568975 10.5711497,11.9331996 C10.7444451,11.8095017 10.8200175,11.6012348 10.7783224,11.3614124 L10.1841667,7.90796895 C10.169834,7.82339997 10.2245589,7.6580487 10.2871016,7.59746197 L12.8318077,5.11214394 Z" id="Fill-1"/>
                    </g>
                </g>
            </g>
        </g>
    </g>
</svg>
