<?xml version="1.0" encoding="UTF-8"?>
<svg xmlns="http://www.w3.org/2000/svg" xmlns:xlink="http://www.w3.org/1999/xlink" width="11px" height="10px" viewBox="0 0 11 10" version="1.1">
    <!-- Generator: Sketch 44.1 (41455) - http://www.bohemiancoding.com/sketch -->
    <title>Page 1</title>
    <desc>Created with Sketch.</desc>
    <defs/>
    <g id="Symbols" stroke="none" stroke-width="1" fill="none" fill-rule="evenodd">
        <g id="rating" transform="translate(-2.000000, -8.000000)" fill="#EE8F8F">
            <g id="Page-1">
                <g transform="translate(2.000000, 8.000000)">
                    <g>
                        <path d="M10.1487934,4.04324111 C10.2879153,3.90647346 10.3384115,3.73776008 10.2837932,3.58102635 C10.2302055,3.42529092 10.0859308,3.3194707 9.89012954,3.29051988 L7.06440769,2.88021693 C6.99536197,2.87023389 6.87994226,2.78937126 6.84799573,2.72947302 L5.54024918,0.267655292 C5.44853173,0.0969453039 5.29910443,-0.000888490582 5.12906646,0.000109813443 C4.9590285,0.00110811747 4.81063172,0.0999402159 4.72200588,0.272646812 L3.44517532,2.7494391 C3.41425933,2.81033564 3.29883962,2.89219657 3.2297939,2.90317792 L0.409224708,3.34742321 C0.213423412,3.37837063 0.0712098396,3.48618747 0.0196831829,3.6429212 C-0.0318434739,3.79965493 0.0196831829,3.96737001 0.160866222,4.10214105 L1.1213231,5.01658754 C1.19449096,5.08746712 2.13330664,5.98194753 2.19823023,6.04384238 C2.24872635,6.09176097 2.29303928,6.2225388 2.28273395,6.28942517 L1.84681843,9.0257765 C1.81693297,9.21545427 1.87876496,9.38017443 2.0168564,9.47601162 C2.05395559,9.50196752 2.09414638,9.5209353 2.13742877,9.53391325 C2.25181795,9.56785559 2.38269566,9.55188272 2.5115123,9.48699296 L5.04765435,8.21016211 C5.10948633,8.17921469 5.25273044,8.17821639 5.31456243,8.20916381 L7.86616247,9.45604554 C8.0444447,9.54289799 8.22375747,9.53590986 8.36081837,9.43807607 C8.49787928,9.34024227 8.5576502,9.17552211 8.52467314,8.98584434 L8.05475003,6.25448453 C8.04341417,6.18759816 8.08669656,6.05682033 8.13616215,6.00890174 L10.1487934,4.04324111 Z" id="Fill-1"/>
                    </g>
                </g>
            </g>
        </g>
    </g>
</svg>
