<?xml version="1.0" encoding="UTF-8"?>
<svg xmlns="http://www.w3.org/2000/svg" xmlns:xlink="http://www.w3.org/1999/xlink" width="13px" height="12px" viewBox="0 0 13 12" version="1.1">
    <!-- Generator: Sketch 45.2 (43514) - http://www.bohemiancoding.com/sketch -->
    <title>Page 1</title>
    <desc>Created with Sketch.</desc>
    <defs/>
    <g id="Landing-Page---Hotel" stroke="none" stroke-width="1" fill="none" fill-rule="evenodd">
        <g id="Hotel-Landing-Page---Hotel-Note" transform="translate(-237.000000, -229.000000)" fill="#42B299">
            <g id="rating" transform="translate(232.000000, 214.000000)">
                <g transform="translate(3.000000, 6.000000)" id="Page-1">
                    <g transform="translate(2.333333, 9.333333)">
                        <g>
                            <path d="M11.8402589,4.71711463 C12.0025679,4.55755237 12.06148,4.3607201 11.9977587,4.17786408 C11.9352397,3.99617274 11.7669193,3.87271581 11.5384845,3.83893986 L8.24180897,3.36025308 C8.16125563,3.3486062 8.0265993,3.25426647 7.98932835,3.18438519 L6.46362405,0.312264507 C6.35662036,0.113102855 6.1822885,-0.00103657235 5.98391087,0.000128115683 C5.78553325,0.00129280371 5.61240368,0.116596919 5.50900685,0.318087948 L4.01937121,3.20767895 C3.98330255,3.27872492 3.84864622,3.37422934 3.76809288,3.3870409 L0.477428826,3.90532708 C0.248993981,3.94143241 0.0830781462,4.06721871 0.0229637133,4.25007473 C-0.0371507195,4.43293075 0.0229637133,4.62859834 0.187677259,4.78583123 L1.30821029,5.85268546 C1.39357278,5.93537831 2.48885775,6.97893879 2.56460193,7.05114944 C2.62351408,7.10705447 2.67521249,7.2596286 2.6631896,7.3376627 L2.1546215,10.5300726 C2.11975513,10.7513633 2.19189245,10.9435368 2.35299913,11.0553469 C2.39628152,11.0856288 2.44317078,11.1077578 2.4936669,11.1228988 C2.62712094,11.1624982 2.7798116,11.1438632 2.93009769,11.0681585 L5.88893007,9.57852247 C5.96106739,9.54241714 6.12818551,9.54125245 6.20032283,9.57735778 L9.17718955,11.0320531 C9.38518548,11.133381 9.59438371,11.1252282 9.7542881,11.0110887 C9.91419249,10.8969493 9.98392523,10.7047758 9.945452,10.4834851 L9.39720837,7.29689862 C9.38398319,7.21886452 9.43447932,7.06629039 9.49218917,7.01038536 L11.8402589,4.71711463 Z" id="Fill-1"/>
                        </g>
                    </g>
                </g>
            </g>
        </g>
    </g>
</svg>
